SplineFontDB: 3.0
FontName: Exo-Regular
FullName: Exo Regular
FamilyName: Exo
Weight: Book
Copyright: Copyright (c) 2011 Natanael Gama (exo@ndiscovered.com), with Reserved Font Name "Exo"
Version: 1
ItalicAngle: 0
UnderlinePosition: -50
UnderlineWidth: 50
Ascent: 800
Descent: 200
sfntRevision: 0x00010000
LayerCount: 2
Layer: 0 1 "Back"  1
Layer: 1 1 "Fore"  0
XUID: [1021 398 1914494895 7851804]
FSType: 0
OS2Version: 4
OS2_WeightWidthSlopeOnly: 0
OS2_UseTypoMetrics: 1
CreationTime: 1265665101
ModificationTime: 1328305027
PfmFamily: 17
TTFWeight: 400
TTFWidth: 5
LineGap: 0
VLineGap: 0
Panose: 2 0 5 3 0 0 0 0 0 0
OS2TypoAscent: 202
OS2TypoAOffset: 1
OS2TypoDescent: -127
OS2TypoDOffset: 1
OS2TypoLinegap: 0
OS2WinAscent: 0
OS2WinAOffset: 1
OS2WinDescent: 54
OS2WinDOffset: 1
HheadAscent: 0
HheadAOffset: 1
HheadDescent: -54
HheadDOffset: 1
OS2SubXSize: 650
OS2SubYSize: 700
OS2SubXOff: 0
OS2SubYOff: 140
OS2SupXSize: 650
OS2SupYSize: 700
OS2SupXOff: 0
OS2SupYOff: 480
OS2StrikeYSize: 49
OS2StrikeYPos: 258
OS2Vendor: 'PfEd'
OS2CodePages: 20000093.00000000
OS2UnicodeRanges: a00000ef.4000204b.00000000.00000000
Lookup: 4 0 0 "'ordn' Ordinals lookup 0"  {"'ordn' Ordinals lookup 0 subtable"  } ['ordn' ('DFLT' <'dflt' > 'grek' <'dflt' > 'latn' <'dflt' > ) ]
Lookup: 1 0 0 "'smcp' Lowercase to Small Capitals lookup 1"  {"'smcp' Lowercase to Small Capitals lookup 1 subtable"  } ['smcp' ('DFLT' <'dflt' > 'grek' <'dflt' > 'latn' <'FRA ' 'dflt' > ) ]
Lookup: 1 0 0 "'c2sc' Capitals to Small Capitals in Latin lookup 2"  {"'c2sc' Capitals to Small Capitals in Latin lookup 2 subtable"  } ['c2sc' ('latn' <'dflt' > ) ]
Lookup: 4 0 0 "'dlig' Discretionary Ligatures lookup 3"  {"'dlig' Discretionary Ligatures lookup 3 subtable"  } ['dlig' ('DFLT' <'dflt' > 'grek' <'dflt' > 'latn' <'dflt' > ) ]
Lookup: 4 0 1 "'liga' Standard Ligatures lookup 4"  {"'liga' Standard Ligatures lookup 4 subtable"  } ['liga' ('DFLT' <'dflt' > 'grek' <'dflt' > 'latn' <'FRA ' 'dflt' > ) ]

StartChar: .notdef
Encoding: 0 -1 0
AltUni2: 000000.ffffffff.0
Width: 758
Flags: W
LayerCount: 2
Fore
SplineSet
644 506 m 1,0,-1
 392 266 l 1,1,-1
 644 25 l 1,2,-1
 644 506 l 1,0,-1
127 13 m 1,3,-1
 634 13 l 1,4,-1
 381 256 l 1,5,-1
 127 13 l 1,3,-1
114 22 m 1,6,-1
 370 266 l 1,7,-1
 114 507 l 1,8,-1
 114 22 l 1,6,-1
635 518 m 1,9,-1
 124 518 l 1,10,-1
 381 276 l 1,11,-1
 635 518 l 1,9,-1
100 0 m 1,12,-1
 100 531 l 1,13,-1
 658 531 l 1,14,-1
 658 0 l 1,15,-1
 100 0 l 1,12,-1
EndSplineSet
EndChar

StartChar: exclam
Encoding: 33 33 4
Width: 269
GlyphClass: 2
Flags: W
LayerCount: 2
Fore
SplineSet
82 23 m 2,0,-1
 82 80 l 2,1,2
 82 105 82 105 106 105 c 2,3,-1
 161 105 l 2,4,5
 184 105 184 105 184 80 c 2,6,-1
 184 23 l 2,7,8
 184 0 184 0 161 0 c 2,9,-1
 106 0 l 2,10,11
 82 0 82 0 82 23 c 2,0,-1
88 731 m 1,12,-1
 177 731 l 1,13,-1
 170 196 l 1,14,-1
 95 196 l 1,15,-1
 88 731 l 1,12,-1
EndSplineSet
Substitution2: "'smcp' Lowercase to Small Capitals lookup 1 subtable" exclam.smcp
EndChar

StartChar: quotedbl
Encoding: 34 34 5
Width: 380
GlyphClass: 2
Flags: W
LayerCount: 2
Fore
SplineSet
85 732 m 1,0,-1
 160 732 l 1,1,-1
 160 665 l 1,2,-1
 150 531 l 1,3,-1
 96 531 l 1,4,-1
 85 665 l 1,5,-1
 85 732 l 1,0,-1
220 732 m 1,6,-1
 295 732 l 1,7,-1
 295 665 l 1,8,-1
 285 531 l 1,9,-1
 231 531 l 1,10,-1
 220 665 l 1,11,-1
 220 732 l 1,6,-1
EndSplineSet
Substitution2: "'smcp' Lowercase to Small Capitals lookup 1 subtable" quotedbl.smcp
EndChar

StartChar: numbersign
Encoding: 35 35 6
Width: 687
GlyphClass: 2
Flags: W
LayerCount: 2
Fore
SplineSet
20 232 m 1,0,-1
 28 284 l 1,1,-1
 187 284 l 1,2,-1
 213 449 l 1,3,-1
 54 449 l 1,4,-1
 63 501 l 1,5,-1
 221 501 l 1,6,-1
 258 732 l 1,7,-1
 310 732 l 1,8,-1
 273 501 l 1,9,-1
 439 501 l 1,10,-1
 475 732 l 1,11,-1
 527 732 l 1,12,-1
 491 501 l 1,13,-1
 668 501 l 1,14,-1
 659 449 l 1,15,-1
 482 449 l 1,16,-1
 456 283 l 1,17,-1
 633 283 l 1,18,-1
 625 231 l 1,19,-1
 448 231 l 1,20,-1
 411 0 l 1,21,-1
 359 0 l 1,22,-1
 396 231 l 1,23,-1
 230 232 l 1,24,-1
 193 0 l 1,25,-1
 141 0 l 1,26,-1
 178 232 l 1,27,-1
 20 232 l 1,0,-1
239 284 m 1,28,-1
 404 283 l 1,29,-1
 430 449 l 1,30,-1
 265 449 l 1,31,-1
 239 284 l 1,28,-1
EndSplineSet
Substitution2: "'smcp' Lowercase to Small Capitals lookup 1 subtable" numbersign.smcp
EndChar

StartChar: dollar
Encoding: 36 36 7
Width: 575
GlyphClass: 2
Flags: W
LayerCount: 2
Fore
SplineSet
78 72 m 1,0,-1
 317 66 l 1,1,2
 446 66 446 66 446 156 c 2,3,-1
 446 224 l 2,4,5
 446 322 446 322 363 322 c 2,6,-1
 233 322 l 2,7,8
 128 322 128 322 88 378 c 1,9,10
 55 426 55 426 55 494 c 2,11,-1
 55 560 l 1,12,13
 56 659 56 659 105.5 697.5 c 128,-1,14
 155 736 155 736 244 738 c 1,15,-1
 244 824 l 1,16,-1
 302 824 l 1,17,-1
 302 735 l 1,18,19
 367 730 367 730 493 714 c 1,20,-1
 493 656 l 1,21,-1
 253 665 l 2,22,23
 246 665 246 665 232.5 665 c 128,-1,24
 219 665 219 665 201 662.5 c 128,-1,25
 183 660 183 660 165 650 c 0,26,27
 129 628 129 628 129 560 c 2,28,-1
 129 494 l 2,29,30
 129 396 129 396 233 396 c 2,31,-1
 363 396 l 2,32,33
 461 396 461 396 494 340 c 0,34,35
 520 294 520 294 520 224 c 2,36,-1
 520 156 l 2,37,38
 520 57 520 57 450 20 c 0,39,40
 398 -8 398 -8 323 -8 c 0,41,42
 313 -8 313 -8 302 -8 c 1,43,-1
 302 -90 l 1,44,-1
 244 -90 l 1,45,-1
 244 -3 l 1,46,-1
 78 17 l 1,47,-1
 78 72 l 1,0,-1
EndSplineSet
Substitution2: "'smcp' Lowercase to Small Capitals lookup 1 subtable" dollar.smcp
EndChar

StartChar: percent
Encoding: 37 37 8
Width: 955
GlyphClass: 2
Flags: W
LayerCount: 2
Fore
SplineSet
42 474 m 2,0,-1
 42 607 l 2,1,2
 42 673 42 673 70 702.5 c 128,-1,3
 98 732 98 732 171 732 c 2,4,-1
 272 732 l 2,5,6
 343 732 343 732 371 702.5 c 128,-1,7
 399 673 399 673 399 607 c 2,8,-1
 399 474 l 2,9,10
 399 408 399 408 371 378.5 c 128,-1,11
 343 349 343 349 270 349 c 2,12,-1
 169 349 l 2,13,14
 98 349 98 349 70 378.5 c 128,-1,15
 42 408 42 408 42 474 c 2,0,-1
107 474 m 2,16,17
 107 438 107 438 120 426 c 128,-1,18
 133 414 133 414 169 414 c 2,19,-1
 270 414 l 2,20,21
 312 414 312 414 323 426 c 128,-1,22
 334 438 334 438 334 474 c 2,23,-1
 334 607 l 2,24,25
 334 643 334 643 321 655 c 128,-1,26
 308 667 308 667 272 667 c 2,27,-1
 171 667 l 2,28,29
 130 667 130 667 118.5 655 c 128,-1,30
 107 643 107 643 107 607 c 2,31,-1
 107 474 l 2,16,17
227 0 m 1,32,-1
 665 732 l 1,33,-1
 736 732 l 1,34,-1
 298 0 l 1,35,-1
 227 0 l 1,32,-1
556 127 m 2,36,-1
 556 260 l 2,37,38
 556 326 556 326 584 355.5 c 128,-1,39
 612 385 612 385 685 385 c 2,40,-1
 786 385 l 2,41,42
 857 385 857 385 885 355.5 c 128,-1,43
 913 326 913 326 913 260 c 2,44,-1
 913 127 l 2,45,46
 913 61 913 61 885 31.5 c 128,-1,47
 857 2 857 2 784 2 c 2,48,-1
 683 2 l 2,49,50
 612 2 612 2 584 31.5 c 128,-1,51
 556 61 556 61 556 127 c 2,36,-1
621 127 m 2,52,53
 621 91 621 91 634 79 c 128,-1,54
 647 67 647 67 683 67 c 2,55,-1
 784 67 l 2,56,57
 826 67 826 67 837 79 c 128,-1,58
 848 91 848 91 848 127 c 2,59,-1
 848 260 l 2,60,61
 848 296 848 296 835 308 c 128,-1,62
 822 320 822 320 786 320 c 2,63,-1
 685 320 l 2,64,65
 644 320 644 320 632.5 308 c 128,-1,66
 621 296 621 296 621 260 c 2,67,-1
 621 127 l 2,52,53
EndSplineSet
Substitution2: "'smcp' Lowercase to Small Capitals lookup 1 subtable" percent.smcp
EndChar

StartChar: ampersand
Encoding: 38 38 9
Width: 637
GlyphClass: 2
Flags: W
LayerCount: 2
Fore
SplineSet
33 205 m 0,0,1
 33 297 33 297 114 366 c 2,2,-1
 200 439 l 1,3,-1
 137 524 l 1,4,5
 104 572 104 572 104 612 c 0,6,7
 104 662 104 662 137 694 c 128,-1,8
 170 726 170 726 206 729.5 c 128,-1,9
 242 733 242 733 278 733 c 0,10,11
 373 733 373 733 473 710 c 1,12,-1
 473 660 l 1,13,-1
 270 660 l 2,14,15
 225 660 225 660 203 650 c 128,-1,16
 181 640 181 640 181 613 c 128,-1,17
 181 586 181 586 216 538 c 2,18,-1
 451 220 l 1,19,-1
 565 339 l 1,20,-1
 588 315 l 1,21,-1
 537 208 l 1,22,-1
 496 163 l 1,23,-1
 613 0 l 1,24,-1
 525 0 l 1,25,-1
 443 111 l 1,26,-1
 371 44 l 2,27,28
 320 -4 320 -4 247 -4 c 0,29,30
 138 -4 138 -4 78 82 c 1,31,32
 33 142 33 142 33 205 c 0,0,1
247 68 m 0,33,34
 285 68 285 68 318 95 c 1,35,-1
 398 170 l 1,36,-1
 242 378 l 1,37,-1
 164 313 l 2,38,39
 105 265 105 265 105 210 c 0,40,41
 105 168 105 168 139 125 c 0,42,43
 183 68 183 68 247 68 c 0,33,34
EndSplineSet
AlternateSubs2: "'salt' Stylistic Alternatives in Latin lookup 16 subtable" ampersand.salt
Substitution2: "'smcp' Lowercase to Small Capitals lookup 1 subtable" ampersand.smcp
EndChar

StartChar: quotesingle
Encoding: 39 39 10
Width: 185
GlyphClass: 2
Flags: W
LayerCount: 2
Fore
SplineSet
55 732 m 1,0,-1
 130 732 l 1,1,-1
 130 665 l 1,2,-1
 120 531 l 1,3,-1
 66 531 l 1,4,-1
 55 665 l 1,5,-1
 55 732 l 1,0,-1
EndSplineSet
Substitution2: "'smcp' Lowercase to Small Capitals lookup 1 subtable" quotesingle.smcp
EndChar

StartChar: parenleft
Encoding: 40 40 11
Width: 335
GlyphClass: 2
Flags: W
LayerCount: 2
Fore
SplineSet
92 149 m 128,-1,1
 75 238 75 238 75 320.5 c 128,-1,2
 75 403 75 403 91.5 486 c 128,-1,3
 108 569 108 569 131 633 c 0,4,5
 178 762 178 762 218 832 c 2,6,-1
 234 860 l 1,7,-1
 315 860 l 1,8,9
 292 825 292 825 260.5 758 c 128,-1,10
 229 691 229 691 207 631 c 128,-1,11
 185 571 185 571 167 486.5 c 128,-1,12
 149 402 149 402 149 322 c 128,-1,13
 149 242 149 242 166 156 c 128,-1,14
 183 70 183 70 208 7 c 0,15,16
 258 -123 258 -123 298 -184 c 2,17,-1
 315 -210 l 1,18,-1
 234 -210 l 1,19,-1
 217 -184 l 2,20,21
 206 -168 206 -168 178.5 -113 c 128,-1,22
 151 -58 151 -58 130 1 c 128,-1,0
 109 60 109 60 92 149 c 128,-1,1
EndSplineSet
Substitution2: "'case' Case-Sensitive Forms lookup 18 subtable" parenleft.alt
Substitution2: "'c2sc' Capitals to Small Capitals in Latin lookup 2 subtable" parenleft.smcp
Substitution2: "'smcp' Lowercase to Small Capitals lookup 1 subtable" parenleft.smcp
EndChar

StartChar: parenright
Encoding: 41 41 12
Width: 335
GlyphClass: 2
Flags: W
LayerCount: 2
Fore
SplineSet
168 154.5 m 128,-1,1
 186 242 186 242 186 322 c 128,-1,2
 186 402 186 402 169 485 c 128,-1,3
 152 568 152 568 128 632 c 0,4,5
 76 765 76 765 37 832 c 1,6,-1
 20 860 l 1,7,-1
 101 860 l 1,8,9
 107 849 107 849 118 830 c 128,-1,10
 129 811 129 811 156.5 751.5 c 128,-1,11
 184 692 184 692 205 632 c 128,-1,12
 226 572 226 572 243 487.5 c 128,-1,13
 260 403 260 403 260 320.5 c 128,-1,14
 260 238 260 238 243.5 150 c 128,-1,15
 227 62 227 62 204 0 c 0,16,17
 153 -132 153 -132 118 -186 c 1,18,-1
 101 -210 l 1,19,-1
 20 -210 l 1,20,21
 43 -177 43 -177 74.5 -114 c 128,-1,22
 106 -51 106 -51 128 8 c 128,-1,0
 150 67 150 67 168 154.5 c 128,-1,1
EndSplineSet
Substitution2: "'case' Case-Sensitive Forms lookup 18 subtable" parenright.alt
Substitution2: "'c2sc' Capitals to Small Capitals in Latin lookup 2 subtable" parenright.smcp
Substitution2: "'smcp' Lowercase to Small Capitals lookup 1 subtable" parenright.smcp
EndChar

StartChar: asterisk
Encoding: 42 42 13
Width: 440
GlyphClass: 2
Flags: W
LayerCount: 2
Fore
SplineSet
50 566 m 1,0,-1
 50 606 l 1,1,-1
 189 635 l 1,2,-1
 194 561 l 1,3,-1
 50 566 l 1,0,-1
118 414 m 1,4,-1
 142 549 l 1,5,-1
 214 532 l 1,6,-1
 155 402 l 1,7,-1
 118 414 l 1,4,-1
176 717 m 1,8,-1
 215 733 l 1,9,-1
 290 615 l 1,10,-1
 222 584 l 1,11,-1
 176 717 l 1,8,-1
208 476 m 1,12,-1
 249 538 l 1,13,-1
 359 447 l 1,14,-1
 338 415 l 1,15,-1
 208 476 l 1,12,-1
251 571 m 1,16,-1
 371 647 l 1,17,-1
 390 612 l 1,18,-1
 299 515 l 1,19,-1
 251 571 l 1,16,-1
EndSplineSet
Substitution2: "'smcp' Lowercase to Small Capitals lookup 1 subtable" asterisk.smcp
EndChar

StartChar: plus
Encoding: 43 43 14
Width: 516
GlyphClass: 2
Flags: W
LayerCount: 2
Fore
SplineSet
50 319 m 1,0,-1
 50 393 l 1,1,-1
 220 393 l 1,2,-1
 220 564 l 1,3,-1
 294 564 l 1,4,-1
 294 393 l 1,5,-1
 466 393 l 1,6,-1
 466 319 l 1,7,-1
 294 319 l 1,8,-1
 294 148 l 1,9,-1
 220 148 l 1,10,-1
 220 319 l 1,11,-1
 50 319 l 1,0,-1
EndSplineSet
EndChar

StartChar: comma
Encoding: 44 44 15
Width: 270
GlyphClass: 2
Flags: W
LayerCount: 2
Fore
SplineSet
85 25 m 2,0,-1
 85 79 l 2,1,2
 85 106 85 106 110 106 c 2,3,-1
 161 106 l 2,4,5
 185 106 185 106 185 79 c 2,6,-1
 185 -11 l 2,7,8
 185 -38 185 -38 175 -56 c 0,9,10
 155 -90 155 -90 108 -90 c 0,11,12
 104 -90 104 -90 100 -90 c 2,13,-1
 90 -88 l 1,14,-1
 90 -56 l 1,15,16
 91 -56 91 -56 92 -56 c 0,17,18
 121 -56 121 -56 121 -25 c 2,19,-1
 121 0 l 1,20,-1
 110 0 l 2,21,22
 85 0 85 0 85 25 c 2,0,-1
EndSplineSet
EndChar

StartChar: hyphen
Encoding: 45 45 16
Width: 354
GlyphClass: 2
Flags: W
LayerCount: 2
Fore
SplineSet
20 253 m 1,0,-1
 20 327 l 1,1,-1
 334 327 l 1,2,-1
 334 253 l 1,3,-1
 20 253 l 1,0,-1
EndSplineSet
Substitution2: "'case' Case-Sensitive Forms lookup 18 subtable" hyphen.alt
Substitution2: "'c2sc' Capitals to Small Capitals in Latin lookup 2 subtable" hyphen.smcp
Substitution2: "'smcp' Lowercase to Small Capitals lookup 1 subtable" hyphen.smcp
EndChar

StartChar: period
Encoding: 46 46 17
Width: 272
GlyphClass: 2
Flags: W
LayerCount: 2
Fore
SplineSet
85 23 m 2,0,-1
 85 80 l 2,1,2
 85 105 85 105 109 105 c 2,3,-1
 162 105 l 2,4,5
 187 105 187 105 187 80 c 2,6,-1
 187 23 l 2,7,8
 187 0 187 0 162 0 c 2,9,-1
 109 0 l 2,10,11
 85 0 85 0 85 23 c 2,0,-1
EndSplineSet
EndChar

StartChar: slash
Encoding: 47 47 18
Width: 400
GlyphClass: 2
Flags: W
LayerCount: 2
Fore
SplineSet
20 -72 m 1,0,-1
 301 770 l 1,1,-1
 380 770 l 1,2,-1
 99 -72 l 1,3,-1
 20 -72 l 1,0,-1
EndSplineSet
Substitution2: "'numr' Numerators in Latin lookup 13 subtable" fraction
Substitution2: "'frac' Diagonal Fractions lookup 6 subtable" fraction
EndChar

StartChar: zero
Encoding: 48 48 19
Width: 643
GlyphClass: 2
Flags: W
LayerCount: 2
Fore
SplineSet
70 162 m 2,0,-1
 70 570 l 2,1,2
 70 648 70 648 118.5 690 c 128,-1,3
 167 732 167 732 242 732 c 2,4,-1
 406 732 l 2,5,6
 492 732 492 732 532.5 686.5 c 128,-1,7
 573 641 573 641 573 570 c 2,8,-1
 573 162 l 2,9,10
 573 0 573 0 406 0 c 2,11,-1
 242 0 l 2,12,13
 167 0 167 0 118.5 39 c 128,-1,14
 70 78 70 78 70 162 c 2,0,-1
144 162 m 2,15,16
 144 116 144 116 172.5 95 c 128,-1,17
 201 74 201 74 242 74 c 2,18,-1
 406 74 l 2,19,20
 499 74 499 74 499 162 c 2,21,-1
 499 570 l 2,22,23
 499 658 499 658 406 658 c 2,24,-1
 242 658 l 2,25,26
 192 658 192 658 168 633.5 c 128,-1,27
 144 609 144 609 144 570 c 2,28,-1
 144 162 l 2,15,16
EndSplineSet
Substitution2: "'dnom' Denominators in Latin lookup 19 subtable" zero.denominator
Substitution2: "'sups' Superscript lookup 17 subtable" zerosuperior
Substitution2: "'onum' Oldstyle Figures in Latin lookup 15 subtable" zero.oldstyle
Substitution2: "'tnum' Tabular Numbers in Latin lookup 14 subtable" zero.tnum
Substitution2: "'numr' Numerators in Latin lookup 13 subtable" zero.numerator
Substitution2: "'zero' Slashed Zero lookup 12 subtable" uni0338
Substitution2: "'sinf' Scientific Inferiors lookup 11 subtable" zeroinferior
Substitution2: "'frac' Diagonal Fractions lookup 5 subtable" zero.numerator
Substitution2: "'smcp' Lowercase to Small Capitals lookup 1 subtable" zero.smcp
EndChar

StartChar: one
Encoding: 49 49 20
Width: 362
GlyphClass: 2
Flags: W
LayerCount: 2
Fore
SplineSet
282 732 m 1,0,-1
 282 0 l 1,1,-1
 208 0 l 1,2,-1
 208 648 l 1,3,-1
 40 594 l 1,4,-1
 40 647 l 1,5,-1
 208 732 l 1,6,-1
 282 732 l 1,0,-1
EndSplineSet
Substitution2: "'dnom' Denominators in Latin lookup 19 subtable" one.denominator
Substitution2: "'sups' Superscript lookup 17 subtable" onesuperior
Substitution2: "'onum' Oldstyle Figures in Latin lookup 15 subtable" one.oldstyle
Substitution2: "'tnum' Tabular Numbers in Latin lookup 14 subtable" one.tnum
Substitution2: "'numr' Numerators in Latin lookup 13 subtable" one.numerator
Substitution2: "'sinf' Scientific Inferiors lookup 11 subtable" oneinferior
Substitution2: "'frac' Diagonal Fractions lookup 5 subtable" one.numerator
Substitution2: "'smcp' Lowercase to Small Capitals lookup 1 subtable" one.smcp
EndChar

StartChar: two
Encoding: 50 50 21
Width: 597
GlyphClass: 2
Flags: W
LayerCount: 2
Fore
SplineSet
40 667 m 1,0,-1
 40 722 l 1,1,2
 197 742 197 742 344 742 c 0,3,4
 445 742 445 742 496 680 c 128,-1,5
 547 618 547 618 547 532 c 0,6,7
 547 477 547 477 516 414 c 128,-1,8
 485 351 485 351 443 300.5 c 128,-1,9
 401 250 401 250 346 200 c 0,10,11
 261 121 261 121 190 74 c 1,12,-1
 547 74 l 1,13,-1
 547 0 l 1,14,-1
 47 0 l 1,15,-1
 47 68 l 1,16,17
 245 203 245 203 355 320 c 0,18,19
 402 370 402 370 437 428.5 c 128,-1,20
 472 487 472 487 472 540 c 128,-1,21
 472 593 472 593 440 630 c 128,-1,22
 408 667 408 667 343 667 c 2,23,-1
 40 667 l 1,0,-1
EndSplineSet
Substitution2: "'dnom' Denominators in Latin lookup 19 subtable" two.denominator
Substitution2: "'sups' Superscript lookup 17 subtable" twosuperior
Substitution2: "'onum' Oldstyle Figures in Latin lookup 15 subtable" two.oldstyle
Substitution2: "'tnum' Tabular Numbers in Latin lookup 14 subtable" two.tnum
Substitution2: "'numr' Numerators in Latin lookup 13 subtable" two.numerator
Substitution2: "'sinf' Scientific Inferiors lookup 11 subtable" twoinferior
Substitution2: "'frac' Diagonal Fractions lookup 5 subtable" two.numerator
Substitution2: "'smcp' Lowercase to Small Capitals lookup 1 subtable" two.smcp
EndChar

StartChar: three
Encoding: 51 51 22
Width: 594
GlyphClass: 2
Flags: W
LayerCount: 2
Fore
SplineSet
30 706 m 1,0,1
 108 735 108 735 269 735 c 0,2,3
 307 735 307 735 348 734 c 0,4,5
 428 733 428 733 473.5 686.5 c 128,-1,6
 519 640 519 640 519 569 c 2,7,-1
 519 500 l 2,8,9
 519 390 519 390 453 364 c 1,10,11
 519 322 519 322 519 220 c 2,12,-1
 519 161 l 2,13,14
 519 -7 519 -7 341 -7 c 0,15,16
 304 -7 304 -7 281.5 -7 c 128,-1,17
 259 -7 259 -7 232 -6.5 c 128,-1,18
 205 -6 205 -6 195 -5.5 c 128,-1,19
 185 -5 185 -5 162.5 -3.5 c 128,-1,20
 140 -2 140 -2 128 0 c 2,21,-1
 98 5 l 2,22,23
 66 10 66 10 36 21 c 1,24,-1
 37 68 l 1,25,-1
 335 68 l 2,26,27
 414 68 414 68 434 112 c 0,28,29
 443 131 443 131 443 161 c 2,30,-1
 443 220 l 2,31,32
 443 322 443 322 341 326 c 1,33,-1
 98 333 l 1,34,-1
 98 391 l 1,35,-1
 341 401 l 2,36,37
 445 406 445 406 445 500 c 2,38,-1
 445 569 l 2,39,40
 445 614 445 614 414.5 637 c 128,-1,41
 384 660 384 660 341 660 c 2,42,-1
 30 660 l 1,43,-1
 30 706 l 1,0,1
EndSplineSet
Substitution2: "'dnom' Denominators in Latin lookup 19 subtable" three.denominator
Substitution2: "'sups' Superscript lookup 17 subtable" threesuperior
Substitution2: "'onum' Oldstyle Figures in Latin lookup 15 subtable" three.oldstyle
Substitution2: "'tnum' Tabular Numbers in Latin lookup 14 subtable" three.tnum
Substitution2: "'numr' Numerators in Latin lookup 13 subtable" three.numerator
Substitution2: "'sinf' Scientific Inferiors lookup 11 subtable" threeinferior
Substitution2: "'frac' Diagonal Fractions lookup 5 subtable" three.numerator
Substitution2: "'smcp' Lowercase to Small Capitals lookup 1 subtable" three.smcp
EndChar

StartChar: four
Encoding: 52 52 23
Width: 603
GlyphClass: 2
Flags: W
LayerCount: 2
Fore
SplineSet
419 265 m 1,0,-1
 419 472 l 1,1,-1
 456 547 l 1,2,-1
 493 547 l 1,3,-1
 493 265 l 1,4,-1
 583 265 l 1,5,-1
 583 206 l 1,6,-1
 493 187 l 1,7,-1
 493 2 l 1,8,-1
 419 2 l 1,9,-1
 419 187 l 1,10,-1
 54 187 l 1,11,-1
 20 224 l 1,12,-1
 341 732 l 1,13,-1
 429 732 l 1,14,-1
 135 265 l 1,15,-1
 419 265 l 1,0,-1
EndSplineSet
Substitution2: "'dnom' Denominators in Latin lookup 19 subtable" four.denominator
Substitution2: "'sups' Superscript lookup 17 subtable" foursuperior
Substitution2: "'onum' Oldstyle Figures in Latin lookup 15 subtable" four.oldstyle
Substitution2: "'tnum' Tabular Numbers in Latin lookup 14 subtable" four.tnum
Substitution2: "'numr' Numerators in Latin lookup 13 subtable" four.numerator
Substitution2: "'sinf' Scientific Inferiors lookup 11 subtable" fourinferior
Substitution2: "'frac' Diagonal Fractions lookup 5 subtable" four.numerator
Substitution2: "'smcp' Lowercase to Small Capitals lookup 1 subtable" four.smcp
EndChar

StartChar: five
Encoding: 53 53 24
Width: 603
GlyphClass: 2
Flags: W
LayerCount: 2
Fore
SplineSet
283 449 m 1,0,-1
 380 446 l 1,1,2
 465 446 465 446 504.5 401.5 c 128,-1,3
 544 357 544 357 544 280 c 2,4,-1
 544 166 l 2,5,6
 544 118 544 118 527.5 82.5 c 128,-1,7
 511 47 511 47 484 30 c 1,8,9
 434 -4 434 -4 380 -4 c 0,10,11
 279 -4 279 -4 225 0 c 128,-1,12
 171 4 171 4 76 20 c 1,13,-1
 76 75 l 1,14,-1
 380 75 l 2,15,16
 427 75 427 75 448.5 102 c 128,-1,17
 470 129 470 129 470 168 c 2,18,-1
 470 278 l 2,19,20
 470 345 470 345 431 363 c 0,21,22
 411 372 411 372 380 372 c 2,23,-1
 226 372 l 2,24,25
 193 372 193 372 168.5 353 c 128,-1,26
 144 334 144 334 144 297 c 1,27,-1
 78 297 l 1,28,-1
 100 732 l 1,29,-1
 522 732 l 1,30,-1
 522 658 l 1,31,-1
 168 658 l 1,32,-1
 156 416 l 1,33,34
 183 449 183 449 283 449 c 1,0,-1
EndSplineSet
Substitution2: "'dnom' Denominators in Latin lookup 19 subtable" five.denominator
Substitution2: "'sups' Superscript lookup 17 subtable" fivesuperior
Substitution2: "'onum' Oldstyle Figures in Latin lookup 15 subtable" five.oldstyle
Substitution2: "'tnum' Tabular Numbers in Latin lookup 14 subtable" five.tnum
Substitution2: "'numr' Numerators in Latin lookup 13 subtable" five.numerator
Substitution2: "'sinf' Scientific Inferiors lookup 11 subtable" fiveinferior
Substitution2: "'frac' Diagonal Fractions lookup 5 subtable" five.numerator
Substitution2: "'smcp' Lowercase to Small Capitals lookup 1 subtable" five.smcp
EndChar

StartChar: six
Encoding: 54 54 25
Width: 623
GlyphClass: 2
Flags: W
LayerCount: 2
Fore
SplineSet
65 384 m 0,0,1
 65 567 65 567 115.5 652.5 c 128,-1,2
 166 738 166 738 237 738 c 0,3,4
 400 738 400 738 539 719 c 1,5,-1
 539 664 l 1,6,-1
 250 664 l 2,7,8
 218 664 218 664 195 637 c 128,-1,9
 172 610 172 610 161 566 c 0,10,11
 141 486 141 486 139 407 c 1,12,13
 318 428 318 428 406.5 428 c 128,-1,14
 495 428 495 428 529 388 c 128,-1,15
 563 348 563 348 563 279 c 2,16,-1
 563 148 l 2,17,18
 563 -1 563 -1 402 -1 c 2,19,-1
 253 -1 l 2,20,21
 209 -1 209 -1 177 15.5 c 128,-1,22
 145 32 145 32 118 73 c 0,23,24
 65 156 65 156 65 384 c 0,0,1
139 354 m 1,25,26
 139 230 139 230 155 178 c 0,27,28
 163 151 163 151 174 126 c 0,29,30
 198 73 198 73 253 73 c 2,31,-1
 402 73 l 2,32,33
 446 73 446 73 468 89 c 128,-1,34
 490 105 490 105 490 154 c 2,35,-1
 490 279 l 2,36,37
 490 354 490 354 402 354 c 2,38,-1
 139 354 l 1,25,26
EndSplineSet
Substitution2: "'dnom' Denominators in Latin lookup 19 subtable" six.denominator
Substitution2: "'sups' Superscript lookup 17 subtable" sixsuperior
Substitution2: "'onum' Oldstyle Figures in Latin lookup 15 subtable" six.oldstyle
Substitution2: "'tnum' Tabular Numbers in Latin lookup 14 subtable" six.tnum
Substitution2: "'numr' Numerators in Latin lookup 13 subtable" six.numerator
Substitution2: "'sinf' Scientific Inferiors lookup 11 subtable" sixinferior
Substitution2: "'frac' Diagonal Fractions lookup 5 subtable" six.numerator
Substitution2: "'smcp' Lowercase to Small Capitals lookup 1 subtable" six.smcp
EndChar

StartChar: seven
Encoding: 55 55 26
Width: 546
GlyphClass: 2
Flags: W
LayerCount: 2
Fore
SplineSet
30 658 m 1,0,-1
 30 732 l 1,1,-1
 489 732 l 1,2,-1
 516 684 l 1,3,-1
 251 0 l 1,4,-1
 163 0 l 1,5,-1
 421 658 l 1,6,-1
 30 658 l 1,0,-1
EndSplineSet
Substitution2: "'dnom' Denominators in Latin lookup 19 subtable" seven.denominator
Substitution2: "'sups' Superscript lookup 17 subtable" sevensuperior
Substitution2: "'onum' Oldstyle Figures in Latin lookup 15 subtable" seven.oldstyle
Substitution2: "'tnum' Tabular Numbers in Latin lookup 14 subtable" seven.tnum
Substitution2: "'numr' Numerators in Latin lookup 13 subtable" seven.numerator
Substitution2: "'sinf' Scientific Inferiors lookup 11 subtable" seveninferior
Substitution2: "'frac' Diagonal Fractions lookup 5 subtable" seven.numerator
Substitution2: "'smcp' Lowercase to Small Capitals lookup 1 subtable" seven.smcp
EndChar

StartChar: eight
Encoding: 56 56 27
Width: 634
GlyphClass: 2
Flags: W
LayerCount: 2
Fore
SplineSet
75 154 m 2,0,-1
 75 252 l 2,1,2
 75 286 75 286 89 309.5 c 128,-1,3
 103 333 103 333 119 342 c 128,-1,4
 135 351 135 351 160 359 c 1,5,6
 116 374 116 374 95.5 413.5 c 128,-1,7
 75 453 75 453 75 499 c 2,8,-1
 75 564 l 2,9,10
 75 659 75 659 121 698 c 128,-1,11
 167 737 167 737 251 737 c 2,12,-1
 397 737 l 2,13,14
 479 737 479 737 519 696 c 128,-1,15
 559 655 559 655 559 564 c 2,16,-1
 559 499 l 2,17,18
 559 495 559 495 559 488.5 c 128,-1,19
 559 482 559 482 557.5 470.5 c 128,-1,20
 556 459 556 459 549.5 439 c 128,-1,21
 543 419 543 419 526 403.5 c 128,-1,22
 509 388 509 388 484 383 c 1,23,24
 521 376 521 376 540.5 334 c 128,-1,25
 560 292 560 292 559 252 c 1,26,-1
 559 154 l 2,27,28
 559 108 559 108 543 75.5 c 128,-1,29
 527 43 527 43 500 28 c 0,30,31
 453 0 453 0 396 0 c 2,32,-1
 251 0 l 2,33,34
 202 0 202 0 167 12.5 c 128,-1,35
 132 25 132 25 114.5 41.5 c 128,-1,36
 97 58 97 58 88 82 c 0,37,38
 75 115 75 115 75 154 c 2,0,-1
149 151 m 2,39,40
 149 74 149 74 251 74 c 2,41,-1
 396 74 l 2,42,43
 432 74 432 74 458.5 94 c 128,-1,44
 485 114 485 114 485 151 c 2,45,-1
 485 256 l 2,46,47
 485 296 485 296 460 316.5 c 128,-1,48
 435 337 435 337 399 337 c 2,49,-1
 240 337 l 2,50,51
 201 337 201 337 175 318 c 128,-1,52
 149 299 149 299 149 256 c 2,53,-1
 149 151 l 2,39,40
149 494 m 2,54,55
 149 449 149 449 177.5 429.5 c 128,-1,56
 206 410 206 410 240 410 c 2,57,-1
 399 410 l 2,58,59
 485 410 485 410 485 494 c 2,60,-1
 485 562 l 2,61,62
 485 616 485 616 463.5 639.5 c 128,-1,63
 442 663 442 663 397 663 c 2,64,-1
 251 663 l 2,65,66
 197 663 197 663 173 644 c 128,-1,67
 149 625 149 625 149 562 c 2,68,-1
 149 494 l 2,54,55
EndSplineSet
Substitution2: "'dnom' Denominators in Latin lookup 19 subtable" eight.denominator
Substitution2: "'sups' Superscript lookup 17 subtable" eightsuperior
Substitution2: "'onum' Oldstyle Figures in Latin lookup 15 subtable" eight.oldstyle
Substitution2: "'tnum' Tabular Numbers in Latin lookup 14 subtable" eight.tnum
Substitution2: "'numr' Numerators in Latin lookup 13 subtable" eight.numerator
Substitution2: "'sinf' Scientific Inferiors lookup 11 subtable" eightinferior
Substitution2: "'frac' Diagonal Fractions lookup 5 subtable" eight.numerator
Substitution2: "'smcp' Lowercase to Small Capitals lookup 1 subtable" eight.smcp
EndChar

StartChar: nine
Encoding: 57 57 28
Width: 623
GlyphClass: 2
Flags: W
LayerCount: 2
Fore
SplineSet
60 458 m 2,0,-1
 60 589 l 2,1,2
 60 738 60 738 221 738 c 2,3,-1
 370 738 l 2,4,5
 414 738 414 738 446 721.5 c 128,-1,6
 478 705 478 705 504 664 c 0,7,8
 558 581 558 581 558 353 c 0,9,10
 558 170 558 170 507.5 84.5 c 128,-1,11
 457 -1 457 -1 386 -1 c 0,12,13
 176 -1 176 -1 84 18 c 1,14,-1
 84 73 l 1,15,-1
 373 73 l 2,16,17
 405 73 405 73 428 100 c 128,-1,18
 451 127 451 127 462 171 c 0,19,20
 482 251 482 251 484 330 c 1,21,22
 306 309 306 309 217 309 c 128,-1,23
 128 309 128 309 94 349 c 128,-1,24
 60 389 60 389 60 458 c 2,0,-1
133 458 m 2,25,26
 133 383 133 383 221 383 c 2,27,-1
 484 383 l 1,28,29
 484 506 484 506 468 560 c 0,30,31
 460 586 460 586 448 612 c 0,32,33
 425 664 425 664 370 664 c 2,34,-1
 221 664 l 2,35,36
 177 664 177 664 155 648 c 128,-1,37
 133 632 133 632 133 583 c 2,38,-1
 133 458 l 2,25,26
EndSplineSet
Substitution2: "'dnom' Denominators in Latin lookup 19 subtable" nine.denominator
Substitution2: "'sups' Superscript lookup 17 subtable" ninesuperior
Substitution2: "'onum' Oldstyle Figures in Latin lookup 15 subtable" nine.oldstyle
Substitution2: "'tnum' Tabular Numbers in Latin lookup 14 subtable" nine.tnum
Substitution2: "'numr' Numerators in Latin lookup 13 subtable" nine.numerator
Substitution2: "'sinf' Scientific Inferiors lookup 11 subtable" nineinferior
Substitution2: "'frac' Diagonal Fractions lookup 5 subtable" nine.numerator
Substitution2: "'smcp' Lowercase to Small Capitals lookup 1 subtable" nine.smcp
EndChar

StartChar: colon
Encoding: 58 58 29
Width: 272
GlyphClass: 2
Flags: W
LayerCount: 2
Fore
SplineSet
85 23 m 2,0,-1
 85 80 l 2,1,2
 85 105 85 105 109 105 c 2,3,-1
 162 105 l 2,4,5
 187 105 187 105 187 80 c 2,6,-1
 187 23 l 2,7,8
 187 0 187 0 162 0 c 2,9,-1
 109 0 l 2,10,11
 85 0 85 0 85 23 c 2,0,-1
85 450 m 2,12,-1
 85 507 l 2,13,14
 85 532 85 532 109 532 c 2,15,-1
 162 532 l 2,16,17
 187 532 187 532 187 507 c 2,18,-1
 187 450 l 2,19,20
 187 427 187 427 162 427 c 2,21,-1
 109 427 l 2,22,23
 85 427 85 427 85 450 c 2,12,-1
EndSplineSet
EndChar

StartChar: semicolon
Encoding: 59 59 30
Width: 274
GlyphClass: 2
Flags: W
LayerCount: 2
Fore
SplineSet
85 25 m 2,0,-1
 85 79 l 2,1,2
 85 90 85 90 92 98 c 128,-1,3
 99 106 99 106 110 106 c 2,4,-1
 161 106 l 2,5,6
 172 106 172 106 178.5 98.5 c 128,-1,7
 185 91 185 91 185 79 c 2,8,-1
 185 -11 l 2,9,10
 185 -38 185 -38 175 -56 c 0,11,12
 155 -90 155 -90 108 -90 c 0,13,14
 104 -90 104 -90 100 -90 c 2,15,-1
 90 -88 l 1,16,-1
 90 -56 l 1,17,18
 91 -56 91 -56 92 -56 c 0,19,20
 121 -56 121 -56 121 -25 c 2,21,-1
 121 0 l 1,22,-1
 110 0 l 2,23,24
 100 0 100 0 92.5 8 c 128,-1,25
 85 16 85 16 85 25 c 2,0,-1
87 451 m 2,26,-1
 87 508 l 2,27,28
 87 533 87 533 111 533 c 2,29,-1
 164 533 l 2,30,31
 189 533 189 533 189 508 c 2,32,-1
 189 451 l 2,33,34
 189 428 189 428 164 428 c 2,35,-1
 111 428 l 2,36,37
 87 428 87 428 87 451 c 2,26,-1
EndSplineSet
EndChar

StartChar: less
Encoding: 60 60 31
Width: 475
GlyphClass: 2
Flags: W
LayerCount: 2
Fore
SplineSet
50 314 m 1,0,-1
 50 394 l 1,1,-1
 425 556 l 1,2,-1
 425 476 l 1,3,-1
 149 354 l 1,4,-1
 425 222 l 1,5,-1
 425 140 l 1,6,-1
 50 314 l 1,0,-1
EndSplineSet
EndChar

StartChar: equal
Encoding: 61 61 32
Width: 467
GlyphClass: 2
Flags: W
LayerCount: 2
Fore
SplineSet
20 212 m 1,0,-1
 20 286 l 1,1,-1
 447 286 l 1,2,-1
 447 212 l 1,3,-1
 20 212 l 1,0,-1
20 421 m 1,4,-1
 20 495 l 1,5,-1
 447 495 l 1,6,-1
 447 421 l 1,7,-1
 20 421 l 1,4,-1
EndSplineSet
EndChar

StartChar: greater
Encoding: 62 62 33
Width: 475
GlyphClass: 2
Flags: W
LayerCount: 2
Fore
SplineSet
50 140 m 1,0,-1
 50 222 l 1,1,-1
 326 354 l 1,2,-1
 50 476 l 1,3,-1
 50 556 l 1,4,-1
 425 394 l 1,5,-1
 425 314 l 1,6,-1
 50 140 l 1,0,-1
EndSplineSet
EndChar

StartChar: question
Encoding: 63 63 34
Width: 541
GlyphClass: 2
Flags: W
LayerCount: 2
Fore
SplineSet
200 739 m 2,0,-1
 270 741 l 2,1,2
 291 741 291 741 302 739 c 1,3,4
 408 739 408 739 454.5 687.5 c 128,-1,5
 501 636 501 636 501 554 c 2,6,-1
 501 453 l 2,7,8
 501 356 501 356 434 318 c 0,9,10
 387 291 387 291 320 291 c 0,11,12
 291 291 291 291 258 296 c 1,13,-1
 258 195 l 1,14,-1
 183 195 l 1,15,-1
 183 357 l 1,16,-1
 325 357 l 1,17,18
 367 359 367 359 397.5 383 c 128,-1,19
 428 407 428 407 428 453 c 2,20,-1
 428 554 l 2,21,22
 428 612 428 612 396 638 c 128,-1,23
 364 664 364 664 291 664 c 2,24,-1
 20 664 l 1,25,-1
 20 719 l 1,26,27
 70 727 70 727 96.5 729.5 c 128,-1,28
 123 732 123 732 156.5 735.5 c 128,-1,29
 190 739 190 739 200 739 c 2,0,-1
170 23 m 2,30,-1
 170 80 l 2,31,32
 170 105 170 105 194 105 c 2,33,-1
 249 105 l 2,34,35
 272 105 272 105 272 80 c 2,36,-1
 272 23 l 2,37,38
 272 0 272 0 249 0 c 2,39,-1
 194 0 l 2,40,41
 170 0 170 0 170 23 c 2,30,-1
EndSplineSet
Substitution2: "'smcp' Lowercase to Small Capitals lookup 1 subtable" question.smcp
EndChar

StartChar: at
Encoding: 64 64 35
Width: 844
GlyphClass: 2
Flags: W
LayerCount: 2
Fore
SplineSet
65 0 m 2,0,-1
 65 348 l 2,1,2
 65 423 65 423 102 465 c 0,3,4
 118 483 118 483 152 497.5 c 128,-1,5
 186 512 186 512 233 512 c 2,6,-1
 448 512 l 2,7,8
 511 512 511 512 556 479.5 c 128,-1,9
 601 447 601 447 601 372 c 2,10,-1
 601 0 l 1,11,-1
 545 0 l 1,12,-1
 531 64 l 1,13,-1
 521 56 l 1,14,15
 434 -9 434 -9 350 -9 c 0,16,17
 297 -9 297 -9 260.5 24 c 128,-1,18
 224 57 224 57 225 108 c 1,19,-1
 225 161 l 2,20,21
 225 222 225 222 259 258 c 128,-1,22
 293 294 293 294 354 294 c 2,23,-1
 529 294 l 1,24,25
 530 332 530 332 530 351 c 128,-1,26
 530 370 530 370 529 370 c 1,27,28
 529 410 529 410 509 424 c 128,-1,29
 489 438 489 438 445 438 c 2,30,-1
 233 438 l 2,31,32
 189 438 189 438 164 420 c 128,-1,33
 139 402 139 402 139 348 c 2,34,-1
 139 0 l 2,35,36
 139 -103 139 -103 233 -103 c 2,37,-1
 582 -103 l 2,38,39
 641 -103 641 -103 663 -78.5 c 128,-1,40
 685 -54 685 -54 685 0 c 2,41,-1
 685 512 l 2,42,43
 685 568 685 568 657 597 c 128,-1,44
 629 626 629 626 582 626 c 2,45,-1
 178 626 l 1,46,-1
 178 673 l 1,47,48
 308 700 308 700 455 700 c 0,49,50
 461 700 461 700 466 700 c 2,51,-1
 582 700 l 1,52,53
 664 698 664 698 711.5 650.5 c 128,-1,54
 759 603 759 603 759 512 c 2,55,-1
 759 0 l 2,56,57
 759 -178 759 -178 582 -178 c 2,58,-1
 233 -178 l 2,59,60
 155 -178 155 -178 110 -132 c 128,-1,61
 65 -86 65 -86 65 0 c 2,0,-1
299 114 m 2,62,63
 299 97 299 97 317 81 c 128,-1,64
 335 65 335 65 357 65 c 0,65,66
 359 65 359 65 373 65 c 128,-1,67
 387 65 387 65 422 75 c 128,-1,68
 457 85 457 85 473 92.5 c 128,-1,69
 489 100 489 100 529 119 c 1,70,-1
 529 242 l 1,71,-1
 359 226 l 2,72,73
 330 223 330 223 314 204.5 c 128,-1,74
 298 186 298 186 299 159 c 1,75,-1
 299 114 l 2,62,63
EndSplineSet
Substitution2: "'case' Case-Sensitive Forms lookup 18 subtable" at.alt
Substitution2: "'smcp' Lowercase to Small Capitals lookup 1 subtable" at.smcp
EndChar

StartChar: A
Encoding: 65 65 36
Width: 670
GlyphClass: 2
Flags: W
LayerCount: 2
Fore
SplineSet
45 0 m 1,0,-1
 314 732 l 1,1,-1
 388 732 l 1,2,-1
 645 0 l 1,3,-1
 557 0 l 1,4,-1
 494 204 l 1,5,-1
 202 204 l 1,6,-1
 136 0 l 1,7,-1
 45 0 l 1,0,-1
229 278 m 1,8,-1
 468 278 l 1,9,-1
 350 619 l 1,10,-1
 229 278 l 1,8,-1
EndSplineSet
Substitution2: "'c2sc' Capitals to Small Capitals in Latin lookup 2 subtable" a.smcp
EndChar

StartChar: B
Encoding: 66 66 37
Width: 596
GlyphClass: 2
Flags: W
LayerCount: 2
Fore
SplineSet
80 0 m 1,0,-1
 80 732 l 1,1,-1
 362 732 l 2,2,3
 461 732 461 732 506.5 674 c 128,-1,4
 552 616 552 616 552 542 c 0,5,6
 552 409 552 409 460 380 c 1,7,8
 498 371 498 371 527 326.5 c 128,-1,9
 556 282 556 282 556 204 c 0,10,11
 556 120 556 120 517 64 c 0,12,13
 472 0 472 0 362 0 c 2,14,-1
 80 0 l 1,0,-1
155 74 m 1,15,-1
 362 74 l 2,16,17
 482 74 482 74 482 206 c 0,18,19
 482 266 482 266 452 306 c 128,-1,20
 422 346 422 346 362 346 c 2,21,-1
 155 346 l 1,22,-1
 155 74 l 1,15,-1
155 420 m 1,23,-1
 362 420 l 2,24,25
 478 420 478 420 478 539 c 128,-1,26
 478 658 478 658 362 658 c 2,27,-1
 155 658 l 1,28,-1
 155 420 l 1,23,-1
EndSplineSet
Substitution2: "'c2sc' Capitals to Small Capitals in Latin lookup 2 subtable" b.smcp
EndChar

StartChar: C
Encoding: 67 67 38
Width: 578
GlyphClass: 2
Flags: W
LayerCount: 2
Fore
SplineSet
543 656 m 1,0,1
 363 666 363 666 298.5 666 c 128,-1,2
 234 666 234 666 198.5 641.5 c 128,-1,3
 163 617 163 617 146 552.5 c 128,-1,4
 129 488 129 488 129 366 c 0,5,6
 129 68 129 68 299 68 c 1,7,-1
 543 75 l 1,8,-1
 543 16 l 1,9,10
 425 -6 425 -6 299 -6 c 0,11,12
 55 -6 55 -6 55 368 c 0,13,14
 55 558 55 558 106.5 649 c 128,-1,15
 158 740 158 740 299 740 c 0,16,17
 408 740 408 740 543 715 c 1,18,-1
 543 656 l 1,0,1
EndSplineSet
Substitution2: "'c2sc' Capitals to Small Capitals in Latin lookup 2 subtable" c.smcp
EndChar

StartChar: D
Encoding: 68 68 39
Width: 657
GlyphClass: 2
Flags: W
LayerCount: 2
Fore
SplineSet
80 0 m 1,0,-1
 80 732 l 1,1,-1
 352 732 l 2,2,3
 417 732 417 732 465.5 707.5 c 128,-1,4
 514 683 514 683 541 646 c 128,-1,5
 568 609 568 609 585 557 c 0,6,7
 612 474 612 474 612 363 c 0,8,9
 612 254 612 254 576 164 c 0,10,11
 534 62 534 62 453 22 c 0,12,13
 408 0 408 0 352 0 c 2,14,-1
 80 0 l 1,0,-1
154 77 m 1,15,-1
 352 77 l 2,16,17
 415 77 415 77 458 118 c 0,18,19
 538 193 538 193 538 356 c 128,-1,20
 538 519 538 519 490.5 588.5 c 128,-1,21
 443 658 443 658 352 658 c 2,22,-1
 154 658 l 1,23,-1
 154 77 l 1,15,-1
EndSplineSet
Substitution2: "'c2sc' Capitals to Small Capitals in Latin lookup 2 subtable" d.smcp
EndChar

StartChar: E
Encoding: 69 69 40
Width: 567
GlyphClass: 2
Flags: W
LayerCount: 2
Fore
SplineSet
80 602 m 2,0,1
 80 671 80 671 114.5 701.5 c 128,-1,2
 149 732 149 732 200 732 c 0,3,4
 203 732 203 732 206 732 c 2,5,-1
 522 716 l 1,6,-1
 522 658 l 1,7,-1
 206 658 l 2,8,9
 182 658 182 658 169.5 648.5 c 128,-1,10
 157 639 157 639 155.5 629.5 c 128,-1,11
 154 620 154 620 154 602 c 2,12,-1
 154 402 l 1,13,-1
 482 392 l 1,14,-1
 482 333 l 1,15,-1
 154 323 l 1,16,-1
 154 123 l 2,17,18
 154 98 154 98 165 86 c 128,-1,19
 176 74 176 74 186 72.5 c 128,-1,20
 196 71 196 71 216 71 c 2,21,-1
 522 71 l 1,22,-1
 522 14 l 1,23,-1
 216 -3 l 2,24,25
 208 -3 208 -3 201 -3 c 0,26,27
 80 -3 80 -3 80 123 c 2,28,-1
 80 602 l 2,0,1
EndSplineSet
Substitution2: "'c2sc' Capitals to Small Capitals in Latin lookup 2 subtable" e.smcp
EndChar

StartChar: F
Encoding: 70 70 41
Width: 567
GlyphClass: 2
Flags: W
LayerCount: 2
Fore
SplineSet
80 0 m 1,0,-1
 80 602 l 2,1,2
 80 671 80 671 114.5 701.5 c 128,-1,3
 149 732 149 732 200 732 c 0,4,5
 203 732 203 732 206 732 c 2,6,-1
 522 716 l 1,7,-1
 522 658 l 1,8,-1
 206 658 l 2,9,10
 182 658 182 658 169.5 648.5 c 128,-1,11
 157 639 157 639 155.5 629.5 c 128,-1,12
 154 620 154 620 154 602 c 2,13,-1
 154 402 l 1,14,-1
 482 392 l 1,15,-1
 482 333 l 1,16,-1
 154 323 l 1,17,-1
 154 0 l 1,18,-1
 80 0 l 1,0,-1
EndSplineSet
Substitution2: "'c2sc' Capitals to Small Capitals in Latin lookup 2 subtable" f.smcp
EndChar

StartChar: G
Encoding: 71 71 42
Width: 614
GlyphClass: 2
Flags: W
LayerCount: 2
Fore
SplineSet
59.5 248.5 m 128,-1,1
 55 300 55 300 55 376.5 c 128,-1,2
 55 453 55 453 64 513.5 c 128,-1,3
 73 574 73 574 97 628 c 0,4,5
 146 740 146 740 289 740 c 0,6,7
 328 740 328 740 409.5 731.5 c 128,-1,8
 491 723 491 723 543 713 c 1,9,-1
 543 654 l 1,10,11
 534 654 534 654 493 657 c 128,-1,12
 452 660 452 660 420 662 c 0,13,14
 356 666 356 666 289 666 c 0,15,16
 194 666 194 666 161.5 597.5 c 128,-1,17
 129 529 129 529 129 365 c 128,-1,18
 129 201 129 201 165 135 c 128,-1,19
 201 69 201 69 293 68 c 0,20,21
 327 68 327 68 375 79.5 c 128,-1,22
 423 91 423 91 454 102 c 2,23,-1
 485 114 l 1,24,-1
 485 314 l 1,25,-1
 317 314 l 1,26,-1
 317 364 l 1,27,28
 408 389 408 389 491 389 c 0,29,30
 523 389 523 389 559 386 c 1,31,-1
 559 0 l 1,32,-1
 503 0 l 1,33,-1
 487 49 l 1,34,35
 389 -5 389 -5 293 -5 c 0,36,37
 290 -5 290 -5 287 -5 c 0,38,39
 231 -5 231 -5 188 14 c 128,-1,40
 145 33 145 33 119.5 64.5 c 128,-1,41
 94 96 94 96 79 146.5 c 128,-1,0
 64 197 64 197 59.5 248.5 c 128,-1,1
EndSplineSet
Substitution2: "'c2sc' Capitals to Small Capitals in Latin lookup 2 subtable" g.smcp
EndChar

StartChar: H
Encoding: 72 72 43
Width: 638
GlyphClass: 2
Flags: W
LayerCount: 2
Fore
SplineSet
80 0 m 1,0,-1
 80 732 l 1,1,-1
 154 732 l 1,2,-1
 154 391 l 1,3,-1
 504 391 l 1,4,-1
 504 732 l 1,5,-1
 578 732 l 1,6,-1
 578 0 l 1,7,-1
 504 0 l 1,8,-1
 504 317 l 1,9,-1
 154 317 l 1,10,-1
 154 0 l 1,11,-1
 80 0 l 1,0,-1
EndSplineSet
Substitution2: "'c2sc' Capitals to Small Capitals in Latin lookup 2 subtable" h.smcp
EndChar

StartChar: I
Encoding: 73 73 44
Width: 214
GlyphClass: 2
Flags: W
LayerCount: 2
Fore
SplineSet
80 0 m 1,0,-1
 80 732 l 1,1,-1
 154 732 l 1,2,-1
 154 0 l 1,3,-1
 80 0 l 1,0,-1
EndSplineSet
Substitution2: "'c2sc' Capitals to Small Capitals in Latin lookup 2 subtable" i.smcp
EndChar

StartChar: J
Encoding: 74 74 45
Width: 359
GlyphClass: 2
Flags: W
LayerCount: 2
Fore
SplineSet
247 18 m 0,0,1
 209 -6 209 -6 142.5 -6 c 128,-1,2
 76 -6 76 -6 35 21 c 1,3,-1
 39 75 l 1,4,5
 103 59 103 59 139 59 c 0,6,7
 224 59 224 59 225 165 c 1,8,-1
 225 732 l 1,9,-1
 299 732 l 1,10,-1
 299 165 l 2,11,12
 299 51 299 51 247 18 c 0,0,1
EndSplineSet
Substitution2: "'c2sc' Capitals to Small Capitals in Latin lookup 2 subtable" j.smcp
EndChar

StartChar: K
Encoding: 75 75 46
Width: 591
GlyphClass: 2
Flags: W
LayerCount: 2
Fore
SplineSet
80 0 m 1,0,-1
 80 732 l 1,1,-1
 154 732 l 1,2,-1
 154 404 l 1,3,-1
 236 404 l 1,4,-1
 466 732 l 1,5,-1
 556 732 l 1,6,-1
 304 367 l 1,7,-1
 556 0 l 1,8,-1
 466 0 l 1,9,-1
 236 330 l 1,10,-1
 155 330 l 1,11,-1
 155 0 l 1,12,-1
 80 0 l 1,0,-1
EndSplineSet
Substitution2: "'c2sc' Capitals to Small Capitals in Latin lookup 2 subtable" k.smcp
EndChar

StartChar: L
Encoding: 76 76 47
Width: 557
GlyphClass: 2
Flags: W
LayerCount: 2
Fore
SplineSet
80 126 m 2,0,-1
 80 732 l 1,1,-1
 154 732 l 1,2,-1
 154 126 l 2,3,4
 154 88 154 88 175 80 c 0,5,6
 191 74 191 74 216 74 c 2,7,-1
 522 74 l 1,8,-1
 522 0 l 1,9,-1
 216 0 l 2,10,11
 159 0 159 0 124 20 c 0,12,13
 80 45 80 45 80 126 c 2,0,-1
EndSplineSet
Substitution2: "'c2sc' Capitals to Small Capitals in Latin lookup 2 subtable" l.smcp
EndChar

StartChar: M
Encoding: 77 77 48
Width: 801
GlyphClass: 2
Flags: W
LayerCount: 2
Fore
SplineSet
55 0 m 1,0,-1
 103 732 l 1,1,-1
 205 732 l 1,2,-1
 400 123 l 1,3,-1
 589 732 l 1,4,-1
 690 732 l 1,5,-1
 746 0 l 1,6,-1
 672 0 l 1,7,-1
 627 598 l 1,8,-1
 439 0 l 1,9,-1
 363 0 l 1,10,-1
 169 598 l 1,11,-1
 129 0 l 1,12,-1
 55 0 l 1,0,-1
EndSplineSet
AlternateSubs2: "'salt' Stylistic Alternatives in Latin lookup 16 subtable" M.salt
Substitution2: "'c2sc' Capitals to Small Capitals in Latin lookup 2 subtable" m.smcp
EndChar

StartChar: N
Encoding: 78 78 49
Width: 680
GlyphClass: 2
Flags: W
LayerCount: 2
Fore
SplineSet
80 0 m 1,0,-1
 80 732 l 1,1,-1
 156 732 l 1,2,-1
 546 138 l 1,3,-1
 546 732 l 1,4,-1
 620 732 l 1,5,-1
 620 0 l 1,6,-1
 546 0 l 1,7,-1
 155 594 l 1,8,-1
 155 0 l 1,9,-1
 80 0 l 1,0,-1
EndSplineSet
AlternateSubs2: "'salt' Stylistic Alternatives in Latin lookup 16 subtable" N.salt
Substitution2: "'c2sc' Capitals to Small Capitals in Latin lookup 2 subtable" n.smcp
EndChar

StartChar: O
Encoding: 79 79 50
Width: 676
GlyphClass: 2
Flags: W
LayerCount: 2
Fore
SplineSet
73 218.5 m 128,-1,1
 65 279 65 279 65 362 c 128,-1,2
 65 445 65 445 74 507.5 c 128,-1,3
 83 570 83 570 102 611 c 128,-1,4
 121 652 121 652 143.5 677.5 c 128,-1,5
 166 703 166 703 201 716 c 0,6,7
 258 737 258 737 349 737 c 0,8,9
 480 737 480 737 533 697 c 0,10,11
 584 658 584 658 606 586 c 1,12,13
 631 498 631 498 631 382 c 128,-1,14
 631 266 631 266 618.5 199.5 c 128,-1,15
 606 133 606 133 584.5 93 c 128,-1,16
 563 53 563 53 525.5 31.5 c 128,-1,17
 488 10 488 10 448 3 c 128,-1,18
 408 -4 408 -4 353.5 -4 c 128,-1,19
 299 -4 299 -4 265 0 c 128,-1,20
 231 4 231 4 196 16.5 c 128,-1,21
 161 29 161 29 139 53.5 c 128,-1,22
 117 78 117 78 99 118 c 128,-1,0
 81 158 81 158 73 218.5 c 128,-1,1
142 450 m 128,-1,24
 139 410 139 410 139 337 c 128,-1,25
 139 264 139 264 148.5 207 c 128,-1,26
 158 150 158 150 185.5 119 c 128,-1,27
 213 88 213 88 249 79 c 128,-1,28
 285 70 285 70 342 70 c 128,-1,29
 399 70 399 70 431 76.5 c 128,-1,30
 463 83 463 83 489 100.5 c 128,-1,31
 515 118 515 118 529 151 c 0,32,33
 557 217 557 217 557 361 c 0,34,35
 557 518 557 518 533 572 c 0,36,37
 523 595 523 595 515 610 c 128,-1,38
 507 625 507 625 491 635.5 c 128,-1,39
 475 646 475 646 463.5 651.5 c 128,-1,40
 452 657 452 657 429.5 659.5 c 128,-1,41
 407 662 407 662 392 662.5 c 128,-1,42
 377 663 377 663 349 663 c 128,-1,43
 321 663 321 663 306.5 662.5 c 128,-1,44
 292 662 292 662 269.5 659.5 c 128,-1,45
 247 657 247 657 235 651.5 c 128,-1,46
 223 646 223 646 207 635.5 c 128,-1,47
 191 625 191 625 182.5 610 c 128,-1,48
 174 595 174 595 164 572.5 c 128,-1,49
 154 550 154 550 149.5 520 c 128,-1,23
 145 490 145 490 142 450 c 128,-1,24
EndSplineSet
Substitution2: "'c2sc' Capitals to Small Capitals in Latin lookup 2 subtable" o.smcp
EndChar

StartChar: P
Encoding: 80 80 51
Width: 581
GlyphClass: 2
Flags: W
LayerCount: 2
Fore
SplineSet
60 0 m 1,0,-1
 60 732 l 1,1,-1
 361 732 l 2,2,3
 536 732 536 732 536 520 c 0,4,5
 536 356 536 356 454 316 c 0,6,7
 428 304 428 304 408 301 c 128,-1,8
 388 298 388 298 360 298 c 128,-1,9
 332 298 332 298 235 307 c 128,-1,10
 138 316 138 316 134 318 c 1,11,-1
 134 0 l 1,12,-1
 60 0 l 1,0,-1
134 372 m 1,13,-1
 361 372 l 2,14,15
 409 372 409 372 435 401 c 128,-1,16
 461 430 461 430 461 520 c 1,17,18
 459 613 459 613 422 638 c 0,19,20
 395 657 395 657 361 657 c 2,21,-1
 134 657 l 1,22,-1
 134 372 l 1,13,-1
EndSplineSet
Substitution2: "'c2sc' Capitals to Small Capitals in Latin lookup 2 subtable" p.smcp
EndChar

StartChar: Q
Encoding: 81 81 52
Width: 676
GlyphClass: 2
Flags: W
LayerCount: 2
Fore
SplineSet
73 218.5 m 128,-1,1
 65 279 65 279 65 370.5 c 128,-1,2
 65 462 65 462 78.5 532 c 128,-1,3
 92 602 92 602 114 642 c 128,-1,4
 136 682 136 682 174.5 703.5 c 128,-1,5
 213 725 213 725 251 731 c 128,-1,6
 289 737 289 737 342.5 737 c 128,-1,7
 396 737 396 737 429 733 c 128,-1,8
 462 729 462 729 497 716 c 128,-1,9
 532 703 532 703 554.5 677.5 c 128,-1,10
 577 652 577 652 596 611 c 0,11,12
 631 532 631 532 631 361 c 0,13,14
 631 181 631 181 584 93 c 0,15,16
 562 53 562 53 524 31.5 c 128,-1,17
 486 10 486 10 446 3 c 128,-1,18
 406 -4 406 -4 351.5 -4 c 128,-1,19
 297 -4 297 -4 263 0 c 128,-1,20
 229 4 229 4 194 16.5 c 128,-1,21
 159 29 159 29 138 53.5 c 128,-1,22
 117 78 117 78 99 118 c 128,-1,0
 81 158 81 158 73 218.5 c 128,-1,1
142 450 m 128,-1,24
 139 410 139 410 139 337 c 128,-1,25
 139 264 139 264 148.5 207 c 128,-1,26
 158 150 158 150 184.5 119 c 128,-1,27
 211 88 211 88 247 79 c 128,-1,28
 283 70 283 70 346.5 70 c 128,-1,29
 410 70 410 70 446.5 80.5 c 128,-1,30
 483 91 483 91 510 122.5 c 128,-1,31
 537 154 537 154 547 210.5 c 128,-1,32
 557 267 557 267 557 339 c 128,-1,33
 557 411 557 411 554 450.5 c 128,-1,34
 551 490 551 490 546.5 520 c 128,-1,35
 542 550 542 550 532.5 572.5 c 128,-1,36
 523 595 523 595 514.5 610 c 128,-1,37
 506 625 506 625 490 635.5 c 128,-1,38
 474 646 474 646 462.5 651.5 c 128,-1,39
 451 657 451 657 428 659.5 c 128,-1,40
 405 662 405 662 390 662.5 c 128,-1,41
 375 663 375 663 347 663 c 128,-1,42
 319 663 319 663 304.5 662.5 c 128,-1,43
 290 662 290 662 267.5 659.5 c 128,-1,44
 245 657 245 657 233.5 651.5 c 128,-1,45
 222 646 222 646 206 635.5 c 128,-1,46
 190 625 190 625 182 610 c 128,-1,47
 174 595 174 595 164 572.5 c 128,-1,48
 154 550 154 550 149.5 520 c 128,-1,23
 145 490 145 490 142 450 c 128,-1,24
369 -33 m 1,49,50
 419 -68 419 -68 461 -68 c 128,-1,51
 503 -68 503 -68 537 -53 c 1,52,-1
 537 -133 l 1,53,54
 504 -142 504 -142 482 -142 c 128,-1,55
 460 -142 460 -142 452 -142 c 0,56,57
 406 -139 406 -139 365.5 -109.5 c 128,-1,58
 325 -80 325 -80 317 -33 c 1,59,-1
 369 -33 l 1,49,50
EndSplineSet
Substitution2: "'c2sc' Capitals to Small Capitals in Latin lookup 2 subtable" q.smcp
EndChar

StartChar: R
Encoding: 82 82 53
Width: 593
GlyphClass: 2
Flags: W
LayerCount: 2
Fore
SplineSet
60 0 m 1,0,-1
 60 732 l 1,1,-1
 372 732 l 2,2,3
 541 732 541 732 541 512 c 0,4,5
 541 320 541 320 414 302 c 1,6,-1
 568 0 l 1,7,-1
 488 0 l 1,8,-1
 334 299 l 1,9,-1
 134 313 l 1,10,-1
 134 0 l 1,11,-1
 60 0 l 1,0,-1
134 379 m 1,12,-1
 372 379 l 2,13,14
 431 379 431 379 446 408 c 1,15,16
 466 443 466 443 466 521.5 c 128,-1,17
 466 600 466 600 440 628.5 c 128,-1,18
 414 657 414 657 372 657 c 2,19,-1
 134 657 l 1,20,-1
 134 379 l 1,12,-1
EndSplineSet
Substitution2: "'c2sc' Capitals to Small Capitals in Latin lookup 2 subtable" r.smcp
EndChar

StartChar: S
Encoding: 83 83 54
Width: 584
GlyphClass: 2
Flags: W
LayerCount: 2
Fore
SplineSet
65 494 m 2,0,-1
 65 560 l 2,1,2
 65 661 65 661 117 699.5 c 128,-1,3
 169 738 169 738 250 738 c 128,-1,4
 331 738 331 738 513 714 c 1,5,-1
 513 654 l 1,6,-1
 263 664 l 2,7,8
 255 664 255 664 247 664 c 0,9,10
 196 664 196 664 167.5 646 c 128,-1,11
 139 628 139 628 139 560 c 2,12,-1
 139 494 l 2,13,14
 139 432 139 432 163.5 414 c 128,-1,15
 188 396 188 396 241 396 c 2,16,-1
 383 396 l 2,17,18
 539 396 539 396 539 224 c 2,19,-1
 539 156 l 2,20,21
 539 55 539 55 474 20 c 0,22,23
 420 -8 420 -8 337 -8 c 0,24,25
 302 -8 302 -8 213.5 1 c 128,-1,26
 125 10 125 10 87 17 c 1,27,-1
 87 77 l 1,28,29
 197 66 197 66 337 66 c 0,30,31
 465 66 465 66 465 156 c 2,32,-1
 465 224 l 2,33,34
 465 271 465 271 447 296.5 c 128,-1,35
 429 322 429 322 383 322 c 2,36,-1
 243 322 l 2,37,38
 129 322 129 322 94 377 c 0,39,40
 65 423 65 423 65 494 c 2,0,-1
EndSplineSet
Substitution2: "'c2sc' Capitals to Small Capitals in Latin lookup 2 subtable" s.smcp
EndChar

StartChar: T
Encoding: 84 84 55
Width: 578
GlyphClass: 2
Flags: W
LayerCount: 2
Fore
SplineSet
45 658 m 1,0,-1
 45 732 l 1,1,-1
 553 732 l 1,2,-1
 553 658 l 1,3,-1
 333 658 l 1,4,-1
 333 0 l 1,5,-1
 259 0 l 1,6,-1
 259 658 l 1,7,-1
 45 658 l 1,0,-1
EndSplineSet
Substitution2: "'c2sc' Capitals to Small Capitals in Latin lookup 2 subtable" t.smcp
EndChar

StartChar: U
Encoding: 85 85 56
Width: 677
GlyphClass: 2
Flags: W
LayerCount: 2
Fore
SplineSet
80 320 m 2,0,-1
 80 732 l 1,1,-1
 154 732 l 1,2,-1
 154 320 l 2,3,4
 154 229 154 229 165.5 175.5 c 128,-1,5
 177 122 177 122 208 100 c 128,-1,6
 239 78 239 78 264 73.5 c 128,-1,7
 289 69 289 69 318 69 c 2,8,9
 318 69 318 69 351 69 c 0,10,11
 422 69 422 69 439 76 c 128,-1,12
 456 83 456 83 471 91.5 c 128,-1,13
 486 100 486 100 495 112.5 c 128,-1,14
 504 125 504 125 514 144 c 128,-1,15
 524 163 524 163 530 188 c 0,16,17
 542 243 542 243 542 320 c 2,18,-1
 542 732 l 1,19,-1
 617 732 l 1,20,-1
 617 320 l 2,21,22
 617 227 617 227 599.5 162.5 c 128,-1,23
 582 98 582 98 559.5 66 c 128,-1,24
 537 34 537 34 495.5 17 c 128,-1,25
 454 0 454 0 427 -2.5 c 128,-1,26
 400 -5 400 -5 374 -5 c 128,-1,27
 348 -5 348 -5 331.5 -5 c 128,-1,28
 315 -5 315 -5 301.5 -4.5 c 128,-1,29
 288 -4 288 -4 263.5 -2.5 c 128,-1,30
 239 -1 239 -1 226 3.5 c 128,-1,31
 213 8 213 8 192.5 15.5 c 128,-1,32
 172 23 172 23 160.5 35.5 c 128,-1,33
 149 48 149 48 134 65 c 128,-1,34
 119 82 119 82 111 106.5 c 128,-1,35
 103 131 103 131 95 162 c 0,36,37
 80 219 80 219 80 320 c 2,0,-1
EndSplineSet
Substitution2: "'c2sc' Capitals to Small Capitals in Latin lookup 2 subtable" u.smcp
EndChar

StartChar: V
Encoding: 86 86 57
Width: 670
GlyphClass: 2
Flags: W
LayerCount: 2
Fore
SplineSet
45 732 m 1,0,-1
 126 732 l 1,1,-1
 340 118 l 1,2,-1
 564 732 l 1,3,-1
 645 732 l 1,4,-1
 376 0 l 1,5,-1
 302 0 l 1,6,-1
 45 732 l 1,0,-1
EndSplineSet
Substitution2: "'c2sc' Capitals to Small Capitals in Latin lookup 2 subtable" v.smcp
EndChar

StartChar: W
Encoding: 87 87 58
Width: 962
GlyphClass: 2
Flags: W
LayerCount: 2
Fore
SplineSet
45 732 m 1,0,-1
 126 732 l 1,1,-1
 339 129 l 1,2,-1
 520 732 l 1,3,-1
 604 732 l 1,4,-1
 536 498 l 1,5,-1
 669 123 l 1,6,-1
 856 732 l 1,7,-1
 937 732 l 1,8,-1
 708 0 l 1,9,-1
 634 0 l 1,10,-1
 497 374 l 1,11,-1
 376 0 l 1,12,-1
 302 0 l 1,13,-1
 45 732 l 1,0,-1
EndSplineSet
Substitution2: "'c2sc' Capitals to Small Capitals in Latin lookup 2 subtable" w.smcp
EndChar

StartChar: X
Encoding: 88 88 59
Width: 596
GlyphClass: 2
Flags: W
LayerCount: 2
Fore
SplineSet
45 732 m 1,0,-1
 126 732 l 1,1,-1
 306 425 l 1,2,-1
 490 732 l 1,3,-1
 571 732 l 1,4,-1
 355 371 l 1,5,-1
 566 0 l 1,6,-1
 485 0 l 1,7,-1
 306 308 l 1,8,-1
 129 0 l 1,9,-1
 48 0 l 1,10,-1
 257 371 l 1,11,-1
 45 732 l 1,0,-1
EndSplineSet
AlternateSubs2: "'salt' Stylistic Alternatives in Latin lookup 16 subtable" X.salt
Substitution2: "'c2sc' Capitals to Small Capitals in Latin lookup 2 subtable" x.smcp
EndChar

StartChar: Y
Encoding: 89 89 60
Width: 630
GlyphClass: 2
Flags: W
LayerCount: 2
Fore
SplineSet
352 0 m 1,0,-1
 278 0 l 1,1,-1
 278 260 l 1,2,-1
 45 732 l 1,3,-1
 126 732 l 1,4,-1
 315 348 l 1,5,-1
 524 732 l 1,6,-1
 605 732 l 1,7,-1
 352 260 l 1,8,-1
 352 0 l 1,0,-1
EndSplineSet
Substitution2: "'c2sc' Capitals to Small Capitals in Latin lookup 2 subtable" y.smcp
EndChar

StartChar: Z
Encoding: 90 90 61
Width: 563
GlyphClass: 2
Flags: W
LayerCount: 2
Fore
SplineSet
35 0 m 1,0,-1
 35 74 l 1,1,-1
 431 658 l 1,2,-1
 35 658 l 1,3,-1
 35 732 l 1,4,-1
 528 732 l 1,5,-1
 528 658 l 1,6,-1
 132 74 l 1,7,-1
 528 74 l 1,8,-1
 528 0 l 1,9,-1
 35 0 l 1,0,-1
EndSplineSet
Substitution2: "'c2sc' Capitals to Small Capitals in Latin lookup 2 subtable" z.smcp
EndChar

StartChar: bracketleft
Encoding: 91 91 62
Width: 321
GlyphClass: 2
Flags: W
LayerCount: 2
Fore
SplineSet
85 -38 m 2,0,-1
 85 670 l 2,1,2
 85 728 85 728 107 778 c 0,3,4
 120 807 120 807 149 824.5 c 128,-1,5
 178 842 178 842 221 842 c 2,6,-1
 301 842 l 1,7,-1
 301 768 l 1,8,-1
 221 768 l 2,9,10
 193 768 193 768 176 741.5 c 128,-1,11
 159 715 159 715 159 670 c 2,12,-1
 159 -38 l 2,13,14
 159 -83 159 -83 176 -109.5 c 128,-1,15
 193 -136 193 -136 221 -136 c 2,16,-1
 301 -136 l 1,17,-1
 301 -210 l 1,18,-1
 221 -210 l 2,19,20
 178 -210 178 -210 149 -192.5 c 128,-1,21
 120 -175 120 -175 107 -146 c 0,22,23
 85 -96 85 -96 85 -38 c 2,0,-1
EndSplineSet
EndChar

StartChar: backslash
Encoding: 92 92 63
Width: 400
GlyphClass: 2
Flags: W
LayerCount: 2
Fore
SplineSet
20 770 m 1,0,-1
 99 770 l 1,1,-1
 380 -72 l 1,2,-1
 301 -72 l 1,3,-1
 20 770 l 1,0,-1
EndSplineSet
EndChar

StartChar: bracketright
Encoding: 93 93 64
Width: 321
GlyphClass: 2
Flags: W
LayerCount: 2
Fore
SplineSet
20 -136 m 1,0,-1
 100 -136 l 2,1,2
 128 -136 128 -136 145 -109.5 c 128,-1,3
 162 -83 162 -83 162 -38 c 2,4,-1
 162 670 l 2,5,6
 162 715 162 715 145 741.5 c 128,-1,7
 128 768 128 768 100 768 c 2,8,-1
 20 768 l 1,9,-1
 20 842 l 1,10,-1
 100 842 l 2,11,12
 143 842 143 842 172 824.5 c 128,-1,13
 201 807 201 807 214 778 c 0,14,15
 236 728 236 728 236 670 c 2,16,-1
 236 -38 l 2,17,18
 236 -96 236 -96 214 -146 c 0,19,20
 201 -175 201 -175 172 -192.5 c 128,-1,21
 143 -210 143 -210 100 -210 c 2,22,-1
 20 -210 l 1,23,-1
 20 -136 l 1,0,-1
EndSplineSet
EndChar

StartChar: asciicircum
Encoding: 94 94 65
Width: 392
GlyphClass: 2
Flags: W
LayerCount: 2
Fore
SplineSet
50 531 m 1,0,-1
 167 661 l 1,1,-1
 238 661 l 1,2,-1
 342 531 l 1,3,-1
 271 531 l 1,4,-1
 201 602 l 1,5,-1
 122 531 l 1,6,-1
 50 531 l 1,0,-1
EndSplineSet
EndChar

StartChar: underscore
Encoding: 95 95 66
Width: 674
GlyphClass: 2
Flags: W
LayerCount: 2
Fore
SplineSet
20 -1 m 1,0,-1
 20 73 l 1,1,-1
 654 73 l 1,2,-1
 654 -1 l 1,3,-1
 20 -1 l 1,0,-1
EndSplineSet
EndChar

StartChar: grave
Encoding: 96 96 67
Width: 242
GlyphClass: 2
Flags: W
LayerCount: 2
Fore
SplineSet
20 664 m 1,0,-1
 115 664 l 1,1,-1
 222 531 l 1,2,-1
 153 531 l 1,3,-1
 20 664 l 1,0,-1
EndSplineSet
Substitution2: "'smcp' Lowercase to Small Capitals lookup 1 subtable" grave.smcp
EndChar

StartChar: a
Encoding: 97 97 68
Width: 519
GlyphClass: 2
Flags: W
LayerCount: 2
Fore
SplineSet
57 511 m 1,0,1
 165 541 165 541 319 541 c 0,2,3
 384 541 384 541 426.5 503 c 128,-1,4
 469 465 469 465 469 387 c 2,5,-1
 469 0 l 1,6,-1
 414 0 l 1,7,-1
 395 64 l 1,8,-1
 380 57 l 1,9,10
 250 -6 250 -6 173 -6 c 0,11,12
 116 -6 116 -6 78 29 c 128,-1,13
 40 64 40 64 40 126 c 2,14,-1
 40 187 l 2,15,16
 40 248 40 248 75.5 284 c 128,-1,17
 111 320 111 320 173 320 c 0,18,19
 284 320 284 320 339.5 320 c 128,-1,20
 395 320 395 320 395 320 c 1,21,22
 396 353 396 353 396 369.5 c 128,-1,23
 396 386 396 386 395 387 c 1,24,25
 395 469 395 469 309 469 c 128,-1,26
 223 469 223 469 57 457 c 1,27,-1
 57 511 l 1,0,1
114 131 m 2,28,29
 114 68 114 68 173 68 c 0,30,31
 209 68 209 68 264.5 81 c 128,-1,32
 320 94 320 94 358 106 c 1,33,-1
 395 119 l 1,34,-1
 395 262 l 1,35,-1
 173 246 l 2,36,37
 143 243 143 243 128.5 225 c 128,-1,38
 114 207 114 207 114 181 c 2,39,-1
 114 131 l 2,28,29
EndSplineSet
AlternateSubs2: "'salt' Stylistic Alternatives in Latin lookup 16 subtable" a.salt
Substitution2: "'smcp' Lowercase to Small Capitals lookup 1 subtable" a.smcp
EndChar

StartChar: b
Encoding: 98 98 69
Width: 554
GlyphClass: 2
Flags: W
LayerCount: 2
Fore
SplineSet
60 0 m 1,0,-1
 60 785 l 1,1,-1
 132 785 l 1,2,-1
 132 499 l 1,3,4
 177 517 177 517 234.5 528 c 128,-1,5
 292 539 292 539 337.5 539 c 128,-1,6
 383 539 383 539 419.5 516 c 128,-1,7
 456 493 456 493 474 450 c 0,8,9
 504 376 504 376 504 263 c 0,10,11
 504 160 504 160 471 84 c 0,12,13
 453 42 453 42 417 18 c 128,-1,14
 381 -6 381 -6 332 -6 c 128,-1,15
 283 -6 283 -6 220.5 17.5 c 128,-1,16
 158 41 158 41 133 59 c 1,17,-1
 113 0 l 1,18,-1
 60 0 l 1,0,-1
329 68 m 0,19,20
 430 68 430 68 430 263 c 0,21,22
 430 379 430 379 405.5 422 c 128,-1,23
 381 465 381 465 329 465 c 0,24,25
 233 465 233 465 133 439 c 1,26,-1
 133 114 l 1,27,28
 246 68 246 68 329 68 c 0,19,20
EndSplineSet
AlternateSubs2: "'salt' Stylistic Alternatives in Latin lookup 16 subtable" b.salt
Substitution2: "'smcp' Lowercase to Small Capitals lookup 1 subtable" b.smcp
EndChar

StartChar: c
Encoding: 99 99 70
Width: 500
GlyphClass: 2
Flags: W
LayerCount: 2
Fore
SplineSet
50 266 m 128,-1,1
 50 350 50 350 62.5 405.5 c 128,-1,2
 75 461 75 461 100 488.5 c 128,-1,3
 125 516 125 516 154 526 c 128,-1,4
 183 536 183 536 248 536 c 128,-1,5
 313 536 313 536 453 510 c 1,6,-1
 453 456 l 1,7,8
 314 462 314 462 256 462 c 128,-1,9
 198 462 198 462 183 457 c 128,-1,10
 168 452 168 452 152 434 c 1,11,12
 124 399 124 399 124 274.5 c 128,-1,13
 124 150 124 150 146.5 109.5 c 128,-1,14
 169 69 169 69 225 69 c 0,15,16
 319 69 319 69 422 77 c 2,17,-1
 460 80 l 1,18,-1
 460 24 l 1,19,20
 364 -3 364 -3 225 -5 c 0,21,22
 184 -5 184 -5 155.5 5 c 128,-1,23
 127 15 127 15 101.5 42.5 c 128,-1,24
 76 70 76 70 63 126 c 128,-1,0
 50 182 50 182 50 266 c 128,-1,1
EndSplineSet
Substitution2: "'smcp' Lowercase to Small Capitals lookup 1 subtable" c.smcp
EndChar

StartChar: d
Encoding: 100 100 71
Width: 554
GlyphClass: 2
Flags: W
LayerCount: 2
Fore
SplineSet
57.5 168.5 m 128,-1,1
 50 212 50 212 50 266.5 c 128,-1,2
 50 321 50 321 56.5 364.5 c 128,-1,3
 63 408 63 408 80 450 c 0,4,5
 117 539 117 539 225 539 c 0,6,7
 262 539 262 539 319 528 c 128,-1,8
 376 517 376 517 421 499 c 1,9,-1
 421 785 l 1,10,-1
 494 785 l 1,11,-1
 494 0 l 1,12,-1
 441 0 l 1,13,-1
 421 59 l 1,14,15
 396 41 396 41 333.5 17.5 c 128,-1,16
 271 -6 271 -6 222 -6 c 128,-1,17
 173 -6 173 -6 137 18 c 128,-1,18
 101 42 101 42 83 83.5 c 128,-1,0
 65 125 65 125 57.5 168.5 c 128,-1,1
124 263 m 0,19,20
 124 68 124 68 225 68 c 0,21,22
 308 68 308 68 421 114 c 1,23,-1
 421 439 l 1,24,25
 321 465 321 465 225 465 c 0,26,27
 173 465 173 465 148.5 422 c 128,-1,28
 124 379 124 379 124 263 c 0,19,20
EndSplineSet
AlternateSubs2: "'salt' Stylistic Alternatives in Latin lookup 16 subtable" d.salt
Substitution2: "'smcp' Lowercase to Small Capitals lookup 1 subtable" d.smcp
EndChar

StartChar: e
Encoding: 101 101 72
Width: 525
GlyphClass: 2
Flags: W
LayerCount: 2
Fore
SplineSet
50 268 m 0,0,1
 50 356 50 356 62 409.5 c 128,-1,2
 74 463 74 463 105.5 490.5 c 128,-1,3
 137 518 137 518 175.5 526.5 c 128,-1,4
 214 535 214 535 275.5 535 c 128,-1,5
 337 535 337 535 368 530 c 128,-1,6
 399 525 399 525 429 507 c 128,-1,7
 459 489 459 489 472 450 c 128,-1,8
 485 411 485 411 485 347 c 0,9,10
 485 225 485 225 348 225 c 2,11,-1
 124 225 l 1,12,13
 124 132 124 132 145 100.5 c 128,-1,14
 166 69 166 69 225 69 c 0,15,16
 407 69 407 69 475 79 c 1,17,-1
 475 23 l 1,18,19
 376 -5 376 -5 225 -5 c 0,20,21
 124 -5 124 -5 87 53 c 128,-1,22
 50 111 50 111 50 268 c 0,0,1
124 298 m 1,23,-1
 348 298 l 2,24,25
 411 298 411 298 411 347 c 0,26,27
 411 424 411 424 388.5 442.5 c 128,-1,28
 366 461 366 461 283 461 c 0,29,30
 180 461 180 461 160 440 c 0,31,32
 132 410 132 410 128 374 c 128,-1,33
 124 338 124 338 124 298 c 1,23,-1
EndSplineSet
Substitution2: "'smcp' Lowercase to Small Capitals lookup 1 subtable" e.smcp
EndChar

StartChar: f
Encoding: 102 102 73
Width: 400
GlyphClass: 2
Flags: W
LayerCount: 2
Fore
SplineSet
20 457 m 1,0,-1
 20 514 l 1,1,-1
 117 531 l 1,2,-1
 117 630 l 2,3,4
 117 711 117 711 145 748 c 0,5,6
 157 763 157 763 181.5 774.5 c 128,-1,7
 206 786 206 786 254 786 c 128,-1,8
 302 786 302 786 380 762 c 1,9,-1
 380 713 l 1,10,-1
 257 714 l 2,11,12
 211 714 211 714 200 690 c 0,13,14
 191 669 191 669 191 630 c 2,15,-1
 191 531 l 1,16,-1
 339 531 l 1,17,-1
 339 457 l 1,18,-1
 191 457 l 1,19,-1
 191 0 l 1,20,-1
 117 0 l 1,21,-1
 117 457 l 1,22,-1
 20 457 l 1,0,-1
EndSplineSet
AlternateSubs2: "'salt' Stylistic Alternatives in Latin lookup 16 subtable" f.salt
Substitution2: "'smcp' Lowercase to Small Capitals lookup 1 subtable" f.smcp
EndChar

StartChar: g
Encoding: 103 103 74
Width: 554
GlyphClass: 2
Flags: W
LayerCount: 2
Fore
SplineSet
48 115 m 0,0,1
 48 143 48 143 63 167.5 c 128,-1,2
 78 192 78 192 107 198 c 1,3,4
 49 235 49 235 49 336 c 128,-1,5
 49 437 49 437 94.5 485 c 128,-1,6
 140 533 140 533 222 533 c 2,7,-1
 534 533 l 1,8,-1
 534 477 l 1,9,-1
 453 459 l 1,10,11
 454 457 454 457 460 446.5 c 128,-1,12
 466 436 466 436 469 429.5 c 128,-1,13
 472 423 472 423 476 410 c 0,14,15
 484 386 484 386 484 351 c 128,-1,16
 484 316 484 316 477.5 287 c 128,-1,17
 471 258 471 258 455 224.5 c 128,-1,18
 439 191 439 191 404 170 c 128,-1,19
 369 149 369 149 319 149 c 2,20,-1
 163 149 l 2,21,22
 122 149 122 149 122 119 c 0,23,24
 122 85 122 85 163 85 c 2,25,-1
 376 85 l 2,26,27
 437 85 437 85 471 47.5 c 128,-1,28
 505 10 505 10 505 -53 c 2,29,-1
 505 -116 l 2,30,31
 505 -170 505 -170 480 -214 c 0,32,33
 465 -240 465 -240 433 -255 c 128,-1,34
 401 -270 401 -270 355 -270 c 2,35,-1
 205 -270 l 2,36,37
 132 -270 132 -270 88.5 -231 c 128,-1,38
 45 -192 45 -192 45 -116 c 2,39,-1
 45 -31 l 1,40,-1
 85 34 l 1,41,42
 48 60 48 60 48 115 c 0,0,1
164 11 m 2,43,44
 137 11 137 11 119 19 c 1,45,-1
 119 -116 l 2,46,47
 119 -196 119 -196 205 -196 c 2,48,-1
 355 -196 l 2,49,50
 431 -196 431 -196 431 -116 c 2,51,-1
 431 -58 l 2,52,53
 431 -20 431 -20 417.5 -4.5 c 128,-1,54
 404 11 404 11 363 11 c 2,55,-1
 164 11 l 2,43,44
123 344 m 0,56,57
 123 302 123 302 136 274 c 0,58,59
 160 223 160 223 215 223 c 2,60,-1
 313 223 l 2,61,62
 367 223 367 223 388.5 259.5 c 128,-1,63
 410 296 410 296 410 337 c 0,64,65
 410 397 410 397 388.5 428 c 128,-1,66
 367 459 367 459 312 459 c 2,67,-1
 222 459 l 2,68,69
 123 459 123 459 123 344 c 0,56,57
EndSplineSet
AlternateSubs2: "'salt' Stylistic Alternatives in Latin lookup 16 subtable" g.salt
Substitution2: "'smcp' Lowercase to Small Capitals lookup 1 subtable" g.smcp
EndChar

StartChar: h
Encoding: 104 104 75
Width: 544
GlyphClass: 2
Flags: W
LayerCount: 2
Fore
SplineSet
60 0 m 1,0,-1
 60 784 l 1,1,-1
 134 784 l 1,2,-1
 134 469 l 1,3,4
 137 470 137 470 156 481.5 c 128,-1,5
 175 493 175 493 179.5 495 c 128,-1,6
 184 497 184 497 201 506.5 c 128,-1,7
 218 516 218 516 225 518 c 128,-1,8
 232 520 232 520 248 526 c 128,-1,9
 264 532 264 532 274 534 c 0,10,11
 306 540 306 540 330 540 c 0,12,13
 406 540 406 540 450 490 c 128,-1,14
 494 440 494 440 494 370 c 2,15,-1
 494 0 l 1,16,-1
 420 0 l 1,17,-1
 420 370 l 2,18,19
 420 418 420 418 395.5 442 c 128,-1,20
 371 466 371 466 331.5 466 c 128,-1,21
 292 466 292 466 258 458 c 128,-1,22
 224 450 224 450 203.5 441.5 c 128,-1,23
 183 433 183 433 134 409 c 1,24,-1
 134 0 l 1,25,-1
 60 0 l 1,0,-1
EndSplineSet
Substitution2: "'smcp' Lowercase to Small Capitals lookup 1 subtable" h.smcp
EndChar

StartChar: i
Encoding: 105 105 76
Width: 197
GlyphClass: 2
Flags: W
LayerCount: 2
Fore
SplineSet
50 617 m 2,0,-1
 50 671 l 2,1,2
 50 696 50 696 74 696 c 2,3,-1
 124 696 l 2,4,5
 147 696 147 696 147 671 c 2,6,-1
 147 617 l 2,7,8
 147 594 147 594 124 594 c 2,9,-1
 74 594 l 2,10,11
 50 594 50 594 50 617 c 2,0,-1
60 0 m 1,12,-1
 60 531 l 1,13,-1
 134 531 l 1,14,-1
 134 0 l 1,15,-1
 60 0 l 1,12,-1
EndSplineSet
Substitution2: "'smcp' Lowercase to Small Capitals lookup 1 subtable" i.smcp
EndChar

StartChar: j
Encoding: 106 106 77
Width: 217
GlyphClass: 2
Flags: W
LayerCount: 2
Fore
SplineSet
60 617 m 2,0,-1
 60 671 l 2,1,2
 60 696 60 696 84 696 c 2,3,-1
 134 696 l 2,4,5
 157 696 157 696 157 671 c 2,6,-1
 157 617 l 2,7,8
 157 594 157 594 134 594 c 2,9,-1
 84 594 l 2,10,11
 60 594 60 594 60 617 c 2,0,-1
71 -270 m 1,12,-1
 71 531 l 1,13,-1
 145 531 l 1,14,-1
 145 -4 l 2,15,16
 145 -16 145 -16 145 -27 c 0,17,18
 145 -186 145 -186 119 -270 c 1,19,-1
 71 -270 l 1,12,-1
EndSplineSet
Substitution2: "'smcp' Lowercase to Small Capitals lookup 1 subtable" j.smcp
EndChar

StartChar: k
Encoding: 107 107 78
Width: 500
GlyphClass: 2
Flags: W
LayerCount: 2
Fore
SplineSet
60 0 m 1,0,-1
 60 782 l 1,1,-1
 134 782 l 1,2,-1
 134 342 l 1,3,-1
 174 342 l 1,4,-1
 377 531 l 1,5,-1
 480 531 l 1,6,-1
 244 305 l 1,7,-1
 480 0 l 1,8,-1
 388 0 l 1,9,-1
 174 268 l 1,10,-1
 134 268 l 1,11,-1
 134 0 l 1,12,-1
 60 0 l 1,0,-1
EndSplineSet
Substitution2: "'smcp' Lowercase to Small Capitals lookup 1 subtable" k.smcp
EndChar

StartChar: l
Encoding: 108 108 79
Width: 300
GlyphClass: 2
Flags: W
LayerCount: 2
Fore
SplineSet
60 189 m 2,0,-1
 60 783 l 1,1,-1
 134 783 l 1,2,-1
 134 189 l 2,3,4
 134 128 134 128 148 104.5 c 128,-1,5
 162 81 162 81 191 74 c 0,6,7
 273 53 273 53 280 53 c 1,8,-1
 280 0 l 1,9,-1
 192 0 l 2,10,11
 60 0 60 0 60 189 c 2,0,-1
EndSplineSet
Substitution2: "'smcp' Lowercase to Small Capitals lookup 1 subtable" l.smcp
EndChar

StartChar: m
Encoding: 109 109 80
Width: 898
GlyphClass: 2
Flags: W
LayerCount: 2
Fore
SplineSet
60 0 m 1,0,-1
 60 531 l 1,1,-1
 112 531 l 1,2,-1
 134 467 l 1,3,4
 140 471 140 471 158.5 481.5 c 128,-1,5
 177 492 177 492 184.5 496.5 c 128,-1,6
 192 501 192 501 208.5 509 c 128,-1,7
 225 517 225 517 236 520 c 2,8,-1
 261 529 l 2,9,10
 285 537 285 537 329 537 c 128,-1,11
 373 537 373 537 413 516 c 128,-1,12
 453 495 453 495 470 459 c 1,13,14
 564 537 564 537 684 537 c 0,15,16
 754 537 754 537 801 489 c 128,-1,17
 848 441 848 441 848 366 c 2,18,-1
 848 0 l 1,19,-1
 774 0 l 1,20,-1
 774 366 l 2,21,22
 774 410 774 410 748.5 436.5 c 128,-1,23
 723 463 723 463 684 463 c 0,24,25
 624 463 624 463 580.5 451 c 128,-1,26
 537 439 537 439 488 407 c 1,27,-1
 488 0 l 1,28,-1
 414 0 l 1,29,-1
 414 366 l 2,30,31
 414 410 414 410 388.5 436.5 c 128,-1,32
 363 463 363 463 324.5 463 c 128,-1,33
 286 463 286 463 253.5 455 c 128,-1,34
 221 447 221 447 203 439.5 c 128,-1,35
 185 432 185 432 134 407 c 1,36,-1
 134 0 l 1,37,-1
 60 0 l 1,0,-1
EndSplineSet
AlternateSubs2: "'salt' Stylistic Alternatives in Latin lookup 16 subtable" m.salt
Substitution2: "'smcp' Lowercase to Small Capitals lookup 1 subtable" m.smcp
EndChar

StartChar: n
Encoding: 110 110 81
Width: 544
GlyphClass: 2
Flags: W
LayerCount: 2
Fore
SplineSet
60 0 m 1,0,-1
 60 531 l 1,1,-1
 112 531 l 1,2,-1
 134 469 l 1,3,4
 137 470 137 470 156 481.5 c 128,-1,5
 175 493 175 493 179.5 495 c 128,-1,6
 184 497 184 497 201 506.5 c 128,-1,7
 218 516 218 516 225 518 c 128,-1,8
 232 520 232 520 248 526 c 128,-1,9
 264 532 264 532 274 534 c 0,10,11
 306 540 306 540 330 540 c 0,12,13
 406 540 406 540 450 490 c 128,-1,14
 494 440 494 440 494 370 c 2,15,-1
 494 0 l 1,16,-1
 420 0 l 1,17,-1
 420 370 l 2,18,19
 420 417 420 417 395 441.5 c 128,-1,20
 370 466 370 466 331 466 c 128,-1,21
 292 466 292 466 258 458 c 128,-1,22
 224 450 224 450 203.5 441.5 c 128,-1,23
 183 433 183 433 134 409 c 1,24,-1
 134 0 l 1,25,-1
 60 0 l 1,0,-1
EndSplineSet
AlternateSubs2: "'salt' Stylistic Alternatives in Latin lookup 16 subtable" n.salt
Substitution2: "'smcp' Lowercase to Small Capitals lookup 1 subtable" n.smcp
EndChar

StartChar: o
Encoding: 111 111 82
Width: 568
GlyphClass: 2
Flags: W
LayerCount: 2
Fore
SplineSet
101 54 m 128,-1,1
 50 113 50 113 50 266 c 128,-1,2
 50 419 50 419 101 477.5 c 128,-1,3
 152 536 152 536 285 536 c 128,-1,4
 418 536 418 536 468 476.5 c 128,-1,5
 518 417 518 417 518 263 c 128,-1,6
 518 109 518 109 468 52 c 128,-1,7
 418 -5 418 -5 285 -5 c 128,-1,0
 152 -5 152 -5 101 54 c 128,-1,1
130.5 352.5 m 128,-1,9
 124 315 124 315 124 254 c 128,-1,10
 124 193 124 193 133.5 154 c 128,-1,11
 143 115 143 115 166.5 97 c 128,-1,12
 190 79 190 79 214.5 74 c 128,-1,13
 239 69 239 69 284.5 69 c 128,-1,14
 330 69 330 69 355.5 74 c 128,-1,15
 381 79 381 79 403.5 97.5 c 128,-1,16
 426 116 426 116 435 154.5 c 128,-1,17
 444 193 444 193 444 261 c 128,-1,18
 444 329 444 329 436.5 370 c 128,-1,19
 429 411 429 411 407 431.5 c 128,-1,20
 385 452 385 452 359.5 457 c 128,-1,21
 334 462 334 462 290 462 c 128,-1,22
 246 462 246 462 224 459 c 128,-1,23
 202 456 202 456 180 445 c 128,-1,24
 158 434 158 434 147.5 412 c 128,-1,8
 137 390 137 390 130.5 352.5 c 128,-1,9
EndSplineSet
Substitution2: "'smcp' Lowercase to Small Capitals lookup 1 subtable" o.smcp
EndChar

StartChar: p
Encoding: 112 112 83
Width: 554
GlyphClass: 2
Flags: W
LayerCount: 2
Fore
SplineSet
60 -270 m 1,0,-1
 60 531 l 1,1,-1
 113 531 l 1,2,-1
 132 472 l 1,3,4
 157 490 157 490 220 513.5 c 128,-1,5
 283 537 283 537 332 537 c 128,-1,6
 381 537 381 537 417 513 c 128,-1,7
 453 489 453 489 471 448 c 0,8,9
 504 371 504 371 504 268 c 0,10,11
 504 68 504 68 420 15 c 0,12,13
 383 -8 383 -8 337.5 -8 c 128,-1,14
 292 -8 292 -8 234.5 3 c 128,-1,15
 177 14 177 14 132 32 c 1,16,-1
 132 -270 l 1,17,-1
 60 -270 l 1,0,-1
329 66 m 0,18,19
 381 66 381 66 405.5 109 c 128,-1,20
 430 152 430 152 430 268 c 0,21,22
 430 463 430 463 329 463 c 0,23,24
 245 463 245 463 132 417 c 1,25,-1
 132 92 l 1,26,27
 232 66 232 66 329 66 c 0,18,19
EndSplineSet
AlternateSubs2: "'salt' Stylistic Alternatives in Latin lookup 16 subtable" p.salt
Substitution2: "'smcp' Lowercase to Small Capitals lookup 1 subtable" p.smcp
EndChar

StartChar: q
Encoding: 113 113 84
Width: 555
GlyphClass: 2
Flags: W
LayerCount: 2
Fore
SplineSet
96 467 m 128,-1,1
 142 537 142 537 234 537 c 0,2,3
 319 537 319 537 401 526 c 128,-1,4
 483 515 483 515 495 514 c 1,5,-1
 495 -270 l 1,6,-1
 421 -270 l 1,7,-1
 421 29 l 1,8,9
 325 -10 325 -10 234 -10 c 0,10,11
 124 -10 124 -10 84 70 c 0,12,13
 50 140 50 140 50 268.5 c 128,-1,0
 50 397 50 397 96 467 c 128,-1,1
124 268 m 0,14,15
 124 166 124 166 138 128 c 0,16,17
 162 64 162 64 234 64 c 0,18,19
 290 64 290 64 324.5 68.5 c 128,-1,20
 359 73 359 73 421 89 c 1,21,-1
 421 463 l 1,22,-1
 234 463 l 2,23,24
 124 463 124 463 124 268 c 0,14,15
EndSplineSet
Substitution2: "'smcp' Lowercase to Small Capitals lookup 1 subtable" q.smcp
EndChar

StartChar: r
Encoding: 114 114 85
Width: 426
GlyphClass: 2
Flags: W
LayerCount: 2
Fore
SplineSet
60 0 m 1,0,-1
 60 531 l 1,1,-1
 112 531 l 1,2,-1
 134 464 l 1,3,4
 210 510 210 510 230 516.5 c 128,-1,5
 250 523 250 523 266 528 c 0,6,7
 296 537 296 537 343 537 c 128,-1,8
 390 537 390 537 406 529 c 1,9,-1
 406 456 l 1,10,11
 382 462 382 462 338 462 c 128,-1,12
 294 462 294 462 259.5 454 c 128,-1,13
 225 446 225 446 204.5 437 c 128,-1,14
 184 428 184 428 134 404 c 1,15,-1
 134 0 l 1,16,-1
 60 0 l 1,0,-1
EndSplineSet
AlternateSubs2: "'salt' Stylistic Alternatives in Latin lookup 16 subtable" r.salt
Substitution2: "'smcp' Lowercase to Small Capitals lookup 1 subtable" r.smcp
EndChar

StartChar: s
Encoding: 115 115 86
Width: 506
GlyphClass: 2
Flags: W
LayerCount: 2
Fore
SplineSet
40 358 m 2,0,-1
 40 404 l 2,1,2
 40 469 40 469 72 502.5 c 128,-1,3
 104 536 104 536 188.5 536 c 128,-1,4
 273 536 273 536 439 520 c 1,5,-1
 439 463 l 1,6,-1
 178 463 l 2,7,8
 132 463 132 463 122 446 c 0,9,10
 114 433 114 433 114 404 c 2,11,-1
 114 358 l 2,12,13
 114 318 114 318 133 309 c 0,14,15
 149 301 149 301 178 301 c 2,16,-1
 336 301 l 2,17,18
 399 301 399 301 432.5 265.5 c 128,-1,19
 466 230 466 230 466 172 c 2,20,-1
 466 123 l 2,21,22
 466 49 466 49 430 22 c 128,-1,23
 394 -5 394 -5 336 -5 c 0,24,25
 243 -5 243 -5 62 14 c 1,26,-1
 62 69 l 1,27,-1
 336 69 l 1,28,29
 336 70 336 70 341.5 69 c 128,-1,30
 347 68 347 68 355.5 71 c 128,-1,31
 364 74 364 74 372 78 c 0,32,33
 392 88 392 88 392 123 c 2,34,-1
 392 172 l 2,35,36
 392 200 392 200 379.5 213.5 c 128,-1,37
 367 227 367 227 336 227 c 2,38,-1
 178 227 l 2,39,40
 105 227 105 227 72.5 255 c 128,-1,41
 40 283 40 283 40 358 c 2,0,-1
EndSplineSet
Substitution2: "'smcp' Lowercase to Small Capitals lookup 1 subtable" s.smcp
EndChar

StartChar: t
Encoding: 116 116 87
Width: 378
GlyphClass: 2
Flags: W
LayerCount: 2
Fore
SplineSet
20 458 m 1,0,-1
 20 514 l 1,1,-1
 119 532 l 1,2,-1
 137 680 l 1,3,-1
 193 680 l 1,4,-1
 193 532 l 1,5,-1
 348 532 l 1,6,-1
 348 458 l 1,7,-1
 193 458 l 1,8,-1
 193 190 l 2,9,10
 193 129 193 129 207 105.5 c 128,-1,11
 221 82 221 82 250 75 c 0,12,13
 332 54 332 54 339 54 c 1,14,-1
 339 1 l 1,15,-1
 251 1 l 2,16,17
 119 1 119 1 119 190 c 2,18,-1
 119 458 l 1,19,-1
 20 458 l 1,0,-1
EndSplineSet
AlternateSubs2: "'salt' Stylistic Alternatives in Latin lookup 16 subtable" t.salt
Substitution2: "'smcp' Lowercase to Small Capitals lookup 1 subtable" t.smcp
EndChar

StartChar: u
Encoding: 117 117 88
Width: 544
GlyphClass: 2
Flags: W
LayerCount: 2
Fore
SplineSet
50 161 m 2,0,-1
 50 531 l 1,1,-1
 124 531 l 1,2,-1
 124 161 l 2,3,4
 124 114 124 114 149 89.5 c 128,-1,5
 174 65 174 65 213 65 c 128,-1,6
 252 65 252 65 286 73 c 128,-1,7
 320 81 320 81 340.5 89.5 c 128,-1,8
 361 98 361 98 410 122 c 1,9,-1
 410 531 l 1,10,-1
 484 531 l 1,11,-1
 484 0 l 1,12,-1
 432 0 l 1,13,-1
 410 62 l 1,14,15
 407 61 407 61 388 49.5 c 128,-1,16
 369 38 369 38 364.5 36 c 128,-1,17
 360 34 360 34 343 24.5 c 128,-1,18
 326 15 326 15 319 13 c 128,-1,19
 312 11 312 11 296 5 c 128,-1,20
 280 -1 280 -1 270 -3 c 0,21,22
 238 -9 238 -9 214 -9 c 0,23,24
 138 -9 138 -9 94 41 c 128,-1,25
 50 91 50 91 50 161 c 2,0,-1
EndSplineSet
AlternateSubs2: "'salt' Stylistic Alternatives in Latin lookup 16 subtable" u.salt
Substitution2: "'smcp' Lowercase to Small Capitals lookup 1 subtable" u.smcp
EndChar

StartChar: v
Encoding: 118 118 89
Width: 536
GlyphClass: 2
Flags: W
LayerCount: 2
Fore
SplineSet
20 531 m 1,0,-1
 101 531 l 1,1,-1
 267 109 l 1,2,-1
 435 531 l 1,3,-1
 516 531 l 1,4,-1
 303 0 l 1,5,-1
 229 0 l 1,6,-1
 20 531 l 1,0,-1
EndSplineSet
Substitution2: "'smcp' Lowercase to Small Capitals lookup 1 subtable" v.smcp
EndChar

StartChar: w
Encoding: 119 119 90
Width: 801
GlyphClass: 2
Flags: W
LayerCount: 2
Fore
SplineSet
20 531 m 1,0,-1
 101 531 l 1,1,-1
 258 109 l 1,2,-1
 396 531 l 1,3,-1
 476 531 l 1,4,-1
 422 361 l 1,5,-1
 538 109 l 1,6,-1
 700 531 l 1,7,-1
 781 531 l 1,8,-1
 578 0 l 1,9,-1
 504 0 l 1,10,-1
 386 260 l 1,11,-1
 299 0 l 1,12,-1
 219 0 l 1,13,-1
 20 531 l 1,0,-1
EndSplineSet
Substitution2: "'smcp' Lowercase to Small Capitals lookup 1 subtable" w.smcp
EndChar

StartChar: x
Encoding: 120 120 91
Width: 524
GlyphClass: 2
Flags: W
LayerCount: 2
Fore
SplineSet
24 0 m 1,0,-1
 216 266 l 1,1,-1
 24 531 l 1,2,-1
 116 531 l 1,3,-1
 260 327 l 1,4,-1
 408 531 l 1,5,-1
 500 531 l 1,6,-1
 306 263 l 1,7,-1
 492 0 l 1,8,-1
 408 0 l 1,9,-1
 262 202 l 1,10,-1
 116 0 l 1,11,-1
 24 0 l 1,0,-1
EndSplineSet
AlternateSubs2: "'salt' Stylistic Alternatives in Latin lookup 16 subtable" x.salt
Substitution2: "'smcp' Lowercase to Small Capitals lookup 1 subtable" x.smcp
EndChar

StartChar: y
Encoding: 121 121 92
Width: 554
GlyphClass: 2
Flags: W
LayerCount: 2
Fore
SplineSet
21 531 m 1,0,-1
 102 531 l 1,1,-1
 231 116 l 2,2,3
 238 96 238 96 244.5 90 c 128,-1,4
 251 84 251 84 256 80.5 c 128,-1,5
 261 77 261 77 266 76 c 128,-1,6
 271 75 271 75 275.5 74.5 c 128,-1,7
 280 74 280 74 284 74 c 0,8,9
 293 76 293 76 297 77 c 1,10,-1
 449 531 l 1,11,-1
 532 531 l 1,12,-1
 298 -168 l 1,13,-1
 223 -270 l 1,14,-1
 177 -270 l 1,15,-1
 271 0 l 1,16,17
 185 0 185 0 151 110 c 2,18,-1
 21 531 l 1,0,-1
EndSplineSet
Substitution2: "'smcp' Lowercase to Small Capitals lookup 1 subtable" y.smcp
EndChar

StartChar: z
Encoding: 122 122 93
Width: 456
GlyphClass: 2
Flags: W
LayerCount: 2
Fore
SplineSet
30 457 m 1,0,-1
 30 531 l 1,1,-1
 426 531 l 1,2,-1
 426 457 l 1,3,-1
 142 75 l 1,4,-1
 426 75 l 1,5,-1
 426 1 l 1,6,-1
 45 1 l 1,7,-1
 45 75 l 1,8,-1
 334 457 l 1,9,-1
 30 457 l 1,0,-1
EndSplineSet
Substitution2: "'smcp' Lowercase to Small Capitals lookup 1 subtable" z.smcp
EndChar

StartChar: braceleft
Encoding: 123 123 94
Width: 320
GlyphClass: 2
Flags: W
LayerCount: 2
Fore
SplineSet
20 367 m 1,0,1
 33 367 33 367 53 370 c 128,-1,2
 73 373 73 373 77.5 375.5 c 128,-1,3
 82 378 82 378 89.5 382 c 128,-1,4
 97 386 97 386 100 391 c 0,5,6
 110 405 110 405 110 420 c 2,7,-1
 110 656 l 2,8,9
 110 735 110 735 158 788.5 c 128,-1,10
 206 842 206 842 300 842 c 1,11,-1
 300 768 l 1,12,13
 246 768 246 768 215 743.5 c 128,-1,14
 184 719 184 719 184 656 c 2,15,-1
 184 420 l 2,16,17
 184 385 184 385 160.5 363 c 128,-1,18
 137 341 137 341 99 334 c 1,19,20
 135 329 135 329 159 305.5 c 128,-1,21
 183 282 183 282 183 251 c 2,22,-1
 183 -38 l 2,23,24
 183 -86 183 -86 213.5 -111 c 128,-1,25
 244 -136 244 -136 289 -136 c 0,26,27
 295 -136 295 -136 300 -136 c 1,28,-1
 300 -210 l 1,29,30
 247 -210 247 -210 208 -194.5 c 128,-1,31
 169 -179 169 -179 148 -153 c 0,32,33
 109 -103 109 -103 109 -38 c 2,34,-1
 109 247 l 2,35,36
 109 276 109 276 84 288.5 c 128,-1,37
 59 301 59 301 42.5 301 c 128,-1,38
 26 301 26 301 20 300 c 1,39,-1
 20 367 l 1,0,1
EndSplineSet
EndChar

StartChar: bar
Encoding: 124 124 95
Width: 245
GlyphClass: 2
Flags: W
LayerCount: 2
Fore
SplineSet
86 -72 m 1,0,-1
 86 770 l 1,1,-1
 160 770 l 1,2,-1
 160 -72 l 1,3,-1
 86 -72 l 1,0,-1
EndSplineSet
EndChar

StartChar: braceright
Encoding: 125 125 96
Width: 320
GlyphClass: 2
Flags: W
LayerCount: 2
Fore
SplineSet
31 -136 m 0,0,1
 76 -136 76 -136 106.5 -111 c 128,-1,2
 137 -86 137 -86 137 -38 c 2,3,-1
 137 251 l 2,4,5
 137 282 137 282 161 305.5 c 128,-1,6
 185 329 185 329 221 334 c 1,7,8
 183 341 183 341 159.5 363 c 128,-1,9
 136 385 136 385 136 420 c 2,10,-1
 136 656 l 2,11,12
 136 719 136 719 105 743.5 c 128,-1,13
 74 768 74 768 20 768 c 1,14,-1
 20 842 l 1,15,16
 114 842 114 842 162 788.5 c 128,-1,17
 210 735 210 735 210 656 c 2,18,-1
 210 420 l 2,19,20
 210 393 210 393 230 382 c 0,21,22
 238 378 238 378 242.5 375.5 c 128,-1,23
 247 373 247 373 257 371.5 c 128,-1,24
 267 370 267 370 272 370 c 0,25,26
 294 367 294 367 300 367 c 1,27,-1
 300 300 l 1,28,29
 294 301 294 301 277.5 301 c 128,-1,30
 261 301 261 301 236 288.5 c 128,-1,31
 211 276 211 276 211 247 c 2,32,-1
 211 -38 l 2,33,34
 211 -103 211 -103 172 -153 c 0,35,36
 151 -179 151 -179 112 -194.5 c 128,-1,37
 73 -210 73 -210 20 -210 c 1,38,-1
 20 -136 l 1,39,40
 25 -136 25 -136 31 -136 c 0,0,1
EndSplineSet
EndChar

StartChar: asciitilde
Encoding: 126 126 97
Width: 438
GlyphClass: 2
Flags: W
LayerCount: 2
Fore
SplineSet
273 605 m 0,0,1
 313 605 313 605 366 645 c 1,2,-1
 388 603 l 1,3,4
 354 569 354 569 342 559 c 0,5,6
 308 531 308 531 279 531 c 128,-1,7
 250 531 250 531 216.5 548.5 c 128,-1,8
 183 566 183 566 165 566 c 128,-1,9
 147 566 147 566 132.5 560.5 c 128,-1,10
 118 555 118 555 100.5 545.5 c 128,-1,11
 83 536 83 536 71 531 c 1,12,-1
 50 572 l 1,13,14
 58 578 58 578 77 595.5 c 128,-1,15
 96 613 96 613 105 620 c 0,16,17
 133 640 133 640 161.5 640 c 128,-1,18
 190 640 190 640 222 622.5 c 128,-1,19
 254 605 254 605 273 605 c 0,0,1
EndSplineSet
EndChar

StartChar: exclamdown
Encoding: 161 161 98
Width: 269
GlyphClass: 2
Flags: W
LayerCount: 2
Fore
SplineSet
83 385 m 2,0,-1
 83 438 l 2,1,2
 83 459 83 459 107 461 c 1,3,-1
 156 461 l 1,4,5
 165 460 165 460 172.5 452.5 c 128,-1,6
 180 445 180 445 180 435 c 2,7,-1
 180 386 l 1,8,9
 178 359 178 359 157 359 c 2,10,-1
 107 359 l 2,11,12
 83 359 83 359 83 385 c 2,0,-1
88 -270 m 1,13,-1
 94 261 l 1,14,-1
 169 261 l 1,15,-1
 177 -270 l 1,16,-1
 88 -270 l 1,13,-1
EndSplineSet
Substitution2: "'case' Case-Sensitive Forms lookup 18 subtable" exclamdown.alt
Substitution2: "'smcp' Lowercase to Small Capitals lookup 1 subtable" exclamdown.smcp
EndChar

StartChar: cent
Encoding: 162 162 99
Width: 490
GlyphClass: 2
Flags: W
LayerCount: 2
Fore
SplineSet
53 121.5 m 128,-1,1
 40 178 40 178 40 265.5 c 128,-1,2
 40 353 40 353 53 409.5 c 128,-1,3
 66 466 66 466 93 494 c 128,-1,4
 120 522 120 522 148.5 530 c 128,-1,5
 177 538 177 538 199.5 538 c 128,-1,6
 222 538 222 538 231 538 c 1,7,-1
 231 634 l 1,8,-1
 291 634 l 1,9,-1
 291 533 l 1,10,11
 366 524 366 524 443 510 c 1,12,-1
 443 456 l 1,13,14
 304 464 304 464 249 464 c 128,-1,15
 194 464 194 464 181 461 c 128,-1,16
 168 458 168 458 154 447 c 128,-1,17
 140 436 140 436 132 415 c 0,18,19
 114 368 114 368 114 259 c 128,-1,20
 114 150 114 150 137 108.5 c 128,-1,21
 160 67 160 67 215 67 c 0,22,23
 309 67 309 67 412 75 c 2,24,-1
 450 78 l 1,25,-1
 450 22 l 1,26,27
 377 1 377 1 291 -4 c 1,28,-1
 291 -96 l 1,29,-1
 231 -96 l 1,30,-1
 231 -7 l 1,31,32
 226 -7 226 -7 203 -7 c 128,-1,33
 180 -7 180 -7 150.5 1.5 c 128,-1,34
 121 10 121 10 93.5 37.5 c 128,-1,0
 66 65 66 65 53 121.5 c 128,-1,1
EndSplineSet
EndChar

StartChar: sterling
Encoding: 163 163 100
Width: 596
GlyphClass: 2
Flags: W
LayerCount: 2
Fore
SplineSet
50 0 m 1,0,-1
 50 59 l 1,1,-1
 122 74 l 1,2,-1
 122 330 l 1,3,-1
 50 330 l 1,4,-1
 50 375 l 1,5,-1
 122 392 l 1,6,-1
 122 505 l 2,7,8
 122 635 122 635 171 684 c 0,9,10
 202 715 202 715 238 722 c 0,11,12
 290 732 290 732 332 732 c 0,13,14
 400 732 400 732 510 720 c 2,15,-1
 546 716 l 1,16,-1
 546 659 l 1,17,-1
 352 659 l 2,18,19
 246 659 246 659 228 639 c 0,20,21
 203 613 203 613 199.5 578 c 128,-1,22
 196 543 196 543 196 505 c 2,23,-1
 196 392 l 1,24,-1
 467 375 l 1,25,-1
 467 330 l 1,26,-1
 196 330 l 1,27,-1
 196 74 l 1,28,-1
 545 74 l 1,29,-1
 545 0 l 1,30,-1
 50 0 l 1,0,-1
EndSplineSet
Substitution2: "'smcp' Lowercase to Small Capitals lookup 1 subtable" sterling.smcp
EndChar

StartChar: currency
Encoding: 164 164 101
Width: 459
GlyphClass: 2
Flags: W
LayerCount: 2
Fore
SplineSet
132 443 m 1,0,1
 173 473 173 473 226 473 c 128,-1,2
 279 473 279 473 323 439 c 1,3,-1
 371 486 l 1,4,-1
 406 446 l 1,5,-1
 359 399 l 1,6,7
 383 361 383 361 383 311.5 c 128,-1,8
 383 262 383 262 355 220 c 1,9,-1
 408 167 l 1,10,-1
 366 130 l 1,11,-1
 317 179 l 1,12,13
 275 147 275 147 225.5 147 c 128,-1,14
 176 147 176 147 136 176 c 1,15,-1
 89 129 l 1,16,-1
 52 171 l 1,17,-1
 97 215 l 1,18,19
 66 258 66 258 66 311.5 c 128,-1,20
 66 365 66 365 94 405 c 1,21,-1
 51 449 l 1,22,-1
 91 485 l 1,23,-1
 132 443 l 1,0,1
152 385 m 128,-1,25
 122 355 122 355 122 312 c 128,-1,26
 122 269 122 269 151.5 237 c 128,-1,27
 181 205 181 205 224 205 c 128,-1,28
 267 205 267 205 297 237 c 128,-1,29
 327 269 327 269 327 312.5 c 128,-1,30
 327 356 327 356 297 385.5 c 128,-1,31
 267 415 267 415 224.5 415 c 128,-1,24
 182 415 182 415 152 385 c 128,-1,25
EndSplineSet
EndChar

StartChar: yen
Encoding: 165 165 102
Width: 600
GlyphClass: 2
Flags: W
LayerCount: 2
Fore
SplineSet
509 321 m 1,0,-1
 509 262 l 1,1,-1
 327 262 l 1,2,-1
 327 212 l 1,3,-1
 509 212 l 1,4,-1
 509 153 l 1,5,-1
 327 153 l 1,6,-1
 327 0 l 1,7,-1
 253 0 l 1,8,-1
 253 153 l 1,9,-1
 82 153 l 1,10,-1
 82 212 l 1,11,-1
 253 212 l 1,12,-1
 253 262 l 1,13,-1
 82 262 l 1,14,-1
 82 321 l 1,15,-1
 252 321 l 1,16,-1
 20 732 l 1,17,-1
 101 732 l 1,18,-1
 290 394 l 1,19,-1
 496 732 l 1,20,-1
 580 732 l 1,21,-1
 328 321 l 1,22,-1
 509 321 l 1,0,-1
EndSplineSet
Substitution2: "'smcp' Lowercase to Small Capitals lookup 1 subtable" yen.smcp
EndChar

StartChar: brokenbar
Encoding: 166 166 103
Width: 246
GlyphClass: 2
Flags: W
LayerCount: 2
Fore
SplineSet
86 -72 m 1,0,-1
 86 256 l 1,1,-1
 160 256 l 1,2,-1
 160 -72 l 1,3,-1
 86 -72 l 1,0,-1
86 429 m 1,4,-1
 86 770 l 1,5,-1
 160 770 l 1,6,-1
 160 429 l 1,7,-1
 86 429 l 1,4,-1
EndSplineSet
EndChar

StartChar: section
Encoding: 167 167 104
Width: 552
GlyphClass: 2
Flags: W
LayerCount: 2
Fore
SplineSet
56 353 m 2,0,-1
 56 415 l 2,1,2
 56 494 56 494 100 508 c 1,3,4
 55 521 55 521 55 590 c 2,5,-1
 55 660 l 2,6,7
 55 727 55 727 92 755.5 c 128,-1,8
 129 784 129 784 185 784 c 0,9,10
 278 784 278 784 459 765 c 1,11,-1
 459 710 l 1,12,-1
 185 710 l 2,13,14
 157 710 157 710 143.5 699 c 128,-1,15
 130 688 130 688 129 660 c 1,16,-1
 129 590 l 2,17,18
 129 543 129 543 185 543 c 2,19,-1
 364 543 l 2,20,21
 443 543 443 543 470.5 511 c 128,-1,22
 498 479 498 479 497 416 c 1,23,-1
 497 354 l 2,24,25
 497 271 497 271 455 265 c 1,26,27
 496 259 496 259 496 183 c 2,28,-1
 496 110 l 2,29,30
 496 32 496 32 450 10 c 0,31,32
 414 -8 414 -8 343 -8 c 128,-1,33
 272 -8 272 -8 92 11 c 1,34,-1
 92 66 l 1,35,-1
 358 66 l 2,36,37
 389 66 389 66 405 74.5 c 128,-1,38
 421 83 421 83 422 110 c 1,39,-1
 422 183 l 2,40,41
 422 213 422 213 409.5 221.5 c 128,-1,42
 397 230 397 230 364 230 c 2,43,-1
 185 230 l 2,44,45
 119 230 119 230 87.5 255.5 c 128,-1,46
 56 281 56 281 56 353 c 2,0,-1
129 353 m 2,47,48
 129 322 129 322 141.5 313 c 128,-1,49
 154 304 154 304 185 304 c 2,50,-1
 364 304 l 2,51,52
 406 304 406 304 415 320 c 0,53,54
 422 331 422 331 422 354 c 2,55,-1
 422 416 l 2,56,57
 422 446 422 446 412.5 458 c 128,-1,58
 403 470 403 470 364 470 c 2,59,-1
 185 470 l 2,60,61
 151 470 151 470 140 460 c 128,-1,62
 129 450 129 450 129 414 c 2,63,-1
 129 353 l 2,47,48
EndSplineSet
EndChar

StartChar: dieresis
Encoding: 168 168 105
Width: 456
GlyphClass: 2
Flags: W
LayerCount: 2
Fore
SplineSet
50 582 m 128,-1,1
 50 603 50 603 65 617.5 c 128,-1,2
 80 632 80 632 101 632 c 128,-1,3
 122 632 122 632 136.5 617.5 c 128,-1,4
 151 603 151 603 151 582 c 128,-1,5
 151 561 151 561 136.5 546 c 128,-1,6
 122 531 122 531 101 531 c 128,-1,7
 80 531 80 531 65 546 c 128,-1,0
 50 561 50 561 50 582 c 128,-1,1
305 582 m 128,-1,9
 305 603 305 603 320 617.5 c 128,-1,10
 335 632 335 632 356 632 c 128,-1,11
 377 632 377 632 391.5 617.5 c 128,-1,12
 406 603 406 603 406 582 c 128,-1,13
 406 561 406 561 391.5 546 c 128,-1,14
 377 531 377 531 356 531 c 128,-1,15
 335 531 335 531 320 546 c 128,-1,8
 305 561 305 561 305 582 c 128,-1,9
EndSplineSet
Substitution2: "'smcp' Lowercase to Small Capitals lookup 1 subtable" dieresis.smcp
EndChar

StartChar: copyright
Encoding: 169 169 106
Width: 811
GlyphClass: 2
Flags: W
LayerCount: 2
Fore
SplineSet
55 368 m 0,0,1
 55 732 55 732 282 732 c 2,2,-1
 552 732 l 2,3,4
 666 732 666 732 714 628 c 0,5,6
 756 538 756 538 756 368 c 0,7,8
 756 215 756 215 711 112 c 0,9,10
 688 60 688 60 647.5 30 c 128,-1,11
 607 0 607 0 552 0 c 2,12,-1
 282 0 l 2,13,14
 229 0 229 0 188 26 c 128,-1,15
 147 52 147 52 122.5 91 c 128,-1,16
 98 130 98 130 82 181 c 0,17,18
 55 267 55 267 55 368 c 0,0,1
119 368 m 0,19,20
 119 248 119 248 161 156.5 c 128,-1,21
 203 65 203 65 282 64 c 1,22,-1
 552 64 l 1,23,24
 614 65 614 65 653 143 c 128,-1,25
 692 221 692 221 692 368 c 0,26,27
 692 528 692 528 658 598 c 0,28,29
 644 627 644 627 617 647.5 c 128,-1,30
 590 668 590 668 552 668 c 2,31,-1
 282 668 l 2,32,33
 206 668 206 668 162.5 602 c 128,-1,34
 119 536 119 536 119 368 c 0,19,20
269.5 194.5 m 128,-1,36
 231 242 231 242 231 360.5 c 128,-1,37
 231 479 231 479 270 531 c 128,-1,38
 309 583 309 583 375 583 c 0,39,40
 419 583 419 583 553 559 c 1,41,-1
 553 507 l 1,42,43
 469 519 469 519 375 519 c 0,44,45
 295 519 295 519 295 362 c 0,46,47
 295 290 295 290 312 250.5 c 128,-1,48
 329 211 329 211 375 211 c 0,49,50
 447 211 447 211 559 227 c 1,51,-1
 559 175 l 1,52,53
 459 147 459 147 375 147 c 0,54,35
 308 147 308 147 269.5 194.5 c 128,-1,36
EndSplineSet
EndChar

StartChar: ordfeminine
Encoding: 170 170 107
Width: 364
GlyphClass: 3
Flags: W
LayerCount: 2
Fore
SplineSet
30 268 m 1,0,-1
 30 326 l 1,1,-1
 334 326 l 1,2,-1
 334 268 l 1,3,-1
 30 268 l 1,0,-1
30 463 m 2,4,-1
 30 509 l 2,5,6
 30 550 30 550 57 574.5 c 128,-1,7
 84 599 84 599 130 599 c 0,8,9
 200 598 200 598 235 598 c 128,-1,10
 270 598 270 598 270 599 c 0,11,12
 270 614 270 614 270 622 c 128,-1,13
 270 630 270 630 270 631 c 0,14,15
 270 681 270 681 209 681 c 0,16,17
 171 681 171 681 120 678 c 128,-1,18
 69 675 69 675 42 674 c 1,19,-1
 42 716 l 1,20,21
 59 718 59 718 92 724 c 0,22,23
 166 739 166 739 217 739 c 0,24,25
 219 739 219 739 221 739 c 0,26,27
 268 739 268 739 300 713.5 c 128,-1,28
 332 688 332 688 332 636 c 2,29,-1
 332 378 l 1,30,-1
 292 378 l 1,31,-1
 271 427 l 1,32,-1
 262 422 l 1,33,34
 179 374 179 374 134 374 c 128,-1,35
 89 374 89 374 59.5 397.5 c 128,-1,36
 30 421 30 421 30 463 c 2,4,-1
92 476 m 2,37,38
 92 436 92 436 136 436 c 0,39,40
 190 436 190 436 250 460 c 2,41,-1
 270 468 l 1,42,-1
 270 554 l 1,43,-1
 136 544 l 2,44,45
 92 540 92 540 92 503 c 2,46,-1
 92 476 l 2,37,38
EndSplineSet
Substitution2: "'smcp' Lowercase to Small Capitals lookup 1 subtable" ordfeminine.smcp
Ligature2: "'ordn' Ordinals lookup 0 subtable" a
EndChar

StartChar: guillemotleft
Encoding: 171 171 108
Width: 549
GlyphClass: 2
Flags: W
LayerCount: 2
Fore
SplineSet
50 354 m 1,0,-1
 256 557 l 1,1,-1
 308 505 l 1,2,-1
 153 354 l 1,3,-1
 313 198 l 1,4,-1
 261 146 l 1,5,-1
 50 354 l 1,0,-1
236 354 m 1,6,-1
 442 557 l 1,7,-1
 494 505 l 1,8,-1
 339 354 l 1,9,-1
 499 198 l 1,10,-1
 447 146 l 1,11,-1
 236 354 l 1,6,-1
EndSplineSet
EndChar

StartChar: logicalnot
Encoding: 172 172 109
Width: 527
GlyphClass: 2
Flags: W
LayerCount: 2
Fore
SplineSet
50 256 m 1,0,-1
 50 330 l 1,1,-1
 477 330 l 1,2,-1
 477 159 l 1,3,-1
 403 159 l 1,4,-1
 403 256 l 1,5,-1
 50 256 l 1,0,-1
EndSplineSet
EndChar

StartChar: uni00AD
Encoding: 173 173 110
Width: 354
GlyphClass: 2
Flags: W
LayerCount: 2
Fore
SplineSet
20 253 m 1,0,-1
 20 327 l 1,1,-1
 334 327 l 1,2,-1
 334 253 l 1,3,-1
 20 253 l 1,0,-1
EndSplineSet
Substitution2: "'case' Case-Sensitive Forms lookup 18 subtable" uni00AD.alt
Substitution2: "'c2sc' Capitals to Small Capitals in Latin lookup 2 subtable" uni00AD.smcp
Substitution2: "'smcp' Lowercase to Small Capitals lookup 1 subtable" uni00AD.smcp
EndChar

StartChar: registered
Encoding: 174 174 111
Width: 811
GlyphClass: 2
Flags: W
LayerCount: 2
Fore
SplineSet
55 368 m 0,0,1
 55 732 55 732 282 732 c 2,2,-1
 552 732 l 2,3,4
 666 732 666 732 714 628 c 0,5,6
 756 538 756 538 756 368 c 0,7,8
 756 215 756 215 711 112 c 0,9,10
 688 60 688 60 647.5 30 c 128,-1,11
 607 0 607 0 552 0 c 2,12,-1
 282 0 l 2,13,14
 229 0 229 0 188 26 c 128,-1,15
 147 52 147 52 122.5 91 c 128,-1,16
 98 130 98 130 82 181 c 0,17,18
 55 267 55 267 55 368 c 0,0,1
119 368 m 0,19,20
 119 248 119 248 161 156.5 c 128,-1,21
 203 65 203 65 282 64 c 1,22,-1
 552 64 l 1,23,24
 614 65 614 65 653 143 c 128,-1,25
 692 221 692 221 692 368 c 0,26,27
 692 528 692 528 658 598 c 0,28,29
 644 627 644 627 617 647.5 c 128,-1,30
 590 668 590 668 552 668 c 2,31,-1
 282 668 l 2,32,33
 206 668 206 668 162.5 602 c 128,-1,34
 119 536 119 536 119 368 c 0,19,20
261 153 m 1,35,-1
 261 580 l 1,36,-1
 438 580 l 2,37,38
 572 580 572 580 572 452 c 0,39,40
 572 369 572 369 535 344 c 0,41,42
 516 332 516 332 506.5 328.5 c 128,-1,43
 497 325 497 325 476 321 c 1,44,-1
 567 153 l 1,45,-1
 495 153 l 1,46,-1
 404 323 l 1,47,-1
 325 335 l 1,48,-1
 325 153 l 1,49,-1
 261 153 l 1,35,-1
325 379 m 1,50,-1
 444 379 l 2,51,52
 483 379 483 379 495.5 393 c 128,-1,53
 508 407 508 407 508 440 c 128,-1,54
 508 473 508 473 502 487.5 c 128,-1,55
 496 502 496 502 485 508 c 0,56,57
 468 516 468 516 444 516 c 2,58,-1
 325 516 l 1,59,-1
 325 379 l 1,50,-1
EndSplineSet
EndChar

StartChar: macron
Encoding: 175 175 112
Width: 392
GlyphClass: 2
Flags: W
LayerCount: 2
Fore
SplineSet
50 531 m 1,0,-1
 50 594 l 1,1,-1
 342 594 l 1,2,-1
 342 531 l 1,3,-1
 50 531 l 1,0,-1
EndSplineSet
Substitution2: "'smcp' Lowercase to Small Capitals lookup 1 subtable" macron.smcp
EndChar

StartChar: degree
Encoding: 176 176 113
Width: 303
GlyphClass: 2
Flags: W
LayerCount: 2
Fore
SplineSet
50 632 m 128,-1,1
 50 675 50 675 80 705 c 128,-1,2
 110 735 110 735 152 735 c 128,-1,3
 194 735 194 735 223.5 705 c 128,-1,4
 253 675 253 675 253 632 c 128,-1,5
 253 589 253 589 223.5 559.5 c 128,-1,6
 194 530 194 530 152 530 c 128,-1,7
 110 530 110 530 80 559.5 c 128,-1,0
 50 589 50 589 50 632 c 128,-1,1
97 632 m 128,-1,9
 97 610 97 610 113 594 c 128,-1,10
 129 578 129 578 151.5 578 c 128,-1,11
 174 578 174 578 190 594 c 128,-1,12
 206 610 206 610 206 632.5 c 128,-1,13
 206 655 206 655 190 671 c 128,-1,14
 174 687 174 687 152 687 c 128,-1,15
 130 687 130 687 113.5 670.5 c 128,-1,8
 97 654 97 654 97 632 c 128,-1,9
EndSplineSet
Substitution2: "'smcp' Lowercase to Small Capitals lookup 1 subtable" degree.smcp
EndChar

StartChar: plusminus
Encoding: 177 177 114
Width: 527
GlyphClass: 2
Flags: W
LayerCount: 2
Fore
SplineSet
56 87 m 1,0,-1
 56 161 l 1,1,-1
 472 161 l 1,2,-1
 472 87 l 1,3,-1
 56 87 l 1,0,-1
56 387 m 1,4,-1
 56 461 l 1,5,-1
 226 461 l 1,6,-1
 226 632 l 1,7,-1
 300 632 l 1,8,-1
 300 461 l 1,9,-1
 472 461 l 1,10,-1
 472 387 l 1,11,-1
 300 387 l 1,12,-1
 300 216 l 1,13,-1
 226 216 l 1,14,-1
 226 387 l 1,15,-1
 56 387 l 1,4,-1
EndSplineSet
EndChar

StartChar: twosuperior
Encoding: 178 178 115
Width: 387
GlyphClass: 2
Flags: W
LayerCount: 2
Fore
SplineSet
32 826 m 2,0,1
 31 826 31 826 31 838 c 128,-1,2
 31 850 31 850 32 862 c 1,3,-1
 32 873 l 1,4,5
 156 888 156 888 215 888 c 0,6,7
 345 888 345 888 345 752 c 0,8,9
 345 717 345 717 327 677 c 128,-1,10
 309 637 309 637 289.5 609.5 c 128,-1,11
 270 582 270 582 234 546 c 128,-1,12
 198 510 198 510 186 500 c 128,-1,13
 174 490 174 490 148 468 c 1,14,-1
 344 468 l 1,15,-1
 344 406 l 1,16,-1
 35 406 l 1,17,-1
 35 464 l 1,18,19
 43 471 43 471 75.5 495.5 c 128,-1,20
 108 520 108 520 129 537 c 128,-1,21
 150 554 150 554 181.5 583.5 c 128,-1,22
 213 613 213 613 232 638 c 0,23,24
 280 699 280 699 280 744.5 c 128,-1,25
 280 790 280 790 263 808 c 128,-1,26
 246 826 246 826 204 826 c 2,27,-1
 32 826 l 2,0,1
EndSplineSet
EndChar

StartChar: threesuperior
Encoding: 179 179 116
Width: 406
GlyphClass: 2
Flags: W
LayerCount: 2
Fore
SplineSet
34 420 m 1,0,-1
 35 463 l 1,1,-1
 212 464 l 2,2,3
 252 464 252 464 268 478 c 128,-1,4
 284 492 284 492 284 525 c 2,5,-1
 284 548 l 2,6,7
 284 615 284 615 216 617 c 2,8,-1
 74 622 l 1,9,-1
 74 669 l 1,10,-1
 216 676 l 2,11,12
 285 679 285 679 285 740 c 2,13,-1
 285 762 l 2,14,15
 285 822 285 822 216 822 c 2,16,-1
 30 822 l 1,17,-1
 30 865 l 1,18,19
 84 883 84 883 154 883 c 0,20,21
 190 883 190 883 225 883 c 0,22,23
 286 883 286 883 316 849.5 c 128,-1,24
 346 816 346 816 346 766 c 2,25,-1
 346 731 l 2,26,27
 346 698 346 698 332 674.5 c 128,-1,28
 318 651 318 651 297 643 c 1,29,30
 346 612 346 612 346 549 c 2,31,-1
 346 521 l 2,32,33
 346 463 346 463 318 432.5 c 128,-1,34
 290 402 290 402 220 402 c 0,35,36
 186 402 186 402 137 402 c 128,-1,37
 88 402 88 402 34 420 c 1,0,-1
EndSplineSet
EndChar

StartChar: acute
Encoding: 180 180 117
Width: 242
GlyphClass: 2
Flags: W
LayerCount: 2
Fore
SplineSet
20 531 m 1,0,-1
 127 664 l 1,1,-1
 222 664 l 1,2,-1
 89 531 l 1,3,-1
 20 531 l 1,0,-1
EndSplineSet
Substitution2: "'smcp' Lowercase to Small Capitals lookup 1 subtable" acute.smcp
EndChar

StartChar: uni00B5
Encoding: 181 181 118
Width: 594
GlyphClass: 2
Flags: W
LayerCount: 2
Fore
SplineSet
90 -270 m 1,0,-1
 90 531 l 1,1,-1
 164 531 l 1,2,-1
 164 161 l 2,3,4
 164 114 164 114 189 89.5 c 128,-1,5
 214 65 214 65 253 65 c 128,-1,6
 292 65 292 65 326 73 c 128,-1,7
 360 81 360 81 380.5 89.5 c 128,-1,8
 401 98 401 98 450 122 c 1,9,-1
 450 531 l 1,10,-1
 524 531 l 1,11,-1
 524 0 l 1,12,-1
 472 0 l 1,13,-1
 450 62 l 1,14,15
 447 61 447 61 428 49.5 c 128,-1,16
 409 38 409 38 404.5 36 c 128,-1,17
 400 34 400 34 383 24.5 c 128,-1,18
 366 15 366 15 359 13 c 128,-1,19
 352 11 352 11 336 5 c 128,-1,20
 320 -1 320 -1 310 -3 c 0,21,22
 278 -9 278 -9 254 -9 c 0,23,24
 201 -9 201 -9 164 16 c 1,25,-1
 164 -270 l 1,26,-1
 90 -270 l 1,0,-1
EndSplineSet
EndChar

StartChar: paragraph
Encoding: 182 182 119
Width: 581
GlyphClass: 2
Flags: W
LayerCount: 2
Fore
SplineSet
40 499 m 2,0,-1
 40 592 l 2,1,2
 40 659 40 659 86.5 695.5 c 128,-1,3
 133 732 133 732 196 732 c 2,4,-1
 561 732 l 1,5,-1
 561 656 l 1,6,-1
 492 656 l 1,7,-1
 492 0 l 1,8,-1
 418 0 l 1,9,-1
 418 658 l 1,10,-1
 324 658 l 1,11,-1
 324 -270 l 1,12,-1
 250 -270 l 1,13,-1
 250 372 l 1,14,-1
 241 367 l 2,15,16
 219 355 219 355 196 355 c 0,17,18
 122 355 122 355 81 396 c 128,-1,19
 40 437 40 437 40 499 c 2,0,-1
114 501 m 2,20,21
 114 460 114 460 140 444.5 c 128,-1,22
 166 429 166 429 196 429 c 2,23,-1
 250 429 l 1,24,-1
 250 658 l 1,25,-1
 196 658 l 2,26,27
 152 658 152 658 133 637 c 128,-1,28
 114 616 114 616 114 590 c 2,29,-1
 114 501 l 2,20,21
EndSplineSet
EndChar

StartChar: periodcentered
Encoding: 183 183 120
Width: 272
GlyphClass: 2
Flags: W
LayerCount: 2
Fore
SplineSet
85 354 m 2,0,-1
 85 411 l 2,1,2
 85 436 85 436 109 436 c 2,3,-1
 162 436 l 2,4,5
 187 436 187 436 187 411 c 2,6,-1
 187 354 l 2,7,8
 187 331 187 331 162 331 c 2,9,-1
 109 331 l 2,10,11
 85 331 85 331 85 354 c 2,0,-1
EndSplineSet
Substitution2: "'smcp' Lowercase to Small Capitals lookup 1 subtable" periodcentered.smcp
EndChar

StartChar: cedilla
Encoding: 184 184 121
Width: 252
GlyphClass: 2
Flags: W
LayerCount: 2
Fore
SplineSet
135 -37 m 1,0,-1
 202 -37 l 1,1,2
 202 -115 202 -115 181 -144 c 128,-1,3
 160 -173 160 -173 101 -173 c 2,4,-1
 50 -173 l 1,5,-1
 50 -136 l 1,6,-1
 103 -121 l 1,7,8
 135 -107 135 -107 135 -37 c 1,0,-1
EndSplineSet
EndChar

StartChar: onesuperior
Encoding: 185 185 122
Width: 271
GlyphClass: 2
Flags: W
LayerCount: 2
Fore
SplineSet
206 882 m 1,0,-1
 206 406 l 1,1,-1
 144 406 l 1,2,-1
 144 813 l 1,3,-1
 16 778 l 1,4,-1
 16 827 l 1,5,-1
 144 882 l 1,6,-1
 206 882 l 1,0,-1
EndSplineSet
EndChar

StartChar: ordmasculine
Encoding: 186 186 123
Width: 390
GlyphClass: 3
Flags: W
LayerCount: 2
Fore
SplineSet
66 412.5 m 128,-1,1
 30 452 30 452 30 554.5 c 128,-1,2
 30 657 30 657 65.5 697 c 128,-1,3
 101 737 101 737 196 737 c 128,-1,4
 291 737 291 737 325.5 697 c 128,-1,5
 360 657 360 657 360 554.5 c 128,-1,6
 360 452 360 452 325 412.5 c 128,-1,7
 290 373 290 373 196 373 c 128,-1,0
 102 373 102 373 66 412.5 c 128,-1,1
41 271 m 1,8,-1
 41 329 l 1,9,-1
 348 329 l 1,10,-1
 348 271 l 1,11,-1
 41 271 l 1,8,-1
97.5 622 m 128,-1,13
 92 596 92 596 92 552.5 c 128,-1,14
 92 509 92 509 98.5 485 c 128,-1,15
 105 461 105 461 121.5 450.5 c 128,-1,16
 138 440 138 440 152.5 437.5 c 128,-1,17
 167 435 167 435 197 435 c 128,-1,18
 227 435 227 435 241 437 c 128,-1,19
 255 439 255 439 270.5 449.5 c 128,-1,20
 286 460 286 460 292 484 c 1,21,22
 298 513 298 513 298 556 c 128,-1,23
 298 599 298 599 293 623 c 128,-1,24
 288 647 288 647 272 658.5 c 128,-1,25
 256 670 256 670 241.5 672.5 c 128,-1,26
 227 675 227 675 195 675 c 128,-1,27
 163 675 163 675 149 673 c 128,-1,28
 135 671 135 671 119 659.5 c 128,-1,12
 103 648 103 648 97.5 622 c 128,-1,13
EndSplineSet
Substitution2: "'smcp' Lowercase to Small Capitals lookup 1 subtable" ordmasculine.smcp
Ligature2: "'ordn' Ordinals lookup 0 subtable" o
EndChar

StartChar: guillemotright
Encoding: 187 187 124
Width: 549
GlyphClass: 2
Flags: W
LayerCount: 2
Fore
SplineSet
50 198 m 1,0,-1
 210 354 l 1,1,-1
 55 505 l 1,2,-1
 107 557 l 1,3,-1
 313 354 l 1,4,-1
 102 146 l 1,5,-1
 50 198 l 1,0,-1
236 198 m 1,6,-1
 396 354 l 1,7,-1
 241 505 l 1,8,-1
 293 557 l 1,9,-1
 499 354 l 1,10,-1
 288 146 l 1,11,-1
 236 198 l 1,6,-1
EndSplineSet
EndChar

StartChar: onequarter
Encoding: 188 188 125
Width: 903
GlyphClass: 3
Flags: W
LayerCount: 2
Fore
SplineSet
206 732 m 1,0,-1
 206 256 l 1,1,-1
 144 256 l 1,2,-1
 144 663 l 1,3,-1
 16 628 l 1,4,-1
 16 677 l 1,5,-1
 144 732 l 1,6,-1
 206 732 l 1,0,-1
220 0 m 1,7,-1
 568 732 l 1,8,-1
 633 732 l 1,9,-1
 285 0 l 1,10,-1
 220 0 l 1,7,-1
761 184 m 1,11,-1
 761 305 l 1,12,-1
 789 353 l 1,13,-1
 823 353 l 1,14,-1
 823 184 l 1,15,-1
 882 184 l 1,16,-1
 882 132 l 1,17,-1
 823 119 l 1,18,-1
 823 -1 l 1,19,-1
 761 -1 l 1,20,-1
 761 119 l 1,21,-1
 518 119 l 1,22,-1
 496 143 l 1,23,-1
 705 474 l 1,24,-1
 776 474 l 1,25,-1
 595 184 l 1,26,-1
 761 184 l 1,11,-1
EndSplineSet
Ligature2: "'frac' Diagonal Fractions lookup 7 subtable" one slash four
Ligature2: "'frac' Diagonal Fractions lookup 7 subtable" one fraction four
EndChar

StartChar: onehalf
Encoding: 189 189 126
Width: 974
GlyphClass: 3
Flags: W
LayerCount: 2
Fore
SplineSet
206 732 m 1,0,-1
 206 256 l 1,1,-1
 144 256 l 1,2,-1
 144 663 l 1,3,-1
 16 628 l 1,4,-1
 16 677 l 1,5,-1
 144 732 l 1,6,-1
 206 732 l 1,0,-1
215 0 m 1,7,-1
 563 732 l 1,8,-1
 628 732 l 1,9,-1
 280 0 l 1,10,-1
 215 0 l 1,7,-1
620 420 m 2,11,12
 619 420 619 420 619 432 c 128,-1,13
 619 444 619 444 620 456 c 1,14,-1
 620 467 l 1,15,16
 744 482 744 482 803 482 c 0,17,18
 933 482 933 482 933 346 c 0,19,20
 933 311 933 311 915 271 c 128,-1,21
 897 231 897 231 877.5 203.5 c 128,-1,22
 858 176 858 176 822 140 c 128,-1,23
 786 104 786 104 774 94 c 128,-1,24
 762 84 762 84 736 62 c 1,25,-1
 932 62 l 1,26,-1
 932 0 l 1,27,-1
 623 0 l 1,28,-1
 623 58 l 1,29,30
 631 65 631 65 663.5 89.5 c 128,-1,31
 696 114 696 114 717 131 c 128,-1,32
 738 148 738 148 769.5 177.5 c 128,-1,33
 801 207 801 207 820 232 c 0,34,35
 868 293 868 293 868 338.5 c 128,-1,36
 868 384 868 384 851 402 c 128,-1,37
 834 420 834 420 792 420 c 2,38,-1
 620 420 l 2,11,12
EndSplineSet
Ligature2: "'frac' Diagonal Fractions lookup 7 subtable" one slash two
Ligature2: "'frac' Diagonal Fractions lookup 7 subtable" one fraction two
EndChar

StartChar: threequarters
Encoding: 190 190 127
Width: 1019
GlyphClass: 3
Flags: W
LayerCount: 2
Fore
SplineSet
34 270 m 1,0,-1
 35 313 l 1,1,-1
 212 314 l 2,2,3
 252 314 252 314 268 328 c 128,-1,4
 284 342 284 342 284 375 c 2,5,-1
 284 398 l 2,6,7
 284 465 284 465 216 467 c 2,8,-1
 74 472 l 1,9,-1
 74 519 l 1,10,-1
 216 526 l 2,11,12
 285 529 285 529 285 590 c 2,13,-1
 285 612 l 2,14,15
 285 672 285 672 216 672 c 2,16,-1
 30 672 l 1,17,-1
 30 715 l 1,18,19
 84 733 84 733 154 733 c 0,20,21
 190 733 190 733 225 733 c 0,22,23
 286 733 286 733 316 699.5 c 128,-1,24
 346 666 346 666 346 616 c 2,25,-1
 346 581 l 2,26,27
 346 548 346 548 332 524.5 c 128,-1,28
 318 501 318 501 297 493 c 1,29,30
 346 462 346 462 346 399 c 2,31,-1
 346 371 l 2,32,33
 346 313 346 313 318 282.5 c 128,-1,34
 290 252 290 252 220 252 c 0,35,36
 186 252 186 252 137 252 c 128,-1,37
 88 252 88 252 34 270 c 1,0,-1
319 0 m 1,38,-1
 667 732 l 1,39,-1
 732 732 l 1,40,-1
 384 0 l 1,41,-1
 319 0 l 1,38,-1
850 181 m 1,42,-1
 850 306 l 1,43,-1
 874 354 l 1,44,-1
 908 354 l 1,45,-1
 908 181 l 1,46,-1
 967 181 l 1,47,-1
 967 133 l 1,48,-1
 908 120 l 1,49,-1
 908 0 l 1,50,-1
 850 0 l 1,51,-1
 850 120 l 1,52,-1
 603 120 l 1,53,-1
 581 144 l 1,54,-1
 789 474 l 1,55,-1
 856 474 l 1,56,-1
 675 181 l 1,57,-1
 850 181 l 1,42,-1
EndSplineSet
Ligature2: "'frac' Diagonal Fractions lookup 7 subtable" three slash four
Ligature2: "'frac' Diagonal Fractions lookup 7 subtable" three fraction four
EndChar

StartChar: questiondown
Encoding: 191 191 128
Width: 543
GlyphClass: 2
Flags: W
LayerCount: 2
Fore
SplineSet
340 -268 m 2,0,-1
 271 -270 l 2,1,2
 250 -270 250 -270 244 -269 c 128,-1,3
 238 -268 238 -268 237 -268 c 0,4,5
 40 -268 40 -268 40 -80 c 2,6,-1
 40 22 l 1,7,8
 39 108 39 108 108 150 c 1,9,10
 158 179 158 179 226 179 c 0,11,12
 252 179 252 179 281 175 c 1,13,-1
 281 276 l 1,14,-1
 358 276 l 1,15,-1
 359 114 l 1,16,17
 312 115 312 115 276 115 c 128,-1,18
 240 115 240 115 210 114 c 128,-1,19
 180 113 180 113 155 84 c 128,-1,20
 130 55 130 55 127 15 c 1,21,22
 126 -65 126 -65 126 -85 c 0,23,24
 126 -130 126 -130 155.5 -162 c 128,-1,25
 185 -194 185 -194 243 -194 c 0,26,27
 246 -194 246 -194 250 -194 c 2,28,-1
 523 -193 l 2,29,30
 520 -193 520 -193 521 -219.5 c 128,-1,31
 522 -246 522 -246 521 -248 c 1,32,33
 471 -256 471 -256 444.5 -258.5 c 128,-1,34
 418 -261 418 -261 384.5 -264.5 c 128,-1,35
 351 -268 351 -268 340 -268 c 2,0,-1
270 445 m 2,36,37
 270 455 270 455 277.5 462.5 c 128,-1,38
 285 470 285 470 294 471 c 1,39,-1
 343 471 l 1,40,41
 367 469 367 469 367 448 c 2,42,-1
 367 394 l 1,43,44
 365 370 365 370 346 369 c 1,45,-1
 290 369 l 1,46,47
 272 375 272 375 270 394 c 1,48,-1
 270 445 l 2,36,37
EndSplineSet
Substitution2: "'case' Case-Sensitive Forms lookup 18 subtable" questiondown.alt
Substitution2: "'smcp' Lowercase to Small Capitals lookup 1 subtable" questiondown.smcp
EndChar

StartChar: Agrave
Encoding: 192 192 129
Width: 670
GlyphClass: 2
Flags: W
LayerCount: 2
Fore
SplineSet
184 930 m 1,0,-1
 278 930 l 1,1,-1
 386 797 l 1,2,-1
 316 797 l 1,3,-1
 184 930 l 1,0,-1
45 0 m 1,4,-1
 314 732 l 1,5,-1
 388 732 l 1,6,-1
 645 0 l 1,7,-1
 557 0 l 1,8,-1
 494 204 l 1,9,-1
 202 204 l 1,10,-1
 136 0 l 1,11,-1
 45 0 l 1,4,-1
229 278 m 1,12,-1
 468 278 l 1,13,-1
 350 619 l 1,14,-1
 229 278 l 1,12,-1
EndSplineSet
Substitution2: "'c2sc' Capitals to Small Capitals in Latin lookup 2 subtable" agrave.smcp
EndChar

StartChar: Aacute
Encoding: 193 193 130
Width: 670
GlyphClass: 2
Flags: W
LayerCount: 2
Fore
SplineSet
316 797 m 1,0,-1
 424 930 l 1,1,-1
 518 930 l 1,2,-1
 386 797 l 1,3,-1
 316 797 l 1,0,-1
45 0 m 1,4,-1
 314 732 l 1,5,-1
 388 732 l 1,6,-1
 645 0 l 1,7,-1
 557 0 l 1,8,-1
 494 204 l 1,9,-1
 202 204 l 1,10,-1
 136 0 l 1,11,-1
 45 0 l 1,4,-1
229 278 m 1,12,-1
 468 278 l 1,13,-1
 350 619 l 1,14,-1
 229 278 l 1,12,-1
EndSplineSet
Substitution2: "'c2sc' Capitals to Small Capitals in Latin lookup 2 subtable" aacute.smcp
EndChar

StartChar: Acircumflex
Encoding: 194 194 131
Width: 670
GlyphClass: 2
Flags: W
LayerCount: 2
Fore
SplineSet
205 797 m 1,0,-1
 322 927 l 1,1,-1
 393 927 l 1,2,-1
 497 797 l 1,3,-1
 426 797 l 1,4,-1
 355 868 l 1,5,-1
 277 797 l 1,6,-1
 205 797 l 1,0,-1
45 0 m 1,7,-1
 314 732 l 1,8,-1
 388 732 l 1,9,-1
 645 0 l 1,10,-1
 557 0 l 1,11,-1
 494 204 l 1,12,-1
 202 204 l 1,13,-1
 136 0 l 1,14,-1
 45 0 l 1,7,-1
229 278 m 1,15,-1
 468 278 l 1,16,-1
 350 619 l 1,17,-1
 229 278 l 1,15,-1
EndSplineSet
Substitution2: "'c2sc' Capitals to Small Capitals in Latin lookup 2 subtable" acircumflex.smcp
EndChar

StartChar: Atilde
Encoding: 195 195 132
Width: 670
GlyphClass: 2
Flags: W
LayerCount: 2
Fore
SplineSet
408 867 m 2,0,1
 431 867 431 867 498 903 c 1,2,-1
 520 861 l 1,3,4
 517 859 517 859 496 842 c 0,5,6
 442 798 442 798 409 798 c 0,7,8
 379 798 379 798 347 815 c 128,-1,9
 315 832 315 832 296.5 832 c 128,-1,10
 278 832 278 832 263.5 826.5 c 128,-1,11
 249 821 249 821 232.5 811.5 c 128,-1,12
 216 802 216 802 203 797 c 1,13,-1
 182 838 l 1,14,15
 209 860 209 860 222.5 870.5 c 128,-1,16
 236 881 236 881 258.5 891.5 c 128,-1,17
 281 902 281 902 304.5 901 c 128,-1,18
 328 900 328 900 361.5 883.5 c 128,-1,19
 395 867 395 867 401.5 867 c 128,-1,20
 408 867 408 867 408 867 c 2,0,1
45 0 m 1,21,-1
 314 732 l 1,22,-1
 388 732 l 1,23,-1
 645 0 l 1,24,-1
 557 0 l 1,25,-1
 494 204 l 1,26,-1
 202 204 l 1,27,-1
 136 0 l 1,28,-1
 45 0 l 1,21,-1
229 278 m 1,29,-1
 468 278 l 1,30,-1
 350 619 l 1,31,-1
 229 278 l 1,29,-1
EndSplineSet
Substitution2: "'c2sc' Capitals to Small Capitals in Latin lookup 2 subtable" atilde.smcp
EndChar

StartChar: Adieresis
Encoding: 196 196 133
Width: 670
GlyphClass: 2
Flags: W
LayerCount: 2
Fore
SplineSet
173 848 m 128,-1,1
 173 869 173 869 188 883.5 c 128,-1,2
 203 898 203 898 224 898 c 128,-1,3
 245 898 245 898 259.5 883.5 c 128,-1,4
 274 869 274 869 274 848 c 128,-1,5
 274 827 274 827 259.5 812 c 128,-1,6
 245 797 245 797 224 797 c 128,-1,7
 203 797 203 797 188 812 c 128,-1,0
 173 827 173 827 173 848 c 128,-1,1
428 848 m 128,-1,9
 428 869 428 869 443 883.5 c 128,-1,10
 458 898 458 898 479 898 c 128,-1,11
 500 898 500 898 514.5 883.5 c 128,-1,12
 529 869 529 869 529 848 c 128,-1,13
 529 827 529 827 514.5 812 c 128,-1,14
 500 797 500 797 479 797 c 128,-1,15
 458 797 458 797 443 812 c 128,-1,8
 428 827 428 827 428 848 c 128,-1,9
45 0 m 1,16,-1
 314 732 l 1,17,-1
 388 732 l 1,18,-1
 645 0 l 1,19,-1
 557 0 l 1,20,-1
 494 204 l 1,21,-1
 202 204 l 1,22,-1
 136 0 l 1,23,-1
 45 0 l 1,16,-1
229 278 m 1,24,-1
 468 278 l 1,25,-1
 350 619 l 1,26,-1
 229 278 l 1,24,-1
EndSplineSet
Substitution2: "'c2sc' Capitals to Small Capitals in Latin lookup 2 subtable" adieresis.smcp
EndChar

StartChar: Aring
Encoding: 197 197 134
Width: 670
GlyphClass: 2
Flags: W
LayerCount: 2
Fore
SplineSet
263.5 780.5 m 128,-1,1
 277 757 277 757 300.5 743.5 c 128,-1,2
 324 730 324 730 351.5 730 c 128,-1,3
 379 730 379 730 402.5 743.5 c 128,-1,4
 426 757 426 757 439 780.5 c 128,-1,5
 452 804 452 804 452 839.5 c 128,-1,6
 452 875 452 875 422.5 905 c 128,-1,7
 393 935 393 935 351 935 c 128,-1,8
 309 935 309 935 279.5 905 c 128,-1,9
 250 875 250 875 250 839.5 c 128,-1,0
 250 804 250 804 263.5 780.5 c 128,-1,1
296 832.5 m 128,-1,11
 296 855 296 855 312.5 871 c 128,-1,12
 329 887 329 887 351.5 887 c 128,-1,13
 374 887 374 887 390 871 c 128,-1,14
 406 855 406 855 406 832.5 c 128,-1,15
 406 810 406 810 390 794 c 128,-1,16
 374 778 374 778 351.5 778 c 128,-1,17
 329 778 329 778 312.5 794 c 128,-1,10
 296 810 296 810 296 832.5 c 128,-1,11
45 0 m 1,18,-1
 314 732 l 1,19,-1
 388 732 l 1,20,-1
 645 0 l 1,21,-1
 557 0 l 1,22,-1
 494 204 l 1,23,-1
 202 204 l 1,24,-1
 136 0 l 1,25,-1
 45 0 l 1,18,-1
229 278 m 1,26,-1
 468 278 l 1,27,-1
 350 619 l 1,28,-1
 229 278 l 1,26,-1
EndSplineSet
Substitution2: "'c2sc' Capitals to Small Capitals in Latin lookup 2 subtable" aring.smcp
EndChar

StartChar: AE
Encoding: 198 198 135
Width: 921
GlyphClass: 2
Flags: W
LayerCount: 2
Fore
SplineSet
512 733 m 2,0,-1
 556 732 l 1,1,-1
 876 716 l 1,2,-1
 876 657 l 1,3,-1
 556 657 l 2,4,5
 521 657 521 657 514 640 c 0,6,7
 508 627 508 627 506 604 c 1,8,-1
 506 397 l 1,9,-1
 836 387 l 1,10,-1
 836 328 l 1,11,-1
 506 318 l 1,12,-1
 506 121 l 2,13,14
 506 91 506 91 518 82.5 c 128,-1,15
 530 74 530 74 539 74 c 2,16,-1
 557 74 l 1,17,-1
 568 74 l 1,18,-1
 875 73 l 1,19,-1
 875 12 l 1,20,-1
 568 -5 l 2,21,22
 560 -5 560 -5 553 -5 c 0,23,24
 432 -5 432 -5 432 121 c 2,25,-1
 432 227 l 1,26,-1
 222 227 l 1,27,-1
 111 0 l 1,28,-1
 30 0 l 1,29,-1
 328 604 l 2,30,31
 354 657 354 657 372 674 c 128,-1,32
 390 691 390 691 400 701 c 128,-1,33
 410 711 410 711 425.5 716.5 c 128,-1,34
 441 722 441 722 450 726 c 128,-1,35
 459 730 459 730 476.5 731 c 128,-1,36
 494 732 494 732 499.5 732.5 c 128,-1,37
 505 733 505 733 512 733 c 2,0,-1
432 301 m 1,38,-1
 432 652 l 1,39,-1
 259 301 l 1,40,-1
 432 301 l 1,38,-1
EndSplineSet
EndChar

StartChar: Ccedilla
Encoding: 199 199 136
Width: 578
GlyphClass: 2
Flags: W
LayerCount: 2
Fore
SplineSet
303 -36 m 1,0,-1
 370 -36 l 1,1,2
 370 -114 370 -114 349 -143 c 128,-1,3
 328 -172 328 -172 269 -172 c 2,4,-1
 218 -172 l 1,5,-1
 218 -135 l 1,6,-1
 271 -120 l 1,7,8
 303 -106 303 -106 303 -36 c 1,0,-1
543 656 m 1,9,10
 363 666 363 666 298.5 666 c 128,-1,11
 234 666 234 666 198.5 641.5 c 128,-1,12
 163 617 163 617 146 552.5 c 128,-1,13
 129 488 129 488 129 366 c 0,14,15
 129 68 129 68 299 68 c 1,16,-1
 543 75 l 1,17,-1
 543 16 l 1,18,19
 425 -6 425 -6 299 -6 c 0,20,21
 55 -6 55 -6 55 368 c 0,22,23
 55 558 55 558 106.5 649 c 128,-1,24
 158 740 158 740 299 740 c 0,25,26
 408 740 408 740 543 715 c 1,27,-1
 543 656 l 1,9,10
EndSplineSet
Substitution2: "'c2sc' Capitals to Small Capitals in Latin lookup 2 subtable" ccedilla.smcp
EndChar

StartChar: Egrave
Encoding: 200 200 137
Width: 567
GlyphClass: 2
Flags: W
LayerCount: 2
Fore
SplineSet
176 925 m 1,0,-1
 271 925 l 1,1,-1
 378 792 l 1,2,-1
 309 792 l 1,3,-1
 176 925 l 1,0,-1
80 602 m 2,4,5
 80 671 80 671 114.5 701.5 c 128,-1,6
 149 732 149 732 200 732 c 0,7,8
 203 732 203 732 206 732 c 2,9,-1
 522 716 l 1,10,-1
 522 658 l 1,11,-1
 206 658 l 2,12,13
 182 658 182 658 169.5 648.5 c 128,-1,14
 157 639 157 639 155.5 629.5 c 128,-1,15
 154 620 154 620 154 602 c 2,16,-1
 154 402 l 1,17,-1
 482 392 l 1,18,-1
 482 333 l 1,19,-1
 154 323 l 1,20,-1
 154 123 l 2,21,22
 154 98 154 98 165 86 c 128,-1,23
 176 74 176 74 186 72.5 c 128,-1,24
 196 71 196 71 216 71 c 2,25,-1
 522 71 l 1,26,-1
 522 14 l 1,27,-1
 216 -3 l 2,28,29
 208 -3 208 -3 201 -3 c 0,30,31
 80 -3 80 -3 80 123 c 2,32,-1
 80 602 l 2,4,5
EndSplineSet
Substitution2: "'c2sc' Capitals to Small Capitals in Latin lookup 2 subtable" egrave.smcp
EndChar

StartChar: Eacute
Encoding: 201 201 138
Width: 567
GlyphClass: 2
Flags: W
LayerCount: 2
Fore
SplineSet
287 792 m 1,0,-1
 394 925 l 1,1,-1
 489 925 l 1,2,-1
 356 792 l 1,3,-1
 287 792 l 1,0,-1
80 602 m 2,4,5
 80 671 80 671 114.5 701.5 c 128,-1,6
 149 732 149 732 200 732 c 0,7,8
 203 732 203 732 206 732 c 2,9,-1
 522 716 l 1,10,-1
 522 658 l 1,11,-1
 206 658 l 2,12,13
 182 658 182 658 169.5 648.5 c 128,-1,14
 157 639 157 639 155.5 629.5 c 128,-1,15
 154 620 154 620 154 602 c 2,16,-1
 154 402 l 1,17,-1
 482 392 l 1,18,-1
 482 333 l 1,19,-1
 154 323 l 1,20,-1
 154 123 l 2,21,22
 154 98 154 98 165 86 c 128,-1,23
 176 74 176 74 186 72.5 c 128,-1,24
 196 71 196 71 216 71 c 2,25,-1
 522 71 l 1,26,-1
 522 14 l 1,27,-1
 216 -3 l 2,28,29
 208 -3 208 -3 201 -3 c 0,30,31
 80 -3 80 -3 80 123 c 2,32,-1
 80 602 l 2,4,5
EndSplineSet
Substitution2: "'c2sc' Capitals to Small Capitals in Latin lookup 2 subtable" eacute.smcp
EndChar

StartChar: Ecircumflex
Encoding: 202 202 139
Width: 567
GlyphClass: 2
Flags: W
LayerCount: 2
Fore
SplineSet
170 797 m 1,0,-1
 287 927 l 1,1,-1
 358 927 l 1,2,-1
 462 797 l 1,3,-1
 391 797 l 1,4,-1
 320 868 l 1,5,-1
 242 797 l 1,6,-1
 170 797 l 1,0,-1
80 602 m 2,7,8
 80 671 80 671 114.5 701.5 c 128,-1,9
 149 732 149 732 200 732 c 0,10,11
 203 732 203 732 206 732 c 2,12,-1
 522 716 l 1,13,-1
 522 658 l 1,14,-1
 206 658 l 2,15,16
 182 658 182 658 169.5 648.5 c 128,-1,17
 157 639 157 639 155.5 629.5 c 128,-1,18
 154 620 154 620 154 602 c 2,19,-1
 154 402 l 1,20,-1
 482 392 l 1,21,-1
 482 333 l 1,22,-1
 154 323 l 1,23,-1
 154 123 l 2,24,25
 154 98 154 98 165 86 c 128,-1,26
 176 74 176 74 186 72.5 c 128,-1,27
 196 71 196 71 216 71 c 2,28,-1
 522 71 l 1,29,-1
 522 14 l 1,30,-1
 216 -3 l 2,31,32
 208 -3 208 -3 201 -3 c 0,33,34
 80 -3 80 -3 80 123 c 2,35,-1
 80 602 l 2,7,8
EndSplineSet
Substitution2: "'c2sc' Capitals to Small Capitals in Latin lookup 2 subtable" ecircumflex.smcp
EndChar

StartChar: Edieresis
Encoding: 203 203 140
Width: 567
GlyphClass: 2
Flags: W
LayerCount: 2
Fore
SplineSet
139 843 m 128,-1,1
 139 864 139 864 154 878.5 c 128,-1,2
 169 893 169 893 190 893 c 128,-1,3
 211 893 211 893 225.5 878.5 c 128,-1,4
 240 864 240 864 240 843 c 128,-1,5
 240 822 240 822 225.5 807 c 128,-1,6
 211 792 211 792 190 792 c 128,-1,7
 169 792 169 792 154 807 c 128,-1,0
 139 822 139 822 139 843 c 128,-1,1
394 843 m 128,-1,9
 394 864 394 864 409 878.5 c 128,-1,10
 424 893 424 893 445 893 c 128,-1,11
 466 893 466 893 480.5 878.5 c 128,-1,12
 495 864 495 864 495 843 c 128,-1,13
 495 822 495 822 480.5 807 c 128,-1,14
 466 792 466 792 445 792 c 128,-1,15
 424 792 424 792 409 807 c 128,-1,8
 394 822 394 822 394 843 c 128,-1,9
80 602 m 2,16,17
 80 671 80 671 114.5 701.5 c 128,-1,18
 149 732 149 732 200 732 c 0,19,20
 203 732 203 732 206 732 c 2,21,-1
 522 716 l 1,22,-1
 522 658 l 1,23,-1
 206 658 l 2,24,25
 182 658 182 658 169.5 648.5 c 128,-1,26
 157 639 157 639 155.5 629.5 c 128,-1,27
 154 620 154 620 154 602 c 2,28,-1
 154 402 l 1,29,-1
 482 392 l 1,30,-1
 482 333 l 1,31,-1
 154 323 l 1,32,-1
 154 123 l 2,33,34
 154 98 154 98 165 86 c 128,-1,35
 176 74 176 74 186 72.5 c 128,-1,36
 196 71 196 71 216 71 c 2,37,-1
 522 71 l 1,38,-1
 522 14 l 1,39,-1
 216 -3 l 2,40,41
 208 -3 208 -3 201 -3 c 0,42,43
 80 -3 80 -3 80 123 c 2,44,-1
 80 602 l 2,16,17
EndSplineSet
Substitution2: "'c2sc' Capitals to Small Capitals in Latin lookup 2 subtable" edieresis.smcp
EndChar

StartChar: Igrave
Encoding: 204 204 141
Width: 214
GlyphClass: 2
Flags: W
LayerCount: 2
Fore
SplineSet
-50 930 m 1,0,-1
 44 930 l 1,1,-1
 152 797 l 1,2,-1
 82 797 l 1,3,-1
 -50 930 l 1,0,-1
80 0 m 1,4,-1
 80 732 l 1,5,-1
 154 732 l 1,6,-1
 154 0 l 1,7,-1
 80 0 l 1,4,-1
EndSplineSet
Substitution2: "'c2sc' Capitals to Small Capitals in Latin lookup 2 subtable" igrave.smcp
EndChar

StartChar: Iacute
Encoding: 205 205 142
Width: 214
GlyphClass: 2
Flags: W
LayerCount: 2
Fore
SplineSet
82 797 m 1,0,-1
 190 930 l 1,1,-1
 284 930 l 1,2,-1
 152 797 l 1,3,-1
 82 797 l 1,0,-1
80 0 m 1,4,-1
 80 732 l 1,5,-1
 154 732 l 1,6,-1
 154 0 l 1,7,-1
 80 0 l 1,4,-1
EndSplineSet
Substitution2: "'c2sc' Capitals to Small Capitals in Latin lookup 2 subtable" iacute.smcp
EndChar

StartChar: Icircumflex
Encoding: 206 206 143
Width: 214
GlyphClass: 2
Flags: W
LayerCount: 2
Fore
SplineSet
-29 797 m 1,0,-1
 88 927 l 1,1,-1
 159 927 l 1,2,-1
 263 797 l 1,3,-1
 192 797 l 1,4,-1
 121 868 l 1,5,-1
 43 797 l 1,6,-1
 -29 797 l 1,0,-1
80 0 m 1,7,-1
 80 732 l 1,8,-1
 154 732 l 1,9,-1
 154 0 l 1,10,-1
 80 0 l 1,7,-1
EndSplineSet
Substitution2: "'c2sc' Capitals to Small Capitals in Latin lookup 2 subtable" icircumflex.smcp
EndChar

StartChar: Idieresis
Encoding: 207 207 144
Width: 214
GlyphClass: 2
Flags: W
LayerCount: 2
Fore
SplineSet
-61 848 m 128,-1,1
 -61 869 -61 869 -46 883.5 c 128,-1,2
 -31 898 -31 898 -10 898 c 128,-1,3
 11 898 11 898 25.5 883.5 c 128,-1,4
 40 869 40 869 40 848 c 128,-1,5
 40 827 40 827 25.5 812 c 128,-1,6
 11 797 11 797 -10 797 c 128,-1,7
 -31 797 -31 797 -46 812 c 128,-1,0
 -61 827 -61 827 -61 848 c 128,-1,1
194 848 m 128,-1,9
 194 869 194 869 209 883.5 c 128,-1,10
 224 898 224 898 245 898 c 128,-1,11
 266 898 266 898 280.5 883.5 c 128,-1,12
 295 869 295 869 295 848 c 128,-1,13
 295 827 295 827 280.5 812 c 128,-1,14
 266 797 266 797 245 797 c 128,-1,15
 224 797 224 797 209 812 c 128,-1,8
 194 827 194 827 194 848 c 128,-1,9
80 0 m 1,16,-1
 80 732 l 1,17,-1
 154 732 l 1,18,-1
 154 0 l 1,19,-1
 80 0 l 1,16,-1
EndSplineSet
Substitution2: "'c2sc' Capitals to Small Capitals in Latin lookup 2 subtable" idieresis.smcp
EndChar

StartChar: Eth
Encoding: 208 208 145
Width: 657
GlyphClass: 2
Flags: W
LayerCount: 2
Fore
SplineSet
15 346 m 1,0,-1
 15 400 l 1,1,-1
 80 400 l 1,2,-1
 80 731 l 2,3,4
 80 732 80 732 353 732 c 0,5,6
 463 732 463 732 520 669 c 0,7,8
 578 606 578 606 595 525 c 0,9,10
 612 442 612 442 612 376.5 c 128,-1,11
 612 311 612 311 604 261.5 c 128,-1,12
 596 212 596 212 576.5 164 c 128,-1,13
 557 116 557 116 528 80 c 128,-1,14
 499 44 499 44 454 22 c 128,-1,15
 409 0 409 0 353 0 c 2,16,-1
 80 0 l 1,17,-1
 80 346 l 1,18,-1
 15 346 l 1,0,-1
154 77 m 1,19,-1
 353 77 l 2,20,21
 446 77 446 77 490.5 157.5 c 128,-1,22
 535 238 535 238 535 364 c 0,23,24
 535 653 535 653 353 653 c 2,25,-1
 154 652 l 1,26,-1
 154 400 l 1,27,-1
 293 400 l 1,28,-1
 293 346 l 1,29,-1
 154 346 l 1,30,-1
 154 77 l 1,19,-1
EndSplineSet
Substitution2: "'c2sc' Capitals to Small Capitals in Latin lookup 2 subtable" eth.smcp
EndChar

StartChar: Ntilde
Encoding: 209 209 146
Width: 680
GlyphClass: 2
Flags: W
LayerCount: 2
Fore
SplineSet
407 867 m 2,0,1
 430 867 430 867 497 903 c 1,2,-1
 519 861 l 1,3,4
 516 859 516 859 494 842 c 0,5,6
 441 798 441 798 408 798 c 0,7,8
 378 798 378 798 346 815 c 128,-1,9
 314 832 314 832 295.5 832 c 128,-1,10
 277 832 277 832 262.5 826.5 c 128,-1,11
 248 821 248 821 231.5 811.5 c 128,-1,12
 215 802 215 802 202 797 c 1,13,-1
 181 838 l 1,14,15
 208 860 208 860 221.5 870.5 c 128,-1,16
 235 881 235 881 257.5 891.5 c 128,-1,17
 280 902 280 902 303.5 901 c 128,-1,18
 327 900 327 900 360.5 883.5 c 128,-1,19
 394 867 394 867 400.5 867 c 128,-1,20
 407 867 407 867 407 867 c 2,0,1
80 0 m 1,21,-1
 80 732 l 1,22,-1
 156 732 l 1,23,-1
 546 138 l 1,24,-1
 546 732 l 1,25,-1
 620 732 l 1,26,-1
 620 0 l 1,27,-1
 546 0 l 1,28,-1
 155 594 l 1,29,-1
 155 0 l 1,30,-1
 80 0 l 1,21,-1
EndSplineSet
AlternateSubs2: "'salt' Stylistic Alternatives in Latin lookup 16 subtable" Ntilde.salt
Substitution2: "'c2sc' Capitals to Small Capitals in Latin lookup 2 subtable" ntilde.smcp
EndChar

StartChar: Ograve
Encoding: 210 210 147
Width: 676
GlyphClass: 2
Flags: W
LayerCount: 2
Fore
SplineSet
182 930 m 1,0,-1
 276 930 l 1,1,-1
 384 797 l 1,2,-1
 314 797 l 1,3,-1
 182 930 l 1,0,-1
73 218.5 m 128,-1,5
 65 279 65 279 65 362 c 128,-1,6
 65 445 65 445 74 507.5 c 128,-1,7
 83 570 83 570 102 611 c 128,-1,8
 121 652 121 652 143.5 677.5 c 128,-1,9
 166 703 166 703 201 716 c 0,10,11
 258 737 258 737 349 737 c 0,12,13
 480 737 480 737 533 697 c 0,14,15
 584 658 584 658 606 586 c 1,16,17
 631 498 631 498 631 382 c 128,-1,18
 631 266 631 266 618.5 199.5 c 128,-1,19
 606 133 606 133 584.5 93 c 128,-1,20
 563 53 563 53 525.5 31.5 c 128,-1,21
 488 10 488 10 448 3 c 128,-1,22
 408 -4 408 -4 353.5 -4 c 128,-1,23
 299 -4 299 -4 265 0 c 128,-1,24
 231 4 231 4 196 16.5 c 128,-1,25
 161 29 161 29 139 53.5 c 128,-1,26
 117 78 117 78 99 118 c 128,-1,4
 81 158 81 158 73 218.5 c 128,-1,5
142 450 m 128,-1,28
 139 410 139 410 139 337 c 128,-1,29
 139 264 139 264 148.5 207 c 128,-1,30
 158 150 158 150 185.5 119 c 128,-1,31
 213 88 213 88 249 79 c 128,-1,32
 285 70 285 70 342 70 c 128,-1,33
 399 70 399 70 431 76.5 c 128,-1,34
 463 83 463 83 489 100.5 c 128,-1,35
 515 118 515 118 529 151 c 0,36,37
 557 217 557 217 557 361 c 0,38,39
 557 518 557 518 533 572 c 0,40,41
 523 595 523 595 515 610 c 128,-1,42
 507 625 507 625 491 635.5 c 128,-1,43
 475 646 475 646 463.5 651.5 c 128,-1,44
 452 657 452 657 429.5 659.5 c 128,-1,45
 407 662 407 662 392 662.5 c 128,-1,46
 377 663 377 663 349 663 c 128,-1,47
 321 663 321 663 306.5 662.5 c 128,-1,48
 292 662 292 662 269.5 659.5 c 128,-1,49
 247 657 247 657 235 651.5 c 128,-1,50
 223 646 223 646 207 635.5 c 128,-1,51
 191 625 191 625 182.5 610 c 128,-1,52
 174 595 174 595 164 572.5 c 128,-1,53
 154 550 154 550 149.5 520 c 128,-1,27
 145 490 145 490 142 450 c 128,-1,28
EndSplineSet
Substitution2: "'c2sc' Capitals to Small Capitals in Latin lookup 2 subtable" ograve.smcp
EndChar

StartChar: Oacute
Encoding: 211 211 148
Width: 676
GlyphClass: 2
Flags: W
LayerCount: 2
Fore
SplineSet
314 797 m 1,0,-1
 422 930 l 1,1,-1
 516 930 l 1,2,-1
 384 797 l 1,3,-1
 314 797 l 1,0,-1
73 218.5 m 128,-1,5
 65 279 65 279 65 362 c 128,-1,6
 65 445 65 445 74 507.5 c 128,-1,7
 83 570 83 570 102 611 c 128,-1,8
 121 652 121 652 143.5 677.5 c 128,-1,9
 166 703 166 703 201 716 c 0,10,11
 258 737 258 737 349 737 c 0,12,13
 480 737 480 737 533 697 c 0,14,15
 584 658 584 658 606 586 c 1,16,17
 631 498 631 498 631 382 c 128,-1,18
 631 266 631 266 618.5 199.5 c 128,-1,19
 606 133 606 133 584.5 93 c 128,-1,20
 563 53 563 53 525.5 31.5 c 128,-1,21
 488 10 488 10 448 3 c 128,-1,22
 408 -4 408 -4 353.5 -4 c 128,-1,23
 299 -4 299 -4 265 0 c 128,-1,24
 231 4 231 4 196 16.5 c 128,-1,25
 161 29 161 29 139 53.5 c 128,-1,26
 117 78 117 78 99 118 c 128,-1,4
 81 158 81 158 73 218.5 c 128,-1,5
142 450 m 128,-1,28
 139 410 139 410 139 337 c 128,-1,29
 139 264 139 264 148.5 207 c 128,-1,30
 158 150 158 150 185.5 119 c 128,-1,31
 213 88 213 88 249 79 c 128,-1,32
 285 70 285 70 342 70 c 128,-1,33
 399 70 399 70 431 76.5 c 128,-1,34
 463 83 463 83 489 100.5 c 128,-1,35
 515 118 515 118 529 151 c 0,36,37
 557 217 557 217 557 361 c 0,38,39
 557 518 557 518 533 572 c 0,40,41
 523 595 523 595 515 610 c 128,-1,42
 507 625 507 625 491 635.5 c 128,-1,43
 475 646 475 646 463.5 651.5 c 128,-1,44
 452 657 452 657 429.5 659.5 c 128,-1,45
 407 662 407 662 392 662.5 c 128,-1,46
 377 663 377 663 349 663 c 128,-1,47
 321 663 321 663 306.5 662.5 c 128,-1,48
 292 662 292 662 269.5 659.5 c 128,-1,49
 247 657 247 657 235 651.5 c 128,-1,50
 223 646 223 646 207 635.5 c 128,-1,51
 191 625 191 625 182.5 610 c 128,-1,52
 174 595 174 595 164 572.5 c 128,-1,53
 154 550 154 550 149.5 520 c 128,-1,27
 145 490 145 490 142 450 c 128,-1,28
EndSplineSet
Substitution2: "'c2sc' Capitals to Small Capitals in Latin lookup 2 subtable" oacute.smcp
EndChar

StartChar: Ocircumflex
Encoding: 212 212 149
Width: 676
GlyphClass: 2
Flags: W
LayerCount: 2
Fore
SplineSet
203 797 m 1,0,-1
 320 927 l 1,1,-1
 391 927 l 1,2,-1
 495 797 l 1,3,-1
 424 797 l 1,4,-1
 353 868 l 1,5,-1
 275 797 l 1,6,-1
 203 797 l 1,0,-1
73 218.5 m 128,-1,8
 65 279 65 279 65 362 c 128,-1,9
 65 445 65 445 74 507.5 c 128,-1,10
 83 570 83 570 102 611 c 128,-1,11
 121 652 121 652 143.5 677.5 c 128,-1,12
 166 703 166 703 201 716 c 0,13,14
 258 737 258 737 349 737 c 0,15,16
 480 737 480 737 533 697 c 0,17,18
 584 658 584 658 606 586 c 1,19,20
 631 498 631 498 631 382 c 128,-1,21
 631 266 631 266 618.5 199.5 c 128,-1,22
 606 133 606 133 584.5 93 c 128,-1,23
 563 53 563 53 525.5 31.5 c 128,-1,24
 488 10 488 10 448 3 c 128,-1,25
 408 -4 408 -4 353.5 -4 c 128,-1,26
 299 -4 299 -4 265 0 c 128,-1,27
 231 4 231 4 196 16.5 c 128,-1,28
 161 29 161 29 139 53.5 c 128,-1,29
 117 78 117 78 99 118 c 128,-1,7
 81 158 81 158 73 218.5 c 128,-1,8
142 450 m 128,-1,31
 139 410 139 410 139 337 c 128,-1,32
 139 264 139 264 148.5 207 c 128,-1,33
 158 150 158 150 185.5 119 c 128,-1,34
 213 88 213 88 249 79 c 128,-1,35
 285 70 285 70 342 70 c 128,-1,36
 399 70 399 70 431 76.5 c 128,-1,37
 463 83 463 83 489 100.5 c 128,-1,38
 515 118 515 118 529 151 c 0,39,40
 557 217 557 217 557 361 c 0,41,42
 557 518 557 518 533 572 c 0,43,44
 523 595 523 595 515 610 c 128,-1,45
 507 625 507 625 491 635.5 c 128,-1,46
 475 646 475 646 463.5 651.5 c 128,-1,47
 452 657 452 657 429.5 659.5 c 128,-1,48
 407 662 407 662 392 662.5 c 128,-1,49
 377 663 377 663 349 663 c 128,-1,50
 321 663 321 663 306.5 662.5 c 128,-1,51
 292 662 292 662 269.5 659.5 c 128,-1,52
 247 657 247 657 235 651.5 c 128,-1,53
 223 646 223 646 207 635.5 c 128,-1,54
 191 625 191 625 182.5 610 c 128,-1,55
 174 595 174 595 164 572.5 c 128,-1,56
 154 550 154 550 149.5 520 c 128,-1,30
 145 490 145 490 142 450 c 128,-1,31
EndSplineSet
Substitution2: "'c2sc' Capitals to Small Capitals in Latin lookup 2 subtable" ocircumflex.smcp
EndChar

StartChar: Otilde
Encoding: 213 213 150
Width: 676
GlyphClass: 2
Flags: W
LayerCount: 2
Fore
SplineSet
406 867 m 2,0,1
 429 867 429 867 496 903 c 1,2,-1
 518 861 l 1,3,4
 515 859 515 859 494 842 c 0,5,6
 440 798 440 798 407 798 c 0,7,8
 377 798 377 798 345 815 c 128,-1,9
 313 832 313 832 294.5 832 c 128,-1,10
 276 832 276 832 261.5 826.5 c 128,-1,11
 247 821 247 821 230.5 811.5 c 128,-1,12
 214 802 214 802 201 797 c 1,13,-1
 180 838 l 1,14,15
 207 860 207 860 220.5 870.5 c 128,-1,16
 234 881 234 881 256.5 891.5 c 128,-1,17
 279 902 279 902 302.5 901 c 128,-1,18
 326 900 326 900 359.5 883.5 c 128,-1,19
 393 867 393 867 399.5 867 c 128,-1,20
 406 867 406 867 406 867 c 2,0,1
73 218.5 m 128,-1,22
 65 279 65 279 65 362 c 128,-1,23
 65 445 65 445 74 507.5 c 128,-1,24
 83 570 83 570 102 611 c 128,-1,25
 121 652 121 652 143.5 677.5 c 128,-1,26
 166 703 166 703 201 716 c 0,27,28
 258 737 258 737 349 737 c 0,29,30
 480 737 480 737 533 697 c 0,31,32
 584 658 584 658 606 586 c 1,33,34
 631 498 631 498 631 382 c 128,-1,35
 631 266 631 266 618.5 199.5 c 128,-1,36
 606 133 606 133 584.5 93 c 128,-1,37
 563 53 563 53 525.5 31.5 c 128,-1,38
 488 10 488 10 448 3 c 128,-1,39
 408 -4 408 -4 353.5 -4 c 128,-1,40
 299 -4 299 -4 265 0 c 128,-1,41
 231 4 231 4 196 16.5 c 128,-1,42
 161 29 161 29 139 53.5 c 128,-1,43
 117 78 117 78 99 118 c 128,-1,21
 81 158 81 158 73 218.5 c 128,-1,22
142 450 m 128,-1,45
 139 410 139 410 139 337 c 128,-1,46
 139 264 139 264 148.5 207 c 128,-1,47
 158 150 158 150 185.5 119 c 128,-1,48
 213 88 213 88 249 79 c 128,-1,49
 285 70 285 70 342 70 c 128,-1,50
 399 70 399 70 431 76.5 c 128,-1,51
 463 83 463 83 489 100.5 c 128,-1,52
 515 118 515 118 529 151 c 0,53,54
 557 217 557 217 557 361 c 0,55,56
 557 518 557 518 533 572 c 0,57,58
 523 595 523 595 515 610 c 128,-1,59
 507 625 507 625 491 635.5 c 128,-1,60
 475 646 475 646 463.5 651.5 c 128,-1,61
 452 657 452 657 429.5 659.5 c 128,-1,62
 407 662 407 662 392 662.5 c 128,-1,63
 377 663 377 663 349 663 c 128,-1,64
 321 663 321 663 306.5 662.5 c 128,-1,65
 292 662 292 662 269.5 659.5 c 128,-1,66
 247 657 247 657 235 651.5 c 128,-1,67
 223 646 223 646 207 635.5 c 128,-1,68
 191 625 191 625 182.5 610 c 128,-1,69
 174 595 174 595 164 572.5 c 128,-1,70
 154 550 154 550 149.5 520 c 128,-1,44
 145 490 145 490 142 450 c 128,-1,45
EndSplineSet
Substitution2: "'c2sc' Capitals to Small Capitals in Latin lookup 2 subtable" otilde.smcp
EndChar

StartChar: Odieresis
Encoding: 214 214 151
Width: 676
GlyphClass: 2
Flags: W
LayerCount: 2
Fore
SplineSet
171 848 m 128,-1,1
 171 869 171 869 186 883.5 c 128,-1,2
 201 898 201 898 222 898 c 128,-1,3
 243 898 243 898 257.5 883.5 c 128,-1,4
 272 869 272 869 272 848 c 128,-1,5
 272 827 272 827 257.5 812 c 128,-1,6
 243 797 243 797 222 797 c 128,-1,7
 201 797 201 797 186 812 c 128,-1,0
 171 827 171 827 171 848 c 128,-1,1
426 848 m 128,-1,9
 426 869 426 869 441 883.5 c 128,-1,10
 456 898 456 898 477 898 c 128,-1,11
 498 898 498 898 512.5 883.5 c 128,-1,12
 527 869 527 869 527 848 c 128,-1,13
 527 827 527 827 512.5 812 c 128,-1,14
 498 797 498 797 477 797 c 128,-1,15
 456 797 456 797 441 812 c 128,-1,8
 426 827 426 827 426 848 c 128,-1,9
73 218.5 m 128,-1,17
 65 279 65 279 65 362 c 128,-1,18
 65 445 65 445 74 507.5 c 128,-1,19
 83 570 83 570 102 611 c 128,-1,20
 121 652 121 652 143.5 677.5 c 128,-1,21
 166 703 166 703 201 716 c 0,22,23
 258 737 258 737 349 737 c 0,24,25
 480 737 480 737 533 697 c 0,26,27
 584 658 584 658 606 586 c 1,28,29
 631 498 631 498 631 382 c 128,-1,30
 631 266 631 266 618.5 199.5 c 128,-1,31
 606 133 606 133 584.5 93 c 128,-1,32
 563 53 563 53 525.5 31.5 c 128,-1,33
 488 10 488 10 448 3 c 128,-1,34
 408 -4 408 -4 353.5 -4 c 128,-1,35
 299 -4 299 -4 265 0 c 128,-1,36
 231 4 231 4 196 16.5 c 128,-1,37
 161 29 161 29 139 53.5 c 128,-1,38
 117 78 117 78 99 118 c 128,-1,16
 81 158 81 158 73 218.5 c 128,-1,17
142 450 m 128,-1,40
 139 410 139 410 139 337 c 128,-1,41
 139 264 139 264 148.5 207 c 128,-1,42
 158 150 158 150 185.5 119 c 128,-1,43
 213 88 213 88 249 79 c 128,-1,44
 285 70 285 70 342 70 c 128,-1,45
 399 70 399 70 431 76.5 c 128,-1,46
 463 83 463 83 489 100.5 c 128,-1,47
 515 118 515 118 529 151 c 0,48,49
 557 217 557 217 557 361 c 0,50,51
 557 518 557 518 533 572 c 0,52,53
 523 595 523 595 515 610 c 128,-1,54
 507 625 507 625 491 635.5 c 128,-1,55
 475 646 475 646 463.5 651.5 c 128,-1,56
 452 657 452 657 429.5 659.5 c 128,-1,57
 407 662 407 662 392 662.5 c 128,-1,58
 377 663 377 663 349 663 c 128,-1,59
 321 663 321 663 306.5 662.5 c 128,-1,60
 292 662 292 662 269.5 659.5 c 128,-1,61
 247 657 247 657 235 651.5 c 128,-1,62
 223 646 223 646 207 635.5 c 128,-1,63
 191 625 191 625 182.5 610 c 128,-1,64
 174 595 174 595 164 572.5 c 128,-1,65
 154 550 154 550 149.5 520 c 128,-1,39
 145 490 145 490 142 450 c 128,-1,40
EndSplineSet
Substitution2: "'c2sc' Capitals to Small Capitals in Latin lookup 2 subtable" odieresis.smcp
EndChar

StartChar: multiply
Encoding: 215 215 152
Width: 458
GlyphClass: 2
Flags: W
LayerCount: 2
Fore
SplineSet
56 235 m 1,0,-1
 177 355 l 1,1,-1
 56 476 l 1,2,-1
 108 529 l 1,3,-1
 229 408 l 1,4,-1
 351 529 l 1,5,-1
 403 477 l 1,6,-1
 281 355 l 1,7,-1
 402 235 l 1,8,-1
 350 182 l 1,9,-1
 229 303 l 1,10,-1
 109 183 l 1,11,-1
 56 235 l 1,0,-1
EndSplineSet
EndChar

StartChar: Oslash
Encoding: 216 216 153
Width: 676
GlyphClass: 2
Flags: W
LayerCount: 2
Fore
SplineSet
114 642 m 0,0,1
 136 682 136 682 175 703.5 c 128,-1,2
 214 725 214 725 252 731 c 128,-1,3
 290 737 290 737 348 737 c 0,4,5
 474 737 474 737 528 700 c 1,6,-1
 549 732 l 1,7,-1
 610 732 l 1,8,-1
 566 664 l 1,9,10
 631 580 631 580 631 361 c 0,11,12
 631 181 631 181 584 93 c 0,13,14
 562 53 562 53 524.5 31.5 c 128,-1,15
 487 10 487 10 447 3 c 128,-1,16
 407 -4 407 -4 348 -4 c 0,17,18
 218 -4 218 -4 162 34 c 1,19,-1
 140 0 l 1,20,-1
 79 0 l 1,21,-1
 124 71 l 1,22,23
 65 151 65 151 65 350.5 c 128,-1,24
 65 550 65 550 114 642 c 0,0,1
170 142 m 1,25,-1
 488 638 l 1,26,27
 460 659 460 659 405 662 c 0,28,29
 386 663 386 663 349 663 c 128,-1,30
 312 663 312 663 294 662 c 128,-1,31
 276 661 276 661 249 655.5 c 128,-1,32
 222 650 222 650 209 638.5 c 128,-1,33
 196 627 196 627 180 605.5 c 128,-1,34
 164 584 164 584 156 552 c 0,35,36
 139 476 139 476 139 339.5 c 128,-1,37
 139 203 139 203 170 142 c 1,25,-1
348 70 m 0,38,39
 411 70 411 70 447.5 80.5 c 128,-1,40
 484 91 484 91 510.5 122.5 c 128,-1,41
 537 154 537 154 547 210.5 c 128,-1,42
 557 267 557 267 557 361 c 0,43,44
 557 531 557 531 523 596 c 1,45,-1
 204 100 l 1,46,47
 245 70 245 70 348 70 c 0,38,39
EndSplineSet
Substitution2: "'c2sc' Capitals to Small Capitals in Latin lookup 2 subtable" oslash.smcp
EndChar

StartChar: Ugrave
Encoding: 217 217 154
Width: 677
GlyphClass: 2
Flags: W
LayerCount: 2
Fore
SplineSet
181 930 m 1,0,-1
 276 930 l 1,1,-1
 383 797 l 1,2,-1
 314 797 l 1,3,-1
 181 930 l 1,0,-1
80 320 m 2,4,-1
 80 732 l 1,5,-1
 154 732 l 1,6,-1
 154 320 l 2,7,8
 154 229 154 229 165.5 175.5 c 128,-1,9
 177 122 177 122 208 100 c 128,-1,10
 239 78 239 78 264 73.5 c 128,-1,11
 289 69 289 69 318 69 c 2,12,13
 318 69 318 69 351 69 c 0,14,15
 422 69 422 69 439 76 c 128,-1,16
 456 83 456 83 471 91.5 c 128,-1,17
 486 100 486 100 495 112.5 c 128,-1,18
 504 125 504 125 514 144 c 128,-1,19
 524 163 524 163 530 188 c 0,20,21
 542 243 542 243 542 320 c 2,22,-1
 542 732 l 1,23,-1
 617 732 l 1,24,-1
 617 320 l 2,25,26
 617 227 617 227 599.5 162.5 c 128,-1,27
 582 98 582 98 559.5 66 c 128,-1,28
 537 34 537 34 495.5 17 c 128,-1,29
 454 0 454 0 427 -2.5 c 128,-1,30
 400 -5 400 -5 374 -5 c 128,-1,31
 348 -5 348 -5 331.5 -5 c 128,-1,32
 315 -5 315 -5 301.5 -4.5 c 128,-1,33
 288 -4 288 -4 263.5 -2.5 c 128,-1,34
 239 -1 239 -1 226 3.5 c 128,-1,35
 213 8 213 8 192.5 15.5 c 128,-1,36
 172 23 172 23 160.5 35.5 c 128,-1,37
 149 48 149 48 134 65 c 128,-1,38
 119 82 119 82 111 106.5 c 128,-1,39
 103 131 103 131 95 162 c 0,40,41
 80 219 80 219 80 320 c 2,4,-1
EndSplineSet
Substitution2: "'c2sc' Capitals to Small Capitals in Latin lookup 2 subtable" ugrave.smcp
EndChar

StartChar: Uacute
Encoding: 218 218 155
Width: 677
GlyphClass: 2
Flags: W
LayerCount: 2
Fore
SplineSet
314 797 m 1,0,-1
 421 930 l 1,1,-1
 516 930 l 1,2,-1
 383 797 l 1,3,-1
 314 797 l 1,0,-1
80 320 m 2,4,-1
 80 732 l 1,5,-1
 154 732 l 1,6,-1
 154 320 l 2,7,8
 154 229 154 229 165.5 175.5 c 128,-1,9
 177 122 177 122 208 100 c 128,-1,10
 239 78 239 78 264 73.5 c 128,-1,11
 289 69 289 69 318 69 c 2,12,13
 318 69 318 69 351 69 c 0,14,15
 422 69 422 69 439 76 c 128,-1,16
 456 83 456 83 471 91.5 c 128,-1,17
 486 100 486 100 495 112.5 c 128,-1,18
 504 125 504 125 514 144 c 128,-1,19
 524 163 524 163 530 188 c 0,20,21
 542 243 542 243 542 320 c 2,22,-1
 542 732 l 1,23,-1
 617 732 l 1,24,-1
 617 320 l 2,25,26
 617 227 617 227 599.5 162.5 c 128,-1,27
 582 98 582 98 559.5 66 c 128,-1,28
 537 34 537 34 495.5 17 c 128,-1,29
 454 0 454 0 427 -2.5 c 128,-1,30
 400 -5 400 -5 374 -5 c 128,-1,31
 348 -5 348 -5 331.5 -5 c 128,-1,32
 315 -5 315 -5 301.5 -4.5 c 128,-1,33
 288 -4 288 -4 263.5 -2.5 c 128,-1,34
 239 -1 239 -1 226 3.5 c 128,-1,35
 213 8 213 8 192.5 15.5 c 128,-1,36
 172 23 172 23 160.5 35.5 c 128,-1,37
 149 48 149 48 134 65 c 128,-1,38
 119 82 119 82 111 106.5 c 128,-1,39
 103 131 103 131 95 162 c 0,40,41
 80 219 80 219 80 320 c 2,4,-1
EndSplineSet
Substitution2: "'c2sc' Capitals to Small Capitals in Latin lookup 2 subtable" uacute.smcp
EndChar

StartChar: Ucircumflex
Encoding: 219 219 156
Width: 677
GlyphClass: 2
Flags: W
LayerCount: 2
Fore
SplineSet
202 797 m 1,0,-1
 320 927 l 1,1,-1
 390 927 l 1,2,-1
 494 797 l 1,3,-1
 424 797 l 1,4,-1
 352 868 l 1,5,-1
 274 797 l 1,6,-1
 202 797 l 1,0,-1
80 320 m 2,7,-1
 80 732 l 1,8,-1
 154 732 l 1,9,-1
 154 320 l 2,10,11
 154 229 154 229 165.5 175.5 c 128,-1,12
 177 122 177 122 208 100 c 128,-1,13
 239 78 239 78 264 73.5 c 128,-1,14
 289 69 289 69 318 69 c 2,15,16
 318 69 318 69 351 69 c 0,17,18
 422 69 422 69 439 76 c 128,-1,19
 456 83 456 83 471 91.5 c 128,-1,20
 486 100 486 100 495 112.5 c 128,-1,21
 504 125 504 125 514 144 c 128,-1,22
 524 163 524 163 530 188 c 0,23,24
 542 243 542 243 542 320 c 2,25,-1
 542 732 l 1,26,-1
 617 732 l 1,27,-1
 617 320 l 2,28,29
 617 227 617 227 599.5 162.5 c 128,-1,30
 582 98 582 98 559.5 66 c 128,-1,31
 537 34 537 34 495.5 17 c 128,-1,32
 454 0 454 0 427 -2.5 c 128,-1,33
 400 -5 400 -5 374 -5 c 128,-1,34
 348 -5 348 -5 331.5 -5 c 128,-1,35
 315 -5 315 -5 301.5 -4.5 c 128,-1,36
 288 -4 288 -4 263.5 -2.5 c 128,-1,37
 239 -1 239 -1 226 3.5 c 128,-1,38
 213 8 213 8 192.5 15.5 c 128,-1,39
 172 23 172 23 160.5 35.5 c 128,-1,40
 149 48 149 48 134 65 c 128,-1,41
 119 82 119 82 111 106.5 c 128,-1,42
 103 131 103 131 95 162 c 0,43,44
 80 219 80 219 80 320 c 2,7,-1
EndSplineSet
Substitution2: "'c2sc' Capitals to Small Capitals in Latin lookup 2 subtable" ucircumflex.smcp
EndChar

StartChar: Udieresis
Encoding: 220 220 157
Width: 677
GlyphClass: 2
Flags: W
LayerCount: 2
Fore
SplineSet
185 812 m 128,-1,1
 170 827 170 827 170 842.5 c 128,-1,2
 170 858 170 858 174.5 867.5 c 128,-1,3
 179 877 179 877 185 884 c 1,4,5
 200 898 200 898 221 898 c 128,-1,6
 242 898 242 898 257 883.5 c 128,-1,7
 272 869 272 869 272 848 c 128,-1,8
 272 827 272 827 257 812 c 128,-1,9
 242 797 242 797 221 797 c 128,-1,0
 200 797 200 797 185 812 c 128,-1,1
426 848 m 128,-1,11
 426 869 426 869 440.5 883.5 c 128,-1,12
 455 898 455 898 476.5 898 c 128,-1,13
 498 898 498 898 512 883.5 c 128,-1,14
 526 869 526 869 526 848 c 128,-1,15
 526 827 526 827 511.5 812 c 128,-1,16
 497 797 497 797 476.5 797 c 128,-1,17
 456 797 456 797 441 812 c 128,-1,10
 426 827 426 827 426 848 c 128,-1,11
80 320 m 2,18,-1
 80 732 l 1,19,-1
 154 732 l 1,20,-1
 154 320 l 2,21,22
 154 229 154 229 165.5 175.5 c 128,-1,23
 177 122 177 122 208 100 c 128,-1,24
 239 78 239 78 264 73.5 c 128,-1,25
 289 69 289 69 318 69 c 2,26,-1
 351 69 l 2,27,28
 422 69 422 69 439 76 c 128,-1,29
 456 83 456 83 471 91.5 c 128,-1,30
 486 100 486 100 495 112.5 c 128,-1,31
 504 125 504 125 514 144 c 128,-1,32
 524 163 524 163 530 188 c 0,33,34
 542 243 542 243 542 320 c 2,35,-1
 542 732 l 1,36,-1
 617 732 l 1,37,-1
 617 320 l 2,38,39
 617 227 617 227 599.5 162.5 c 128,-1,40
 582 98 582 98 559.5 66 c 128,-1,41
 537 34 537 34 495.5 17 c 128,-1,42
 454 0 454 0 427 -2.5 c 128,-1,43
 400 -5 400 -5 374 -5 c 128,-1,44
 348 -5 348 -5 331.5 -5 c 128,-1,45
 315 -5 315 -5 301.5 -4.5 c 128,-1,46
 288 -4 288 -4 263.5 -2.5 c 128,-1,47
 239 -1 239 -1 226 3.5 c 128,-1,48
 213 8 213 8 192.5 15.5 c 128,-1,49
 172 23 172 23 160.5 35.5 c 128,-1,50
 149 48 149 48 134 65 c 128,-1,51
 119 82 119 82 111 106.5 c 128,-1,52
 103 131 103 131 95 162 c 0,53,54
 80 219 80 219 80 320 c 2,18,-1
EndSplineSet
Substitution2: "'c2sc' Capitals to Small Capitals in Latin lookup 2 subtable" udieresis.smcp
EndChar

StartChar: Yacute
Encoding: 221 221 158
Width: 630
GlyphClass: 2
Flags: W
LayerCount: 2
Fore
SplineSet
290 797 m 1,0,-1
 398 930 l 1,1,-1
 492 930 l 1,2,-1
 360 797 l 1,3,-1
 290 797 l 1,0,-1
352 0 m 1,4,-1
 278 0 l 1,5,-1
 278 260 l 1,6,-1
 45 732 l 1,7,-1
 126 732 l 1,8,-1
 315 348 l 1,9,-1
 524 732 l 1,10,-1
 605 732 l 1,11,-1
 352 260 l 1,12,-1
 352 0 l 1,4,-1
EndSplineSet
Substitution2: "'c2sc' Capitals to Small Capitals in Latin lookup 2 subtable" yacute.smcp
EndChar

StartChar: Thorn
Encoding: 222 222 159
Width: 557
GlyphClass: 2
Flags: W
LayerCount: 2
Fore
SplineSet
134 168 m 1,0,-1
 134 0 l 1,1,-1
 60 0 l 1,2,-1
 60 729 l 1,3,-1
 134 729 l 1,4,-1
 134 588 l 1,5,-1
 331 588 l 1,6,7
 507 586 507 586 507 375 c 0,8,9
 507 215 507 215 424 170 c 0,10,11
 399 156 399 156 378 152.5 c 128,-1,12
 357 149 357 149 340 149 c 0,13,14
 312 149 312 149 272 149 c 128,-1,15
 232 149 232 149 134 168 c 1,0,-1
134 223 m 1,16,-1
 331 223 l 2,17,18
 332 223 332 223 334 223 c 0,19,20
 378 223 378 223 405 254.5 c 128,-1,21
 432 286 432 286 432 377 c 1,22,23
 430 471 430 471 393 494 c 0,24,25
 364 513 364 513 331 513 c 2,26,-1
 134 513 l 1,27,-1
 134 223 l 1,16,-1
EndSplineSet
Substitution2: "'c2sc' Capitals to Small Capitals in Latin lookup 2 subtable" thorn.smcp
EndChar

StartChar: germandbls
Encoding: 223 223 160
Width: 570
GlyphClass: 2
Flags: W
LayerCount: 2
Fore
SplineSet
219 71 m 1,0,-1
 396 66 l 2,1,2
 427 66 427 66 451 84.5 c 128,-1,3
 475 103 475 103 476 132 c 1,4,-1
 476 179 l 2,5,6
 476 200 476 200 454.5 211.5 c 128,-1,7
 433 223 433 223 402.5 229.5 c 128,-1,8
 372 236 372 236 341 246 c 128,-1,9
 310 256 310 256 288.5 281.5 c 128,-1,10
 267 307 267 307 267 351 c 128,-1,11
 267 395 267 395 289.5 425.5 c 128,-1,12
 312 456 312 456 388 512 c 0,13,14
 438 550 438 550 438 612 c 0,15,16
 438 703 438 703 283 703 c 0,17,18
 218 703 218 703 176 670 c 128,-1,19
 134 637 134 637 134 566 c 2,20,-1
 134 0 l 1,21,-1
 60 0 l 1,22,-1
 60 566 l 2,23,24
 60 656 60 656 120 716.5 c 128,-1,25
 180 777 180 777 283 777 c 0,26,27
 354 777 354 777 404 758.5 c 128,-1,28
 454 740 454 740 478 710 c 0,29,30
 513 666 513 666 513 609 c 0,31,32
 513 557 513 557 480 506 c 0,33,34
 460 474 460 474 433 455 c 1,35,36
 424 447 424 447 407 434 c 128,-1,37
 390 421 390 421 383.5 415 c 128,-1,38
 377 409 377 409 366.5 399 c 128,-1,39
 356 389 356 389 352 382 c 0,40,41
 341 365 341 365 341 347.5 c 128,-1,42
 341 330 341 330 362.5 319.5 c 128,-1,43
 384 309 384 309 415 302 c 128,-1,44
 446 295 446 295 476.5 284.5 c 128,-1,45
 507 274 507 274 528.5 247.5 c 128,-1,46
 550 221 550 221 550 179 c 2,47,-1
 550 132 l 2,48,49
 550 28 550 28 444 -1 c 0,50,51
 418 -8 418 -8 390 -8 c 128,-1,52
 362 -8 362 -8 328.5 -4.5 c 128,-1,53
 295 -1 295 -1 262.5 4.5 c 128,-1,54
 230 10 230 10 219 11 c 1,55,-1
 219 71 l 1,0,-1
EndSplineSet
Substitution2: "'smcp' Lowercase to Small Capitals lookup 1 subtable" germandbls.smcp
EndChar

StartChar: agrave
Encoding: 224 224 161
Width: 519
GlyphClass: 2
Flags: W
LayerCount: 2
Fore
SplineSet
99 734 m 1,0,-1
 194 734 l 1,1,-1
 301 601 l 1,2,-1
 232 601 l 1,3,-1
 99 734 l 1,0,-1
57 511 m 1,4,5
 165 541 165 541 319 541 c 0,6,7
 384 541 384 541 426.5 503 c 128,-1,8
 469 465 469 465 469 387 c 2,9,-1
 469 0 l 1,10,-1
 414 0 l 1,11,-1
 395 64 l 1,12,-1
 380 57 l 1,13,14
 250 -6 250 -6 173 -6 c 0,15,16
 116 -6 116 -6 78 29 c 128,-1,17
 40 64 40 64 40 126 c 2,18,-1
 40 187 l 2,19,20
 40 248 40 248 75.5 284 c 128,-1,21
 111 320 111 320 173 320 c 0,22,23
 284 320 284 320 339.5 320 c 128,-1,24
 395 320 395 320 395 320 c 1,25,26
 396 353 396 353 396 369.5 c 128,-1,27
 396 386 396 386 395 387 c 1,28,29
 395 469 395 469 309 469 c 128,-1,30
 223 469 223 469 57 457 c 1,31,-1
 57 511 l 1,4,5
114 131 m 2,32,33
 114 68 114 68 173 68 c 0,34,35
 209 68 209 68 264.5 81 c 128,-1,36
 320 94 320 94 358 106 c 1,37,-1
 395 119 l 1,38,-1
 395 262 l 1,39,-1
 173 246 l 2,40,41
 143 243 143 243 128.5 225 c 128,-1,42
 114 207 114 207 114 181 c 2,43,-1
 114 131 l 2,32,33
EndSplineSet
AlternateSubs2: "'salt' Stylistic Alternatives in Latin lookup 16 subtable" agrave.salt
Substitution2: "'smcp' Lowercase to Small Capitals lookup 1 subtable" agrave.smcp
EndChar

StartChar: aacute
Encoding: 225 225 162
Width: 519
GlyphClass: 2
Flags: W
LayerCount: 2
Fore
SplineSet
227 601 m 1,0,-1
 334 734 l 1,1,-1
 429 734 l 1,2,-1
 296 601 l 1,3,-1
 227 601 l 1,0,-1
57 511 m 1,4,5
 165 541 165 541 319 541 c 0,6,7
 384 541 384 541 426.5 503 c 128,-1,8
 469 465 469 465 469 387 c 2,9,-1
 469 0 l 1,10,-1
 414 0 l 1,11,-1
 395 64 l 1,12,-1
 380 57 l 1,13,14
 250 -6 250 -6 173 -6 c 0,15,16
 116 -6 116 -6 78 29 c 128,-1,17
 40 64 40 64 40 126 c 2,18,-1
 40 187 l 2,19,20
 40 248 40 248 75.5 284 c 128,-1,21
 111 320 111 320 173 320 c 0,22,23
 284 320 284 320 339.5 320 c 128,-1,24
 395 320 395 320 395 320 c 1,25,26
 396 353 396 353 396 369.5 c 128,-1,27
 396 386 396 386 395 387 c 1,28,29
 395 469 395 469 309 469 c 128,-1,30
 223 469 223 469 57 457 c 1,31,-1
 57 511 l 1,4,5
114 131 m 2,32,33
 114 68 114 68 173 68 c 0,34,35
 209 68 209 68 264.5 81 c 128,-1,36
 320 94 320 94 358 106 c 1,37,-1
 395 119 l 1,38,-1
 395 262 l 1,39,-1
 173 246 l 2,40,41
 143 243 143 243 128.5 225 c 128,-1,42
 114 207 114 207 114 181 c 2,43,-1
 114 131 l 2,32,33
EndSplineSet
AlternateSubs2: "'salt' Stylistic Alternatives in Latin lookup 16 subtable" aacute.salt
Substitution2: "'smcp' Lowercase to Small Capitals lookup 1 subtable" aacute.smcp
EndChar

StartChar: acircumflex
Encoding: 226 226 163
Width: 519
GlyphClass: 2
Flags: W
LayerCount: 2
Fore
SplineSet
117 601 m 1,0,-1
 234 731 l 1,1,-1
 305 731 l 1,2,-1
 409 601 l 1,3,-1
 338 601 l 1,4,-1
 267 672 l 1,5,-1
 189 601 l 1,6,-1
 117 601 l 1,0,-1
57 511 m 1,7,8
 165 541 165 541 319 541 c 0,9,10
 384 541 384 541 426.5 503 c 128,-1,11
 469 465 469 465 469 387 c 2,12,-1
 469 0 l 1,13,-1
 414 0 l 1,14,-1
 395 64 l 1,15,-1
 380 57 l 1,16,17
 250 -6 250 -6 173 -6 c 0,18,19
 116 -6 116 -6 78 29 c 128,-1,20
 40 64 40 64 40 126 c 2,21,-1
 40 187 l 2,22,23
 40 248 40 248 75.5 284 c 128,-1,24
 111 320 111 320 173 320 c 0,25,26
 284 320 284 320 339.5 320 c 128,-1,27
 395 320 395 320 395 320 c 1,28,29
 396 353 396 353 396 369.5 c 128,-1,30
 396 386 396 386 395 387 c 1,31,32
 395 469 395 469 309 469 c 128,-1,33
 223 469 223 469 57 457 c 1,34,-1
 57 511 l 1,7,8
114 131 m 2,35,36
 114 68 114 68 173 68 c 0,37,38
 209 68 209 68 264.5 81 c 128,-1,39
 320 94 320 94 358 106 c 1,40,-1
 395 119 l 1,41,-1
 395 262 l 1,42,-1
 173 246 l 2,43,44
 143 243 143 243 128.5 225 c 128,-1,45
 114 207 114 207 114 181 c 2,46,-1
 114 131 l 2,35,36
EndSplineSet
AlternateSubs2: "'salt' Stylistic Alternatives in Latin lookup 16 subtable" acircumflex.salt
Substitution2: "'smcp' Lowercase to Small Capitals lookup 1 subtable" acircumflex.smcp
EndChar

StartChar: atilde
Encoding: 227 227 164
Width: 519
GlyphClass: 2
Flags: W
LayerCount: 2
Fore
SplineSet
315 671 m 2,0,1
 338 671 338 671 405 707 c 1,2,-1
 427 665 l 1,3,4
 424 663 424 663 402 646 c 0,5,6
 349 602 349 602 316 602 c 0,7,8
 286 602 286 602 254 619 c 128,-1,9
 222 636 222 636 203.5 636 c 128,-1,10
 185 636 185 636 170.5 630.5 c 128,-1,11
 156 625 156 625 139.5 615.5 c 128,-1,12
 123 606 123 606 110 601 c 1,13,-1
 89 642 l 1,14,15
 116 664 116 664 129.5 674.5 c 128,-1,16
 143 685 143 685 165.5 695.5 c 128,-1,17
 188 706 188 706 211.5 705 c 128,-1,18
 235 704 235 704 268.5 687.5 c 128,-1,19
 302 671 302 671 308.5 671 c 128,-1,20
 315 671 315 671 315 671 c 2,0,1
57 511 m 1,21,22
 165 541 165 541 319 541 c 0,23,24
 384 541 384 541 426.5 503 c 128,-1,25
 469 465 469 465 469 387 c 2,26,-1
 469 0 l 1,27,-1
 414 0 l 1,28,-1
 395 64 l 1,29,-1
 380 57 l 1,30,31
 250 -6 250 -6 173 -6 c 0,32,33
 116 -6 116 -6 78 29 c 128,-1,34
 40 64 40 64 40 126 c 2,35,-1
 40 187 l 2,36,37
 40 248 40 248 75.5 284 c 128,-1,38
 111 320 111 320 173 320 c 0,39,40
 284 320 284 320 339.5 320 c 128,-1,41
 395 320 395 320 395 320 c 1,42,43
 396 353 396 353 396 369.5 c 128,-1,44
 396 386 396 386 395 387 c 1,45,46
 395 469 395 469 309 469 c 128,-1,47
 223 469 223 469 57 457 c 1,48,-1
 57 511 l 1,21,22
114 131 m 2,49,50
 114 68 114 68 173 68 c 0,51,52
 209 68 209 68 264.5 81 c 128,-1,53
 320 94 320 94 358 106 c 1,54,-1
 395 119 l 1,55,-1
 395 262 l 1,56,-1
 173 246 l 2,57,58
 143 243 143 243 128.5 225 c 128,-1,59
 114 207 114 207 114 181 c 2,60,-1
 114 131 l 2,49,50
EndSplineSet
AlternateSubs2: "'salt' Stylistic Alternatives in Latin lookup 16 subtable" atilde.salt
Substitution2: "'smcp' Lowercase to Small Capitals lookup 1 subtable" atilde.smcp
EndChar

StartChar: adieresis
Encoding: 228 228 165
Width: 519
GlyphClass: 2
Flags: W
LayerCount: 2
Fore
SplineSet
83 652 m 128,-1,1
 83 673 83 673 98 687.5 c 128,-1,2
 113 702 113 702 134 702 c 128,-1,3
 155 702 155 702 169.5 687.5 c 128,-1,4
 184 673 184 673 184 652 c 128,-1,5
 184 631 184 631 169.5 616 c 128,-1,6
 155 601 155 601 134 601 c 128,-1,7
 113 601 113 601 98 616 c 128,-1,0
 83 631 83 631 83 652 c 128,-1,1
338 652 m 128,-1,9
 338 673 338 673 353 687.5 c 128,-1,10
 368 702 368 702 389 702 c 128,-1,11
 410 702 410 702 424.5 687.5 c 128,-1,12
 439 673 439 673 439 652 c 128,-1,13
 439 631 439 631 424.5 616 c 128,-1,14
 410 601 410 601 389 601 c 128,-1,15
 368 601 368 601 353 616 c 128,-1,8
 338 631 338 631 338 652 c 128,-1,9
57 511 m 1,16,17
 165 541 165 541 319 541 c 0,18,19
 384 541 384 541 426.5 503 c 128,-1,20
 469 465 469 465 469 387 c 2,21,-1
 469 0 l 1,22,-1
 414 0 l 1,23,-1
 395 64 l 1,24,-1
 380 57 l 1,25,26
 250 -6 250 -6 173 -6 c 0,27,28
 116 -6 116 -6 78 29 c 128,-1,29
 40 64 40 64 40 126 c 2,30,-1
 40 187 l 2,31,32
 40 248 40 248 75.5 284 c 128,-1,33
 111 320 111 320 173 320 c 0,34,35
 284 320 284 320 339.5 320 c 128,-1,36
 395 320 395 320 395 320 c 1,37,38
 396 353 396 353 396 369.5 c 128,-1,39
 396 386 396 386 395 387 c 1,40,41
 395 469 395 469 309 469 c 128,-1,42
 223 469 223 469 57 457 c 1,43,-1
 57 511 l 1,16,17
114 131 m 2,44,45
 114 68 114 68 173 68 c 0,46,47
 209 68 209 68 264.5 81 c 128,-1,48
 320 94 320 94 358 106 c 1,49,-1
 395 119 l 1,50,-1
 395 262 l 1,51,-1
 173 246 l 2,52,53
 143 243 143 243 128.5 225 c 128,-1,54
 114 207 114 207 114 181 c 2,55,-1
 114 131 l 2,44,45
EndSplineSet
AlternateSubs2: "'salt' Stylistic Alternatives in Latin lookup 16 subtable" adieresis.salt
Substitution2: "'smcp' Lowercase to Small Capitals lookup 1 subtable" adieresis.smcp
EndChar

StartChar: aring
Encoding: 229 229 166
Width: 519
GlyphClass: 2
Flags: W
LayerCount: 2
Fore
SplineSet
161 673 m 128,-1,1
 161 716 161 716 191 746 c 128,-1,2
 221 776 221 776 263 776 c 128,-1,3
 305 776 305 776 334.5 746 c 128,-1,4
 364 716 364 716 364 673 c 128,-1,5
 364 630 364 630 334.5 600.5 c 128,-1,6
 305 571 305 571 263 571 c 128,-1,7
 221 571 221 571 191 600.5 c 128,-1,0
 161 630 161 630 161 673 c 128,-1,1
224 712 m 128,-1,9
 208 696 208 696 208 673.5 c 128,-1,10
 208 651 208 651 224 635 c 128,-1,11
 240 619 240 619 263 619 c 128,-1,12
 286 619 286 619 301.5 634.5 c 128,-1,13
 317 650 317 650 317 673 c 128,-1,14
 317 696 317 696 301 712 c 128,-1,15
 285 728 285 728 262.5 728 c 128,-1,8
 240 728 240 728 224 712 c 128,-1,9
57 511 m 1,16,17
 165 541 165 541 319 541 c 0,18,19
 384 541 384 541 426.5 503 c 128,-1,20
 469 465 469 465 469 387 c 2,21,-1
 469 0 l 1,22,-1
 414 0 l 1,23,-1
 395 64 l 1,24,-1
 380 57 l 1,25,26
 250 -6 250 -6 173 -6 c 0,27,28
 116 -6 116 -6 78 29 c 128,-1,29
 40 64 40 64 40 126 c 2,30,-1
 40 187 l 2,31,32
 40 248 40 248 75.5 284 c 128,-1,33
 111 320 111 320 173 320 c 0,34,35
 284 320 284 320 339.5 320 c 128,-1,36
 395 320 395 320 395 320 c 1,37,38
 396 353 396 353 396 369.5 c 128,-1,39
 396 386 396 386 395 387 c 1,40,41
 395 469 395 469 309 469 c 128,-1,42
 223 469 223 469 57 457 c 1,43,-1
 57 511 l 1,16,17
114 131 m 2,44,45
 114 68 114 68 173 68 c 0,46,47
 209 68 209 68 264.5 81 c 128,-1,48
 320 94 320 94 358 106 c 1,49,-1
 395 119 l 1,50,-1
 395 262 l 1,51,-1
 173 246 l 2,52,53
 143 243 143 243 128.5 225 c 128,-1,54
 114 207 114 207 114 181 c 2,55,-1
 114 131 l 2,44,45
EndSplineSet
AlternateSubs2: "'salt' Stylistic Alternatives in Latin lookup 16 subtable" aring.salt
Substitution2: "'smcp' Lowercase to Small Capitals lookup 1 subtable" aring.smcp
EndChar

StartChar: ae
Encoding: 230 230 167
Width: 871
GlyphClass: 2
Flags: W
LayerCount: 2
Fore
SplineSet
57 517 m 1,0,1
 148 547 148 547 322 547 c 0,2,3
 403 547 403 547 443 489 c 1,4,5
 469 520 469 520 512.5 530.5 c 128,-1,6
 556 541 556 541 619.5 541 c 128,-1,7
 683 541 683 541 714 536 c 128,-1,8
 745 531 745 531 775 513 c 128,-1,9
 805 495 805 495 818 456 c 128,-1,10
 831 417 831 417 831 353 c 0,11,12
 831 231 831 231 694 231 c 2,13,-1
 470 231 l 1,14,15
 470 138 470 138 491 106.5 c 128,-1,16
 512 75 512 75 571 75 c 0,17,18
 753 75 753 75 821 85 c 1,19,-1
 821 29 l 1,20,21
 722 1 722 1 571 1 c 0,22,23
 511 1 511 1 480 17.5 c 128,-1,24
 449 34 449 34 417 71 c 1,25,-1
 400 64 l 1,26,27
 312 25 312 25 255 12.5 c 128,-1,28
 198 0 198 0 173 0 c 0,29,30
 116 0 116 0 78 35 c 128,-1,31
 40 70 40 70 40 132 c 2,32,-1
 40 172 l 2,33,34
 40 233 40 233 75.5 269 c 128,-1,35
 111 305 111 305 173 305 c 0,36,37
 284 304 284 304 339.5 304 c 128,-1,38
 395 304 395 304 395 305 c 0,39,40
 396 348 396 348 396 370 c 128,-1,41
 396 392 396 392 395 393 c 1,42,43
 395 475 395 475 311.5 475 c 128,-1,44
 228 475 228 475 57 463 c 1,45,-1
 57 517 l 1,0,1
114 137 m 2,46,47
 114 74 114 74 173 74 c 0,48,49
 209 74 209 74 264.5 87 c 128,-1,50
 320 100 320 100 358 112 c 1,51,-1
 395 125 l 1,52,-1
 395 253 l 1,53,-1
 173 237 l 2,54,55
 143 234 143 234 128.5 216 c 128,-1,56
 114 198 114 198 114 172 c 2,57,-1
 114 137 l 2,46,47
470 304 m 1,58,-1
 694 304 l 2,59,60
 757 304 757 304 757 353 c 0,61,62
 757 430 757 430 734.5 448.5 c 128,-1,63
 712 467 712 467 629 467 c 0,64,65
 526 467 526 467 506 446 c 0,66,67
 478 416 478 416 474 380 c 128,-1,68
 470 344 470 344 470 304 c 1,58,-1
EndSplineSet
Substitution2: "'smcp' Lowercase to Small Capitals lookup 1 subtable" ae.smcp
EndChar

StartChar: ccedilla
Encoding: 231 231 168
Width: 500
GlyphClass: 2
Flags: W
LayerCount: 2
Fore
SplineSet
50 266 m 128,-1,1
 50 350 50 350 62.5 406 c 128,-1,2
 75 462 75 462 100 489.5 c 128,-1,3
 125 517 125 517 154 527.5 c 128,-1,4
 183 538 183 538 242.5 538 c 128,-1,5
 302 538 302 538 453 510 c 1,6,-1
 453 456 l 1,7,8
 314 464 314 464 259 464 c 128,-1,9
 204 464 204 464 191 461 c 128,-1,10
 178 458 178 458 164 447 c 128,-1,11
 150 436 150 436 142 415 c 0,12,13
 124 368 124 368 124 259 c 128,-1,14
 124 150 124 150 147 108.5 c 128,-1,15
 170 67 170 67 225 67 c 0,16,17
 319 67 319 67 422 75 c 2,18,-1
 460 78 l 1,19,-1
 460 22 l 1,20,21
 364 -5 364 -5 225 -7 c 0,22,23
 184 -7 184 -7 155 3.5 c 128,-1,24
 126 14 126 14 101 42 c 128,-1,25
 76 70 76 70 63 126 c 128,-1,0
 50 182 50 182 50 266 c 128,-1,1
260 -37 m 1,26,-1
 327 -37 l 1,27,28
 327 -115 327 -115 306 -144 c 128,-1,29
 285 -173 285 -173 226 -173 c 2,30,-1
 175 -173 l 1,31,-1
 175 -136 l 1,32,-1
 228 -121 l 1,33,34
 260 -107 260 -107 260 -37 c 1,26,-1
EndSplineSet
Substitution2: "'smcp' Lowercase to Small Capitals lookup 1 subtable" ccedilla.smcp
EndChar

StartChar: egrave
Encoding: 232 232 169
Width: 525
GlyphClass: 2
Flags: W
LayerCount: 2
Fore
SplineSet
114 729 m 1,0,-1
 210 729 l 1,1,-1
 316 596 l 1,2,-1
 248 596 l 1,3,-1
 114 729 l 1,0,-1
50 268 m 0,4,5
 50 356 50 356 62 409.5 c 128,-1,6
 74 463 74 463 105.5 490.5 c 128,-1,7
 137 518 137 518 175.5 526.5 c 128,-1,8
 214 535 214 535 275.5 535 c 128,-1,9
 337 535 337 535 368 530 c 128,-1,10
 399 525 399 525 429 507 c 128,-1,11
 459 489 459 489 472 450 c 128,-1,12
 485 411 485 411 485 347 c 0,13,14
 485 225 485 225 348 225 c 2,15,-1
 124 225 l 1,16,17
 124 132 124 132 145 100.5 c 128,-1,18
 166 69 166 69 225 69 c 0,19,20
 407 69 407 69 475 79 c 1,21,-1
 475 23 l 1,22,23
 376 -5 376 -5 225 -5 c 0,24,25
 124 -5 124 -5 87 53 c 128,-1,26
 50 111 50 111 50 268 c 0,4,5
124 298 m 1,27,-1
 348 298 l 2,28,29
 411 298 411 298 411 347 c 0,30,31
 411 424 411 424 388.5 442.5 c 128,-1,32
 366 461 366 461 283 461 c 0,33,34
 180 461 180 461 160 440 c 0,35,36
 132 410 132 410 128 374 c 128,-1,37
 124 338 124 338 124 298 c 1,27,-1
EndSplineSet
Substitution2: "'smcp' Lowercase to Small Capitals lookup 1 subtable" egrave.smcp
EndChar

StartChar: eacute
Encoding: 233 233 170
Width: 525
GlyphClass: 2
Flags: W
LayerCount: 2
Fore
SplineSet
238 596 m 1,0,-1
 344 729 l 1,1,-1
 440 729 l 1,2,-1
 306 596 l 1,3,-1
 238 596 l 1,0,-1
50 268 m 0,4,5
 50 356 50 356 62 409.5 c 128,-1,6
 74 463 74 463 105.5 490.5 c 128,-1,7
 137 518 137 518 175.5 526.5 c 128,-1,8
 214 535 214 535 275.5 535 c 128,-1,9
 337 535 337 535 368 530 c 128,-1,10
 399 525 399 525 429 507 c 128,-1,11
 459 489 459 489 472 450 c 128,-1,12
 485 411 485 411 485 347 c 0,13,14
 485 225 485 225 348 225 c 2,15,-1
 124 225 l 1,16,17
 124 132 124 132 145 100.5 c 128,-1,18
 166 69 166 69 225 69 c 0,19,20
 407 69 407 69 475 79 c 1,21,-1
 475 23 l 1,22,23
 376 -5 376 -5 225 -5 c 0,24,25
 124 -5 124 -5 87 53 c 128,-1,26
 50 111 50 111 50 268 c 0,4,5
124 298 m 1,27,-1
 348 298 l 2,28,29
 411 298 411 298 411 347 c 0,30,31
 411 424 411 424 388.5 442.5 c 128,-1,32
 366 461 366 461 283 461 c 0,33,34
 180 461 180 461 160 440 c 0,35,36
 132 410 132 410 128 374 c 128,-1,37
 124 338 124 338 124 298 c 1,27,-1
EndSplineSet
Substitution2: "'smcp' Lowercase to Small Capitals lookup 1 subtable" eacute.smcp
EndChar

StartChar: ecircumflex
Encoding: 234 234 171
Width: 525
GlyphClass: 2
Flags: W
LayerCount: 2
Fore
SplineSet
128 596 m 1,0,-1
 245 726 l 1,1,-1
 316 726 l 1,2,-1
 420 596 l 1,3,-1
 349 596 l 1,4,-1
 278 667 l 1,5,-1
 200 596 l 1,6,-1
 128 596 l 1,0,-1
50 268 m 0,7,8
 50 356 50 356 62 409.5 c 128,-1,9
 74 463 74 463 105.5 490.5 c 128,-1,10
 137 518 137 518 175.5 526.5 c 128,-1,11
 214 535 214 535 275.5 535 c 128,-1,12
 337 535 337 535 368 530 c 128,-1,13
 399 525 399 525 429 507 c 128,-1,14
 459 489 459 489 472 450 c 128,-1,15
 485 411 485 411 485 347 c 0,16,17
 485 225 485 225 348 225 c 2,18,-1
 124 225 l 1,19,20
 124 132 124 132 145 100.5 c 128,-1,21
 166 69 166 69 225 69 c 0,22,23
 407 69 407 69 475 79 c 1,24,-1
 475 23 l 1,25,26
 376 -5 376 -5 225 -5 c 0,27,28
 124 -5 124 -5 87 53 c 128,-1,29
 50 111 50 111 50 268 c 0,7,8
124 298 m 1,30,-1
 348 298 l 2,31,32
 411 298 411 298 411 347 c 0,33,34
 411 424 411 424 388.5 442.5 c 128,-1,35
 366 461 366 461 283 461 c 0,36,37
 180 461 180 461 160 440 c 0,38,39
 132 410 132 410 128 374 c 128,-1,40
 124 338 124 338 124 298 c 1,30,-1
EndSplineSet
Substitution2: "'smcp' Lowercase to Small Capitals lookup 1 subtable" ecircumflex.smcp
EndChar

StartChar: edieresis
Encoding: 235 235 172
Width: 525
GlyphClass: 2
Flags: W
LayerCount: 2
Fore
SplineSet
93 647 m 128,-1,1
 93 668 93 668 108 682.5 c 128,-1,2
 123 697 123 697 144 697 c 128,-1,3
 165 697 165 697 179.5 682.5 c 128,-1,4
 194 668 194 668 194 647 c 128,-1,5
 194 626 194 626 179.5 611 c 128,-1,6
 165 596 165 596 144 596 c 128,-1,7
 123 596 123 596 108 611 c 128,-1,0
 93 626 93 626 93 647 c 128,-1,1
348 647 m 128,-1,9
 348 668 348 668 363 682.5 c 128,-1,10
 378 697 378 697 399 697 c 128,-1,11
 420 697 420 697 434.5 682.5 c 128,-1,12
 449 668 449 668 449 647 c 128,-1,13
 449 626 449 626 434.5 611 c 128,-1,14
 420 596 420 596 399 596 c 128,-1,15
 378 596 378 596 363 611 c 128,-1,8
 348 626 348 626 348 647 c 128,-1,9
50 268 m 0,16,17
 50 356 50 356 62 409.5 c 128,-1,18
 74 463 74 463 105.5 490.5 c 128,-1,19
 137 518 137 518 175.5 526.5 c 128,-1,20
 214 535 214 535 275.5 535 c 128,-1,21
 337 535 337 535 368 530 c 128,-1,22
 399 525 399 525 429 507 c 128,-1,23
 459 489 459 489 472 450 c 128,-1,24
 485 411 485 411 485 347 c 0,25,26
 485 225 485 225 348 225 c 2,27,-1
 124 225 l 1,28,29
 124 132 124 132 145 100.5 c 128,-1,30
 166 69 166 69 225 69 c 0,31,32
 407 69 407 69 475 79 c 1,33,-1
 475 23 l 1,34,35
 376 -5 376 -5 225 -5 c 0,36,37
 124 -5 124 -5 87 53 c 128,-1,38
 50 111 50 111 50 268 c 0,16,17
124 298 m 1,39,-1
 348 298 l 2,40,41
 411 298 411 298 411 347 c 0,42,43
 411 424 411 424 388.5 442.5 c 128,-1,44
 366 461 366 461 283 461 c 0,45,46
 180 461 180 461 160 440 c 0,47,48
 132 410 132 410 128 374 c 128,-1,49
 124 338 124 338 124 298 c 1,39,-1
EndSplineSet
Substitution2: "'smcp' Lowercase to Small Capitals lookup 1 subtable" edieresis.smcp
EndChar

StartChar: igrave
Encoding: 236 236 173
Width: 194
GlyphClass: 2
Flags: W
LayerCount: 2
Fore
SplineSet
-70 729 m 1,0,-1
 24 729 l 1,1,-1
 132 596 l 1,2,-1
 62 596 l 1,3,-1
 -70 729 l 1,0,-1
60 0 m 1,4,-1
 60 531 l 1,5,-1
 134 531 l 1,6,-1
 134 0 l 1,7,-1
 60 0 l 1,4,-1
EndSplineSet
Substitution2: "'smcp' Lowercase to Small Capitals lookup 1 subtable" igrave.smcp
EndChar

StartChar: iacute
Encoding: 237 237 174
Width: 194
GlyphClass: 2
Flags: W
LayerCount: 2
Fore
SplineSet
62 596 m 1,0,-1
 170 729 l 1,1,-1
 264 729 l 1,2,-1
 132 596 l 1,3,-1
 62 596 l 1,0,-1
60 0 m 1,4,-1
 60 531 l 1,5,-1
 134 531 l 1,6,-1
 134 0 l 1,7,-1
 60 0 l 1,4,-1
EndSplineSet
Substitution2: "'smcp' Lowercase to Small Capitals lookup 1 subtable" iacute.smcp
EndChar

StartChar: icircumflex
Encoding: 238 238 175
Width: 194
GlyphClass: 2
Flags: W
LayerCount: 2
Fore
SplineSet
-49 596 m 1,0,-1
 68 726 l 1,1,-1
 139 726 l 1,2,-1
 243 596 l 1,3,-1
 172 596 l 1,4,-1
 101 667 l 1,5,-1
 23 596 l 1,6,-1
 -49 596 l 1,0,-1
60 0 m 1,7,-1
 60 531 l 1,8,-1
 134 531 l 1,9,-1
 134 0 l 1,10,-1
 60 0 l 1,7,-1
EndSplineSet
Substitution2: "'smcp' Lowercase to Small Capitals lookup 1 subtable" icircumflex.smcp
EndChar

StartChar: idieresis
Encoding: 239 239 176
Width: 194
GlyphClass: 2
Flags: W
LayerCount: 2
Fore
SplineSet
-81 647 m 128,-1,1
 -81 668 -81 668 -66 682.5 c 128,-1,2
 -51 697 -51 697 -30 697 c 128,-1,3
 -9 697 -9 697 5.5 682.5 c 128,-1,4
 20 668 20 668 20 647 c 128,-1,5
 20 626 20 626 5.5 611 c 128,-1,6
 -9 596 -9 596 -30 596 c 128,-1,7
 -51 596 -51 596 -66 611 c 128,-1,0
 -81 626 -81 626 -81 647 c 128,-1,1
174 647 m 128,-1,9
 174 668 174 668 189 682.5 c 128,-1,10
 204 697 204 697 225 697 c 128,-1,11
 246 697 246 697 260.5 682.5 c 128,-1,12
 275 668 275 668 275 647 c 128,-1,13
 275 626 275 626 260.5 611 c 128,-1,14
 246 596 246 596 225 596 c 128,-1,15
 204 596 204 596 189 611 c 128,-1,8
 174 626 174 626 174 647 c 128,-1,9
60 0 m 1,16,-1
 60 531 l 1,17,-1
 134 531 l 1,18,-1
 134 0 l 1,19,-1
 60 0 l 1,16,-1
EndSplineSet
Substitution2: "'smcp' Lowercase to Small Capitals lookup 1 subtable" idieresis.smcp
EndChar

StartChar: eth
Encoding: 240 240 177
Width: 538
GlyphClass: 2
Flags: W
LayerCount: 2
Fore
SplineSet
79 62.5 m 128,-1,1
 40 125 40 125 40 261.5 c 128,-1,2
 40 398 40 398 80.5 464.5 c 128,-1,3
 121 531 121 531 218 531 c 2,4,-1
 318 531 l 2,5,6
 374 531 374 531 388 516 c 1,7,8
 363 599 363 599 314 648 c 1,9,-1
 169 590 l 1,10,-1
 145 650 l 1,11,-1
 254 694 l 1,12,13
 208 718 208 718 143 718 c 0,14,15
 134 718 134 718 124 718 c 1,16,-1
 124 783 l 1,17,18
 256 783 256 783 333 724 c 1,19,-1
 451 771 l 1,20,-1
 476 711 l 1,21,-1
 385 675 l 1,22,23
 498 536 498 536 498 264 c 0,24,25
 498 122 498 122 451 61 c 128,-1,26
 404 0 404 0 318 0 c 2,27,-1
 218 0 l 2,28,0
 118 0 118 0 79 62.5 c 128,-1,1
127 386.5 m 128,-1,30
 114 343 114 343 114 271 c 128,-1,31
 114 199 114 199 121.5 159.5 c 128,-1,32
 129 120 129 120 145 102.5 c 128,-1,33
 161 85 161 85 176.5 80.5 c 128,-1,34
 192 76 192 76 218 76 c 2,35,-1
 318 76 l 2,36,37
 378 76 378 76 401 122.5 c 128,-1,38
 424 169 424 169 424 273 c 128,-1,39
 424 377 424 377 402.5 417 c 128,-1,40
 381 457 381 457 318 457 c 2,41,-1
 218 457 l 2,42,43
 182 457 182 457 161 443.5 c 128,-1,29
 140 430 140 430 127 386.5 c 128,-1,30
EndSplineSet
Substitution2: "'smcp' Lowercase to Small Capitals lookup 1 subtable" eth.smcp
EndChar

StartChar: ntilde
Encoding: 241 241 178
Width: 544
GlyphClass: 2
Flags: W
LayerCount: 2
Fore
SplineSet
334 670 m 2,0,1
 357 670 357 670 424 706 c 1,2,-1
 446 664 l 1,3,4
 443 662 443 662 422 644 c 0,5,6
 368 601 368 601 335 601 c 0,7,8
 305 601 305 601 273 618 c 128,-1,9
 241 635 241 635 222.5 635 c 128,-1,10
 204 635 204 635 189.5 629.5 c 128,-1,11
 175 624 175 624 158.5 614.5 c 128,-1,12
 142 605 142 605 129 600 c 1,13,-1
 108 641 l 1,14,15
 135 663 135 663 148.5 673.5 c 128,-1,16
 162 684 162 684 184.5 694.5 c 128,-1,17
 207 705 207 705 230.5 704 c 128,-1,18
 254 703 254 703 287.5 686.5 c 128,-1,19
 321 670 321 670 327.5 670 c 128,-1,20
 334 670 334 670 334 670 c 2,0,1
60 0 m 1,21,-1
 60 531 l 1,22,-1
 112 531 l 1,23,-1
 134 469 l 1,24,25
 137 470 137 470 156 481.5 c 128,-1,26
 175 493 175 493 179.5 495 c 128,-1,27
 184 497 184 497 201 506.5 c 128,-1,28
 218 516 218 516 225 518 c 128,-1,29
 232 520 232 520 248 526 c 128,-1,30
 264 532 264 532 274 534 c 0,31,32
 306 540 306 540 330 540 c 0,33,34
 406 540 406 540 450 490 c 128,-1,35
 494 440 494 440 494 370 c 2,36,-1
 494 0 l 1,37,-1
 420 0 l 1,38,-1
 420 370 l 2,39,40
 420 417 420 417 395 441.5 c 128,-1,41
 370 466 370 466 331 466 c 128,-1,42
 292 466 292 466 258 458 c 128,-1,43
 224 450 224 450 203.5 441.5 c 128,-1,44
 183 433 183 433 134 409 c 1,45,-1
 134 0 l 1,46,-1
 60 0 l 1,21,-1
EndSplineSet
AlternateSubs2: "'salt' Stylistic Alternatives in Latin lookup 16 subtable" ntilde.salt
Substitution2: "'smcp' Lowercase to Small Capitals lookup 1 subtable" ntilde.smcp
EndChar

StartChar: ograve
Encoding: 242 242 179
Width: 568
GlyphClass: 2
Flags: W
LayerCount: 2
Fore
SplineSet
126 729 m 1,0,-1
 222 729 l 1,1,-1
 328 596 l 1,2,-1
 260 596 l 1,3,-1
 126 729 l 1,0,-1
101 54 m 128,-1,5
 50 113 50 113 50 266 c 128,-1,6
 50 419 50 419 101 477.5 c 128,-1,7
 152 536 152 536 285 536 c 128,-1,8
 418 536 418 536 468 476.5 c 128,-1,9
 518 417 518 417 518 263 c 128,-1,10
 518 109 518 109 468 52 c 128,-1,11
 418 -5 418 -5 285 -5 c 128,-1,4
 152 -5 152 -5 101 54 c 128,-1,5
130.5 352.5 m 128,-1,13
 124 315 124 315 124 254 c 128,-1,14
 124 193 124 193 133.5 154 c 128,-1,15
 143 115 143 115 166.5 97 c 128,-1,16
 190 79 190 79 214.5 74 c 128,-1,17
 239 69 239 69 284.5 69 c 128,-1,18
 330 69 330 69 355.5 74 c 128,-1,19
 381 79 381 79 403.5 97.5 c 128,-1,20
 426 116 426 116 435 154.5 c 128,-1,21
 444 193 444 193 444 261 c 128,-1,22
 444 329 444 329 436.5 370 c 128,-1,23
 429 411 429 411 407 431.5 c 128,-1,24
 385 452 385 452 359.5 457 c 128,-1,25
 334 462 334 462 290 462 c 128,-1,26
 246 462 246 462 224 459 c 128,-1,27
 202 456 202 456 180 445 c 128,-1,28
 158 434 158 434 147.5 412 c 128,-1,12
 137 390 137 390 130.5 352.5 c 128,-1,13
EndSplineSet
Substitution2: "'smcp' Lowercase to Small Capitals lookup 1 subtable" ograve.smcp
EndChar

StartChar: oacute
Encoding: 243 243 180
Width: 568
GlyphClass: 2
Flags: W
LayerCount: 2
Fore
SplineSet
250 596 m 1,0,-1
 356 729 l 1,1,-1
 452 729 l 1,2,-1
 318 596 l 1,3,-1
 250 596 l 1,0,-1
101 54 m 128,-1,5
 50 113 50 113 50 266 c 128,-1,6
 50 419 50 419 101 477.5 c 128,-1,7
 152 536 152 536 285 536 c 128,-1,8
 418 536 418 536 468 476.5 c 128,-1,9
 518 417 518 417 518 263 c 128,-1,10
 518 109 518 109 468 52 c 128,-1,11
 418 -5 418 -5 285 -5 c 128,-1,4
 152 -5 152 -5 101 54 c 128,-1,5
130.5 352.5 m 128,-1,13
 124 315 124 315 124 254 c 128,-1,14
 124 193 124 193 133.5 154 c 128,-1,15
 143 115 143 115 166.5 97 c 128,-1,16
 190 79 190 79 214.5 74 c 128,-1,17
 239 69 239 69 284.5 69 c 128,-1,18
 330 69 330 69 355.5 74 c 128,-1,19
 381 79 381 79 403.5 97.5 c 128,-1,20
 426 116 426 116 435 154.5 c 128,-1,21
 444 193 444 193 444 261 c 128,-1,22
 444 329 444 329 436.5 370 c 128,-1,23
 429 411 429 411 407 431.5 c 128,-1,24
 385 452 385 452 359.5 457 c 128,-1,25
 334 462 334 462 290 462 c 128,-1,26
 246 462 246 462 224 459 c 128,-1,27
 202 456 202 456 180 445 c 128,-1,28
 158 434 158 434 147.5 412 c 128,-1,12
 137 390 137 390 130.5 352.5 c 128,-1,13
EndSplineSet
Substitution2: "'smcp' Lowercase to Small Capitals lookup 1 subtable" oacute.smcp
EndChar

StartChar: ocircumflex
Encoding: 244 244 181
Width: 568
GlyphClass: 2
Flags: W
LayerCount: 2
Fore
SplineSet
143 596 m 1,0,-1
 260 726 l 1,1,-1
 331 726 l 1,2,-1
 435 596 l 1,3,-1
 364 596 l 1,4,-1
 293 667 l 1,5,-1
 215 596 l 1,6,-1
 143 596 l 1,0,-1
101 54 m 128,-1,8
 50 113 50 113 50 266 c 128,-1,9
 50 419 50 419 101 477.5 c 128,-1,10
 152 536 152 536 285 536 c 128,-1,11
 418 536 418 536 468 476.5 c 128,-1,12
 518 417 518 417 518 263 c 128,-1,13
 518 109 518 109 468 52 c 128,-1,14
 418 -5 418 -5 285 -5 c 128,-1,7
 152 -5 152 -5 101 54 c 128,-1,8
130.5 352.5 m 128,-1,16
 124 315 124 315 124 254 c 128,-1,17
 124 193 124 193 133.5 154 c 128,-1,18
 143 115 143 115 166.5 97 c 128,-1,19
 190 79 190 79 214.5 74 c 128,-1,20
 239 69 239 69 284.5 69 c 128,-1,21
 330 69 330 69 355.5 74 c 128,-1,22
 381 79 381 79 403.5 97.5 c 128,-1,23
 426 116 426 116 435 154.5 c 128,-1,24
 444 193 444 193 444 261 c 128,-1,25
 444 329 444 329 436.5 370 c 128,-1,26
 429 411 429 411 407 431.5 c 128,-1,27
 385 452 385 452 359.5 457 c 128,-1,28
 334 462 334 462 290 462 c 128,-1,29
 246 462 246 462 224 459 c 128,-1,30
 202 456 202 456 180 445 c 128,-1,31
 158 434 158 434 147.5 412 c 128,-1,15
 137 390 137 390 130.5 352.5 c 128,-1,16
EndSplineSet
Substitution2: "'smcp' Lowercase to Small Capitals lookup 1 subtable" ocircumflex.smcp
EndChar

StartChar: otilde
Encoding: 245 245 182
Width: 568
GlyphClass: 2
Flags: W
LayerCount: 2
Fore
SplineSet
350 666 m 2,0,1
 373 666 373 666 440 702 c 1,2,-1
 462 660 l 1,3,4
 459 658 459 658 438 640 c 0,5,6
 384 597 384 597 351 597 c 0,7,8
 321 597 321 597 289 614 c 128,-1,9
 257 631 257 631 238.5 631 c 128,-1,10
 220 631 220 631 205.5 625.5 c 128,-1,11
 191 620 191 620 174.5 610.5 c 128,-1,12
 158 601 158 601 145 596 c 1,13,-1
 124 637 l 1,14,15
 151 659 151 659 164.5 669.5 c 128,-1,16
 178 680 178 680 200.5 690.5 c 128,-1,17
 223 701 223 701 246.5 700 c 128,-1,18
 270 699 270 699 303.5 682.5 c 128,-1,19
 337 666 337 666 343.5 666 c 128,-1,20
 350 666 350 666 350 666 c 2,0,1
101 54 m 128,-1,22
 50 113 50 113 50 266 c 128,-1,23
 50 419 50 419 101 477.5 c 128,-1,24
 152 536 152 536 285 536 c 128,-1,25
 418 536 418 536 468 476.5 c 128,-1,26
 518 417 518 417 518 263 c 128,-1,27
 518 109 518 109 468 52 c 128,-1,28
 418 -5 418 -5 285 -5 c 128,-1,21
 152 -5 152 -5 101 54 c 128,-1,22
130.5 352.5 m 128,-1,30
 124 315 124 315 124 254 c 128,-1,31
 124 193 124 193 133.5 154 c 128,-1,32
 143 115 143 115 166.5 97 c 128,-1,33
 190 79 190 79 214.5 74 c 128,-1,34
 239 69 239 69 284.5 69 c 128,-1,35
 330 69 330 69 355.5 74 c 128,-1,36
 381 79 381 79 403.5 97.5 c 128,-1,37
 426 116 426 116 435 154.5 c 128,-1,38
 444 193 444 193 444 261 c 128,-1,39
 444 329 444 329 436.5 370 c 128,-1,40
 429 411 429 411 407 431.5 c 128,-1,41
 385 452 385 452 359.5 457 c 128,-1,42
 334 462 334 462 290 462 c 128,-1,43
 246 462 246 462 224 459 c 128,-1,44
 202 456 202 456 180 445 c 128,-1,45
 158 434 158 434 147.5 412 c 128,-1,29
 137 390 137 390 130.5 352.5 c 128,-1,30
EndSplineSet
Substitution2: "'smcp' Lowercase to Small Capitals lookup 1 subtable" otilde.smcp
EndChar

StartChar: odieresis
Encoding: 246 246 183
Width: 568
GlyphClass: 2
Flags: W
LayerCount: 2
Fore
SplineSet
107 647 m 128,-1,1
 107 668 107 668 122 682.5 c 128,-1,2
 137 697 137 697 158 697 c 128,-1,3
 179 697 179 697 193.5 682.5 c 128,-1,4
 208 668 208 668 208 647 c 128,-1,5
 208 626 208 626 193.5 611 c 128,-1,6
 179 596 179 596 158 596 c 128,-1,7
 137 596 137 596 122 611 c 128,-1,0
 107 626 107 626 107 647 c 128,-1,1
362 647 m 128,-1,9
 362 668 362 668 377 682.5 c 128,-1,10
 392 697 392 697 413 697 c 128,-1,11
 434 697 434 697 448.5 682.5 c 128,-1,12
 463 668 463 668 463 647 c 128,-1,13
 463 626 463 626 448.5 611 c 128,-1,14
 434 596 434 596 413 596 c 128,-1,15
 392 596 392 596 377 611 c 128,-1,8
 362 626 362 626 362 647 c 128,-1,9
101 54 m 128,-1,17
 50 113 50 113 50 266 c 128,-1,18
 50 419 50 419 101 477.5 c 128,-1,19
 152 536 152 536 285 536 c 128,-1,20
 418 536 418 536 468 476.5 c 128,-1,21
 518 417 518 417 518 263 c 128,-1,22
 518 109 518 109 468 52 c 128,-1,23
 418 -5 418 -5 285 -5 c 128,-1,16
 152 -5 152 -5 101 54 c 128,-1,17
130.5 352.5 m 128,-1,25
 124 315 124 315 124 254 c 128,-1,26
 124 193 124 193 133.5 154 c 128,-1,27
 143 115 143 115 166.5 97 c 128,-1,28
 190 79 190 79 214.5 74 c 128,-1,29
 239 69 239 69 284.5 69 c 128,-1,30
 330 69 330 69 355.5 74 c 128,-1,31
 381 79 381 79 403.5 97.5 c 128,-1,32
 426 116 426 116 435 154.5 c 128,-1,33
 444 193 444 193 444 261 c 128,-1,34
 444 329 444 329 436.5 370 c 128,-1,35
 429 411 429 411 407 431.5 c 128,-1,36
 385 452 385 452 359.5 457 c 128,-1,37
 334 462 334 462 290 462 c 128,-1,38
 246 462 246 462 224 459 c 128,-1,39
 202 456 202 456 180 445 c 128,-1,40
 158 434 158 434 147.5 412 c 128,-1,24
 137 390 137 390 130.5 352.5 c 128,-1,25
EndSplineSet
Substitution2: "'smcp' Lowercase to Small Capitals lookup 1 subtable" odieresis.smcp
EndChar

StartChar: divide
Encoding: 247 247 184
Width: 516
GlyphClass: 2
Flags: W
LayerCount: 2
Fore
SplineSet
50 316 m 1,0,-1
 50 390 l 1,1,-1
 466 390 l 1,2,-1
 466 316 l 1,3,-1
 50 316 l 1,0,-1
212 173 m 2,4,-1
 212 227 l 2,5,6
 212 252 212 252 236 252 c 2,7,-1
 286 252 l 2,8,9
 309 252 309 252 309 227 c 2,10,-1
 309 173 l 2,11,12
 309 150 309 150 286 150 c 2,13,-1
 236 150 l 2,14,15
 212 150 212 150 212 173 c 2,4,-1
212 472 m 2,16,-1
 212 526 l 2,17,18
 212 551 212 551 236 551 c 2,19,-1
 286 551 l 2,20,21
 309 551 309 551 309 526 c 2,22,-1
 309 472 l 2,23,24
 309 449 309 449 286 449 c 2,25,-1
 236 449 l 2,26,27
 212 449 212 449 212 472 c 2,16,-1
EndSplineSet
EndChar

StartChar: oslash
Encoding: 248 248 185
Width: 568
GlyphClass: 2
Flags: W
LayerCount: 2
Fore
SplineSet
95 61 m 1,0,1
 50 118 50 118 50 268.5 c 128,-1,2
 50 419 50 419 101 477.5 c 128,-1,3
 152 536 152 536 284 536 c 0,4,5
 376 536 376 536 425 511 c 1,6,-1
 440 531 l 1,7,-1
 506 531 l 1,8,-1
 467 478 l 1,9,10
 518 419 518 419 518 264 c 128,-1,11
 518 109 518 109 468 52 c 128,-1,12
 418 -5 418 -5 284 -5 c 0,13,14
 184 -5 184 -5 132 27 c 1,15,-1
 112 0 l 1,16,-1
 51 0 l 1,17,-1
 95 61 l 1,0,1
130.5 352.5 m 128,-1,19
 124 315 124 315 124 242.5 c 128,-1,20
 124 170 124 170 144 127 c 1,21,-1
 381 450 l 1,22,23
 352 462 352 462 299 462 c 128,-1,24
 246 462 246 462 224 459 c 128,-1,25
 202 456 202 456 180 445 c 128,-1,26
 158 434 158 434 147.5 412 c 128,-1,18
 137 390 137 390 130.5 352.5 c 128,-1,19
177 88 m 1,27,28
 206 69 206 69 268 69 c 128,-1,29
 330 69 330 69 355.5 74 c 128,-1,30
 381 79 381 79 403.5 97.5 c 128,-1,31
 426 116 426 116 435 154.5 c 128,-1,32
 444 193 444 193 444 258 c 0,33,34
 444 373 444 373 420 415 c 1,35,-1
 177 88 l 1,27,28
EndSplineSet
Substitution2: "'smcp' Lowercase to Small Capitals lookup 1 subtable" oslash.smcp
EndChar

StartChar: ugrave
Encoding: 249 249 186
Width: 544
GlyphClass: 2
Flags: W
LayerCount: 2
Fore
SplineSet
110 729 m 1,0,-1
 204 729 l 1,1,-1
 312 596 l 1,2,-1
 242 596 l 1,3,-1
 110 729 l 1,0,-1
50 161 m 2,4,-1
 50 531 l 1,5,-1
 124 531 l 1,6,-1
 124 161 l 2,7,8
 124 114 124 114 149 89.5 c 128,-1,9
 174 65 174 65 213 65 c 128,-1,10
 252 65 252 65 286 73 c 128,-1,11
 320 81 320 81 340.5 89.5 c 128,-1,12
 361 98 361 98 410 122 c 1,13,-1
 410 531 l 1,14,-1
 484 531 l 1,15,-1
 484 0 l 1,16,-1
 432 0 l 1,17,-1
 410 62 l 1,18,19
 407 61 407 61 388 49.5 c 128,-1,20
 369 38 369 38 364.5 36 c 128,-1,21
 360 34 360 34 343 24.5 c 128,-1,22
 326 15 326 15 319 13 c 128,-1,23
 312 11 312 11 296 5 c 128,-1,24
 280 -1 280 -1 270 -3 c 0,25,26
 238 -9 238 -9 214 -9 c 0,27,28
 138 -9 138 -9 94 41 c 128,-1,29
 50 91 50 91 50 161 c 2,4,-1
EndSplineSet
AlternateSubs2: "'salt' Stylistic Alternatives in Latin lookup 16 subtable" ugrave.salt
Substitution2: "'smcp' Lowercase to Small Capitals lookup 1 subtable" ugrave.smcp
EndChar

StartChar: uacute
Encoding: 250 250 187
Width: 544
GlyphClass: 2
Flags: W
LayerCount: 2
Fore
SplineSet
232 596 m 1,0,-1
 340 729 l 1,1,-1
 434 729 l 1,2,-1
 302 596 l 1,3,-1
 232 596 l 1,0,-1
50 161 m 2,4,-1
 50 531 l 1,5,-1
 124 531 l 1,6,-1
 124 161 l 2,7,8
 124 114 124 114 149 89.5 c 128,-1,9
 174 65 174 65 213 65 c 128,-1,10
 252 65 252 65 286 73 c 128,-1,11
 320 81 320 81 340.5 89.5 c 128,-1,12
 361 98 361 98 410 122 c 1,13,-1
 410 531 l 1,14,-1
 484 531 l 1,15,-1
 484 0 l 1,16,-1
 432 0 l 1,17,-1
 410 62 l 1,18,19
 407 61 407 61 388 49.5 c 128,-1,20
 369 38 369 38 364.5 36 c 128,-1,21
 360 34 360 34 343 24.5 c 128,-1,22
 326 15 326 15 319 13 c 128,-1,23
 312 11 312 11 296 5 c 128,-1,24
 280 -1 280 -1 270 -3 c 0,25,26
 238 -9 238 -9 214 -9 c 0,27,28
 138 -9 138 -9 94 41 c 128,-1,29
 50 91 50 91 50 161 c 2,4,-1
EndSplineSet
AlternateSubs2: "'salt' Stylistic Alternatives in Latin lookup 16 subtable" uacute.salt
Substitution2: "'smcp' Lowercase to Small Capitals lookup 1 subtable" uacute.smcp
EndChar

StartChar: ucircumflex
Encoding: 251 251 188
Width: 544
GlyphClass: 2
Flags: W
LayerCount: 2
Fore
SplineSet
121 596 m 1,0,-1
 238 726 l 1,1,-1
 309 726 l 1,2,-1
 413 596 l 1,3,-1
 342 596 l 1,4,-1
 271 667 l 1,5,-1
 193 596 l 1,6,-1
 121 596 l 1,0,-1
50 161 m 2,7,-1
 50 531 l 1,8,-1
 124 531 l 1,9,-1
 124 161 l 2,10,11
 124 114 124 114 149 89.5 c 128,-1,12
 174 65 174 65 213 65 c 128,-1,13
 252 65 252 65 286 73 c 128,-1,14
 320 81 320 81 340.5 89.5 c 128,-1,15
 361 98 361 98 410 122 c 1,16,-1
 410 531 l 1,17,-1
 484 531 l 1,18,-1
 484 0 l 1,19,-1
 432 0 l 1,20,-1
 410 62 l 1,21,22
 407 61 407 61 388 49.5 c 128,-1,23
 369 38 369 38 364.5 36 c 128,-1,24
 360 34 360 34 343 24.5 c 128,-1,25
 326 15 326 15 319 13 c 128,-1,26
 312 11 312 11 296 5 c 128,-1,27
 280 -1 280 -1 270 -3 c 0,28,29
 238 -9 238 -9 214 -9 c 0,30,31
 138 -9 138 -9 94 41 c 128,-1,32
 50 91 50 91 50 161 c 2,7,-1
EndSplineSet
AlternateSubs2: "'salt' Stylistic Alternatives in Latin lookup 16 subtable" ucircumflex.salt
Substitution2: "'smcp' Lowercase to Small Capitals lookup 1 subtable" ucircumflex.smcp
EndChar

StartChar: udieresis
Encoding: 252 252 189
Width: 544
GlyphClass: 2
Flags: W
LayerCount: 2
Fore
SplineSet
89 647 m 128,-1,1
 89 668 89 668 104 682.5 c 128,-1,2
 119 697 119 697 140 697 c 128,-1,3
 161 697 161 697 175.5 682.5 c 128,-1,4
 190 668 190 668 190 647 c 128,-1,5
 190 626 190 626 175.5 611 c 128,-1,6
 161 596 161 596 140 596 c 128,-1,7
 119 596 119 596 104 611 c 128,-1,0
 89 626 89 626 89 647 c 128,-1,1
344 647 m 128,-1,9
 344 668 344 668 359 682.5 c 128,-1,10
 374 697 374 697 395 697 c 128,-1,11
 416 697 416 697 430.5 682.5 c 128,-1,12
 445 668 445 668 445 647 c 128,-1,13
 445 626 445 626 430.5 611 c 128,-1,14
 416 596 416 596 395 596 c 128,-1,15
 374 596 374 596 359 611 c 128,-1,8
 344 626 344 626 344 647 c 128,-1,9
50 161 m 2,16,-1
 50 531 l 1,17,-1
 124 531 l 1,18,-1
 124 161 l 2,19,20
 124 114 124 114 149 89.5 c 128,-1,21
 174 65 174 65 213 65 c 128,-1,22
 252 65 252 65 286 73 c 128,-1,23
 320 81 320 81 340.5 89.5 c 128,-1,24
 361 98 361 98 410 122 c 1,25,-1
 410 531 l 1,26,-1
 484 531 l 1,27,-1
 484 0 l 1,28,-1
 432 0 l 1,29,-1
 410 62 l 1,30,31
 407 61 407 61 388 49.5 c 128,-1,32
 369 38 369 38 364.5 36 c 128,-1,33
 360 34 360 34 343 24.5 c 128,-1,34
 326 15 326 15 319 13 c 128,-1,35
 312 11 312 11 296 5 c 128,-1,36
 280 -1 280 -1 270 -3 c 0,37,38
 238 -9 238 -9 214 -9 c 0,39,40
 138 -9 138 -9 94 41 c 128,-1,41
 50 91 50 91 50 161 c 2,16,-1
EndSplineSet
AlternateSubs2: "'salt' Stylistic Alternatives in Latin lookup 16 subtable" udieresis.salt
Substitution2: "'smcp' Lowercase to Small Capitals lookup 1 subtable" udieresis.smcp
EndChar

StartChar: yacute
Encoding: 253 253 190
Width: 554
GlyphClass: 2
Flags: W
LayerCount: 2
Fore
SplineSet
242 596 m 1,0,-1
 349 729 l 1,1,-1
 444 729 l 1,2,-1
 311 596 l 1,3,-1
 242 596 l 1,0,-1
21 531 m 1,4,-1
 102 531 l 1,5,-1
 231 116 l 2,6,7
 238 96 238 96 244.5 90 c 128,-1,8
 251 84 251 84 256 80.5 c 128,-1,9
 261 77 261 77 266 76 c 128,-1,10
 271 75 271 75 275.5 74.5 c 128,-1,11
 280 74 280 74 284 74 c 0,12,13
 293 76 293 76 297 77 c 1,14,-1
 449 531 l 1,15,-1
 532 531 l 1,16,-1
 298 -168 l 1,17,-1
 223 -270 l 1,18,-1
 177 -270 l 1,19,-1
 271 0 l 1,20,21
 185 0 185 0 151 110 c 2,22,-1
 21 531 l 1,4,-1
EndSplineSet
Substitution2: "'smcp' Lowercase to Small Capitals lookup 1 subtable" yacute.smcp
EndChar

StartChar: thorn
Encoding: 254 254 191
Width: 554
GlyphClass: 2
Flags: W
LayerCount: 2
Fore
SplineSet
70 -270 m 1,0,-1
 70 782 l 1,1,-1
 144 782 l 1,2,-1
 144 471 l 1,3,4
 171 490 171 490 232.5 515 c 128,-1,5
 294 540 294 540 341 540 c 128,-1,6
 388 540 388 540 423.5 517 c 128,-1,7
 459 494 459 494 478 454 c 0,8,9
 514 378 514 378 514 267 c 0,10,11
 514 113 514 113 468 48 c 1,12,13
 449 23 449 23 416 6.5 c 128,-1,14
 383 -10 383 -10 342 -10 c 128,-1,15
 301 -10 301 -10 245 0.5 c 128,-1,16
 189 11 189 11 144 29 c 1,17,-1
 144 -270 l 1,18,-1
 70 -270 l 1,0,-1
339 64 m 0,19,20
 389 64 389 64 414.5 108.5 c 128,-1,21
 440 153 440 153 440 257.5 c 128,-1,22
 440 362 440 362 413 414 c 128,-1,23
 386 466 386 466 339 466 c 1,24,25
 261 461 261 461 144 416 c 1,26,-1
 144 89 l 1,27,28
 191 75 191 75 224 72 c 128,-1,29
 257 69 257 69 270 68 c 0,30,31
 322 64 322 64 339 64 c 0,19,20
EndSplineSet
Substitution2: "'smcp' Lowercase to Small Capitals lookup 1 subtable" thorn.smcp
EndChar

StartChar: ydieresis
Encoding: 255 255 192
Width: 554
GlyphClass: 2
Flags: W
LayerCount: 2
Fore
SplineSet
113 611 m 128,-1,1
 98 626 98 626 98 641.5 c 128,-1,2
 98 657 98 657 102.5 666.5 c 128,-1,3
 107 676 107 676 113 683 c 1,4,5
 128 697 128 697 149 697 c 128,-1,6
 170 697 170 697 185 682.5 c 128,-1,7
 200 668 200 668 200 647 c 128,-1,8
 200 626 200 626 185 611 c 128,-1,9
 170 596 170 596 149 596 c 128,-1,0
 128 596 128 596 113 611 c 128,-1,1
354 647 m 128,-1,11
 354 668 354 668 368.5 682.5 c 128,-1,12
 383 697 383 697 404.5 697 c 128,-1,13
 426 697 426 697 440 682.5 c 128,-1,14
 454 668 454 668 454 647 c 128,-1,15
 454 626 454 626 439.5 611 c 128,-1,16
 425 596 425 596 404.5 596 c 128,-1,17
 384 596 384 596 369 611 c 128,-1,10
 354 626 354 626 354 647 c 128,-1,11
21 531 m 1,18,-1
 102 531 l 1,19,-1
 231 116 l 2,20,21
 238 96 238 96 244.5 90 c 128,-1,22
 251 84 251 84 256 80.5 c 128,-1,23
 261 77 261 77 266 76 c 128,-1,24
 271 75 271 75 275.5 74.5 c 128,-1,25
 280 74 280 74 284 74 c 0,26,27
 293 76 293 76 297 77 c 1,28,-1
 449 531 l 1,29,-1
 532 531 l 1,30,-1
 298 -168 l 1,31,-1
 223 -270 l 1,32,-1
 177 -270 l 1,33,-1
 271 0 l 1,34,35
 185 0 185 0 151 110 c 2,36,-1
 21 531 l 1,18,-1
EndSplineSet
Substitution2: "'smcp' Lowercase to Small Capitals lookup 1 subtable" ydieresis.smcp
EndChar

StartChar: Amacron
Encoding: 256 256 193
Width: 670
GlyphClass: 2
Flags: W
LayerCount: 2
Fore
SplineSet
205 797 m 1,0,-1
 205 860 l 1,1,-1
 497 860 l 1,2,-1
 497 797 l 1,3,-1
 205 797 l 1,0,-1
45 0 m 1,4,-1
 314 732 l 1,5,-1
 388 732 l 1,6,-1
 645 0 l 1,7,-1
 557 0 l 1,8,-1
 494 204 l 1,9,-1
 202 204 l 1,10,-1
 136 0 l 1,11,-1
 45 0 l 1,4,-1
229 278 m 1,12,-1
 468 278 l 1,13,-1
 350 619 l 1,14,-1
 229 278 l 1,12,-1
EndSplineSet
Substitution2: "'c2sc' Capitals to Small Capitals in Latin lookup 2 subtable" amacron.smcp
EndChar

StartChar: amacron
Encoding: 257 257 194
Width: 519
GlyphClass: 2
Flags: W
LayerCount: 2
Fore
SplineSet
127 601 m 1,0,-1
 127 664 l 1,1,-1
 419 664 l 1,2,-1
 419 601 l 1,3,-1
 127 601 l 1,0,-1
57 511 m 1,4,5
 165 541 165 541 319 541 c 0,6,7
 384 541 384 541 426.5 503 c 128,-1,8
 469 465 469 465 469 387 c 2,9,-1
 469 0 l 1,10,-1
 414 0 l 1,11,-1
 395 64 l 1,12,-1
 380 57 l 1,13,14
 250 -6 250 -6 173 -6 c 0,15,16
 116 -6 116 -6 78 29 c 128,-1,17
 40 64 40 64 40 126 c 2,18,-1
 40 187 l 2,19,20
 40 248 40 248 75.5 284 c 128,-1,21
 111 320 111 320 173 320 c 0,22,23
 284 320 284 320 339.5 320 c 128,-1,24
 395 320 395 320 395 320 c 1,25,26
 396 353 396 353 396 369.5 c 128,-1,27
 396 386 396 386 395 387 c 1,28,29
 395 469 395 469 309 469 c 128,-1,30
 223 469 223 469 57 457 c 1,31,-1
 57 511 l 1,4,5
114 131 m 2,32,33
 114 68 114 68 173 68 c 0,34,35
 209 68 209 68 264.5 81 c 128,-1,36
 320 94 320 94 358 106 c 1,37,-1
 395 119 l 1,38,-1
 395 262 l 1,39,-1
 173 246 l 2,40,41
 143 243 143 243 128.5 225 c 128,-1,42
 114 207 114 207 114 181 c 2,43,-1
 114 131 l 2,32,33
EndSplineSet
AlternateSubs2: "'salt' Stylistic Alternatives in Latin lookup 16 subtable" amacron.salt
Substitution2: "'smcp' Lowercase to Small Capitals lookup 1 subtable" amacron.smcp
EndChar

StartChar: Abreve
Encoding: 258 258 195
Width: 670
GlyphClass: 2
Flags: W
LayerCount: 2
Fore
SplineSet
236 911 m 1,0,-1
 283 911 l 1,1,2
 283 883 283 883 303.5 863.5 c 128,-1,3
 324 844 324 844 351.5 844 c 128,-1,4
 379 844 379 844 399 862 c 128,-1,5
 419 880 419 880 419 911 c 1,6,-1
 466 911 l 1,7,8
 466 858 466 858 430.5 827.5 c 128,-1,9
 395 797 395 797 350.5 797 c 128,-1,10
 306 797 306 797 271 828.5 c 128,-1,11
 236 860 236 860 236 911 c 1,0,-1
45 0 m 1,12,-1
 314 732 l 1,13,-1
 388 732 l 1,14,-1
 645 0 l 1,15,-1
 557 0 l 1,16,-1
 494 204 l 1,17,-1
 202 204 l 1,18,-1
 136 0 l 1,19,-1
 45 0 l 1,12,-1
229 278 m 1,20,-1
 468 278 l 1,21,-1
 350 619 l 1,22,-1
 229 278 l 1,20,-1
EndSplineSet
Substitution2: "'c2sc' Capitals to Small Capitals in Latin lookup 2 subtable" abreve.smcp
EndChar

StartChar: abreve
Encoding: 259 259 196
Width: 519
GlyphClass: 2
Flags: W
LayerCount: 2
Fore
SplineSet
158 715 m 1,0,-1
 205 715 l 1,1,2
 205 687 205 687 225.5 667.5 c 128,-1,3
 246 648 246 648 273.5 648 c 128,-1,4
 301 648 301 648 321 666 c 128,-1,5
 341 684 341 684 341 715 c 1,6,-1
 388 715 l 1,7,8
 388 662 388 662 352.5 631.5 c 128,-1,9
 317 601 317 601 272.5 601 c 128,-1,10
 228 601 228 601 193 632.5 c 128,-1,11
 158 664 158 664 158 715 c 1,0,-1
57 511 m 1,12,13
 165 541 165 541 319 541 c 0,14,15
 384 541 384 541 426.5 503 c 128,-1,16
 469 465 469 465 469 387 c 2,17,-1
 469 0 l 1,18,-1
 414 0 l 1,19,-1
 395 64 l 1,20,-1
 380 57 l 1,21,22
 250 -6 250 -6 173 -6 c 0,23,24
 116 -6 116 -6 78 29 c 128,-1,25
 40 64 40 64 40 126 c 2,26,-1
 40 187 l 2,27,28
 40 248 40 248 75.5 284 c 128,-1,29
 111 320 111 320 173 320 c 0,30,31
 284 320 284 320 339.5 320 c 128,-1,32
 395 320 395 320 395 320 c 1,33,34
 396 353 396 353 396 369.5 c 128,-1,35
 396 386 396 386 395 387 c 1,36,37
 395 469 395 469 309 469 c 128,-1,38
 223 469 223 469 57 457 c 1,39,-1
 57 511 l 1,12,13
114 131 m 2,40,41
 114 68 114 68 173 68 c 0,42,43
 209 68 209 68 264.5 81 c 128,-1,44
 320 94 320 94 358 106 c 1,45,-1
 395 119 l 1,46,-1
 395 262 l 1,47,-1
 173 246 l 2,48,49
 143 243 143 243 128.5 225 c 128,-1,50
 114 207 114 207 114 181 c 2,51,-1
 114 131 l 2,40,41
EndSplineSet
Substitution2: "'smcp' Lowercase to Small Capitals lookup 1 subtable" abreve.smcp
EndChar

StartChar: Aogonek
Encoding: 260 260 197
Width: 670
GlyphClass: 2
Flags: W
LayerCount: 2
Fore
SplineSet
564 -83 m 0,0,1
 564 -119 564 -119 626 -121 c 1,2,-1
 626 -181 l 1,3,4
 616 -182 616 -182 600 -182 c 128,-1,5
 584 -182 584 -182 559 -173 c 128,-1,6
 534 -164 534 -164 519 -142 c 0,7,8
 501 -117 501 -117 501 -92.5 c 128,-1,9
 501 -68 501 -68 521.5 -43 c 128,-1,10
 542 -18 542 -18 584 0 c 1,11,-1
 623 0 l 1,12,13
 564 -49 564 -49 564 -83 c 0,0,1
45 0 m 1,14,-1
 314 732 l 1,15,-1
 388 732 l 1,16,-1
 645 0 l 1,17,-1
 557 0 l 1,18,-1
 494 204 l 1,19,-1
 202 204 l 1,20,-1
 136 0 l 1,21,-1
 45 0 l 1,14,-1
229 278 m 1,22,-1
 468 278 l 1,23,-1
 350 619 l 1,24,-1
 229 278 l 1,22,-1
EndSplineSet
Substitution2: "'c2sc' Capitals to Small Capitals in Latin lookup 2 subtable" aogonek.smcp
EndChar

StartChar: aogonek
Encoding: 261 261 198
Width: 519
GlyphClass: 2
Flags: W
LayerCount: 2
Fore
SplineSet
402 -83 m 0,0,1
 402 -119 402 -119 465 -121 c 1,2,-1
 465 -181 l 1,3,4
 455 -182 455 -182 439 -182 c 128,-1,5
 423 -182 423 -182 397.5 -173 c 128,-1,6
 372 -164 372 -164 357 -142 c 0,7,8
 339 -117 339 -117 339 -92.5 c 128,-1,9
 339 -68 339 -68 359.5 -43 c 128,-1,10
 380 -18 380 -18 423 0 c 1,11,-1
 462 0 l 1,12,13
 402 -49 402 -49 402 -83 c 0,0,1
57 511 m 1,14,15
 165 541 165 541 319 541 c 0,16,17
 384 541 384 541 426.5 503 c 128,-1,18
 469 465 469 465 469 387 c 2,19,-1
 469 0 l 1,20,-1
 414 0 l 1,21,-1
 395 64 l 1,22,-1
 380 57 l 1,23,24
 250 -6 250 -6 173 -6 c 0,25,26
 116 -6 116 -6 78 29 c 128,-1,27
 40 64 40 64 40 126 c 2,28,-1
 40 187 l 2,29,30
 40 248 40 248 75.5 284 c 128,-1,31
 111 320 111 320 173 320 c 0,32,33
 284 320 284 320 339.5 320 c 128,-1,34
 395 320 395 320 395 320 c 1,35,36
 396 353 396 353 396 369.5 c 128,-1,37
 396 386 396 386 395 387 c 1,38,39
 395 469 395 469 309 469 c 128,-1,40
 223 469 223 469 57 457 c 1,41,-1
 57 511 l 1,14,15
114 131 m 2,42,43
 114 68 114 68 173 68 c 0,44,45
 209 68 209 68 264.5 81 c 128,-1,46
 320 94 320 94 358 106 c 1,47,-1
 395 119 l 1,48,-1
 395 262 l 1,49,-1
 173 246 l 2,50,51
 143 243 143 243 128.5 225 c 128,-1,52
 114 207 114 207 114 181 c 2,53,-1
 114 131 l 2,42,43
EndSplineSet
AlternateSubs2: "'salt' Stylistic Alternatives in Latin lookup 16 subtable" aogonek.salt
Substitution2: "'smcp' Lowercase to Small Capitals lookup 1 subtable" aogonek.smcp
EndChar

StartChar: Cacute
Encoding: 262 262 199
Width: 578
GlyphClass: 2
Flags: W
LayerCount: 2
Fore
SplineSet
294 800 m 1,0,-1
 402 933 l 1,1,-1
 496 933 l 1,2,-1
 364 800 l 1,3,-1
 294 800 l 1,0,-1
543 656 m 1,4,5
 363 666 363 666 298.5 666 c 128,-1,6
 234 666 234 666 198.5 641.5 c 128,-1,7
 163 617 163 617 146 552.5 c 128,-1,8
 129 488 129 488 129 366 c 0,9,10
 129 68 129 68 299 68 c 1,11,-1
 543 75 l 1,12,-1
 543 16 l 1,13,14
 425 -6 425 -6 299 -6 c 0,15,16
 55 -6 55 -6 55 368 c 0,17,18
 55 558 55 558 106.5 649 c 128,-1,19
 158 740 158 740 299 740 c 0,20,21
 408 740 408 740 543 715 c 1,22,-1
 543 656 l 1,4,5
EndSplineSet
Substitution2: "'c2sc' Capitals to Small Capitals in Latin lookup 2 subtable" cacute.smcp
EndChar

StartChar: cacute
Encoding: 263 263 200
Width: 500
GlyphClass: 2
Flags: W
LayerCount: 2
Fore
SplineSet
234 598 m 1,0,-1
 341 731 l 1,1,-1
 436 731 l 1,2,-1
 303 598 l 1,3,-1
 234 598 l 1,0,-1
50 266 m 128,-1,5
 50 350 50 350 62.5 405.5 c 128,-1,6
 75 461 75 461 100 488.5 c 128,-1,7
 125 516 125 516 154 526 c 128,-1,8
 183 536 183 536 248 536 c 128,-1,9
 313 536 313 536 453 510 c 1,10,-1
 453 456 l 1,11,12
 314 462 314 462 256 462 c 128,-1,13
 198 462 198 462 183 457 c 128,-1,14
 168 452 168 452 152 434 c 1,15,16
 124 399 124 399 124 274.5 c 128,-1,17
 124 150 124 150 146.5 109.5 c 128,-1,18
 169 69 169 69 225 69 c 0,19,20
 319 69 319 69 422 77 c 2,21,-1
 460 80 l 1,22,-1
 460 24 l 1,23,24
 364 -3 364 -3 225 -5 c 0,25,26
 184 -5 184 -5 155.5 5 c 128,-1,27
 127 15 127 15 101.5 42.5 c 128,-1,28
 76 70 76 70 63 126 c 128,-1,4
 50 182 50 182 50 266 c 128,-1,5
EndSplineSet
Substitution2: "'smcp' Lowercase to Small Capitals lookup 1 subtable" cacute.smcp
EndChar

StartChar: Ccircumflex
Encoding: 264 264 201
Width: 578
GlyphClass: 2
Flags: W
LayerCount: 2
Fore
SplineSet
183 800 m 1,0,-1
 300 930 l 1,1,-1
 371 930 l 1,2,-1
 475 800 l 1,3,-1
 404 800 l 1,4,-1
 333 871 l 1,5,-1
 255 800 l 1,6,-1
 183 800 l 1,0,-1
543 656 m 1,7,8
 363 666 363 666 298.5 666 c 128,-1,9
 234 666 234 666 198.5 641.5 c 128,-1,10
 163 617 163 617 146 552.5 c 128,-1,11
 129 488 129 488 129 366 c 0,12,13
 129 68 129 68 299 68 c 1,14,-1
 543 75 l 1,15,-1
 543 16 l 1,16,17
 425 -6 425 -6 299 -6 c 0,18,19
 55 -6 55 -6 55 368 c 0,20,21
 55 558 55 558 106.5 649 c 128,-1,22
 158 740 158 740 299 740 c 0,23,24
 408 740 408 740 543 715 c 1,25,-1
 543 656 l 1,7,8
EndSplineSet
Substitution2: "'c2sc' Capitals to Small Capitals in Latin lookup 2 subtable" ccircumflex.smcp
EndChar

StartChar: ccircumflex
Encoding: 265 265 202
Width: 500
GlyphClass: 2
Flags: W
LayerCount: 2
Fore
SplineSet
137 598 m 1,0,-1
 254 728 l 1,1,-1
 325 728 l 1,2,-1
 429 598 l 1,3,-1
 358 598 l 1,4,-1
 287 669 l 1,5,-1
 209 598 l 1,6,-1
 137 598 l 1,0,-1
50 266 m 128,-1,8
 50 350 50 350 62.5 405.5 c 128,-1,9
 75 461 75 461 100 488.5 c 128,-1,10
 125 516 125 516 154 526 c 128,-1,11
 183 536 183 536 248 536 c 128,-1,12
 313 536 313 536 453 510 c 1,13,-1
 453 456 l 1,14,15
 314 462 314 462 256 462 c 128,-1,16
 198 462 198 462 183 457 c 128,-1,17
 168 452 168 452 152 434 c 1,18,19
 124 399 124 399 124 274.5 c 128,-1,20
 124 150 124 150 146.5 109.5 c 128,-1,21
 169 69 169 69 225 69 c 0,22,23
 319 69 319 69 422 77 c 2,24,-1
 460 80 l 1,25,-1
 460 24 l 1,26,27
 364 -3 364 -3 225 -5 c 0,28,29
 184 -5 184 -5 155.5 5 c 128,-1,30
 127 15 127 15 101.5 42.5 c 128,-1,31
 76 70 76 70 63 126 c 128,-1,7
 50 182 50 182 50 266 c 128,-1,8
EndSplineSet
Substitution2: "'smcp' Lowercase to Small Capitals lookup 1 subtable" ccircumflex.smcp
EndChar

StartChar: Cdotaccent
Encoding: 266 266 203
Width: 578
GlyphClass: 2
Flags: W
LayerCount: 2
Fore
SplineSet
290 825 m 2,0,-1
 290 879 l 2,1,2
 290 904 290 904 314 904 c 2,3,-1
 364 904 l 2,4,5
 387 904 387 904 387 879 c 2,6,-1
 387 825 l 2,7,8
 387 802 387 802 364 802 c 2,9,-1
 314 802 l 2,10,11
 290 802 290 802 290 825 c 2,0,-1
543 656 m 1,12,13
 363 666 363 666 298.5 666 c 128,-1,14
 234 666 234 666 198.5 641.5 c 128,-1,15
 163 617 163 617 146 552.5 c 128,-1,16
 129 488 129 488 129 366 c 0,17,18
 129 68 129 68 299 68 c 1,19,-1
 543 75 l 1,20,-1
 543 16 l 1,21,22
 425 -6 425 -6 299 -6 c 0,23,24
 55 -6 55 -6 55 368 c 0,25,26
 55 558 55 558 106.5 649 c 128,-1,27
 158 740 158 740 299 740 c 0,28,29
 408 740 408 740 543 715 c 1,30,-1
 543 656 l 1,12,13
EndSplineSet
Substitution2: "'c2sc' Capitals to Small Capitals in Latin lookup 2 subtable" cdotaccent.smcp
EndChar

StartChar: cdotaccent
Encoding: 267 267 204
Width: 500
GlyphClass: 2
Flags: W
LayerCount: 2
Fore
SplineSet
245 623 m 2,0,-1
 245 677 l 2,1,2
 245 702 245 702 269 702 c 2,3,-1
 319 702 l 2,4,5
 342 702 342 702 342 677 c 2,6,-1
 342 623 l 2,7,8
 342 600 342 600 319 600 c 2,9,-1
 269 600 l 2,10,11
 245 600 245 600 245 623 c 2,0,-1
50 266 m 128,-1,13
 50 350 50 350 62.5 405.5 c 128,-1,14
 75 461 75 461 100 488.5 c 128,-1,15
 125 516 125 516 154 526 c 128,-1,16
 183 536 183 536 248 536 c 128,-1,17
 313 536 313 536 453 510 c 1,18,-1
 453 456 l 1,19,20
 314 462 314 462 256 462 c 128,-1,21
 198 462 198 462 183 457 c 128,-1,22
 168 452 168 452 152 434 c 1,23,24
 124 399 124 399 124 274.5 c 128,-1,25
 124 150 124 150 146.5 109.5 c 128,-1,26
 169 69 169 69 225 69 c 0,27,28
 319 69 319 69 422 77 c 2,29,-1
 460 80 l 1,30,-1
 460 24 l 1,31,32
 364 -3 364 -3 225 -5 c 0,33,34
 184 -5 184 -5 155.5 5 c 128,-1,35
 127 15 127 15 101.5 42.5 c 128,-1,36
 76 70 76 70 63 126 c 128,-1,12
 50 182 50 182 50 266 c 128,-1,13
EndSplineSet
Substitution2: "'smcp' Lowercase to Small Capitals lookup 1 subtable" cdotaccent.smcp
EndChar

StartChar: Ccaron
Encoding: 268 268 205
Width: 578
GlyphClass: 2
Flags: W
LayerCount: 2
Fore
SplineSet
188 930 m 1,0,-1
 260 930 l 1,1,-1
 340 859 l 1,2,-1
 409 930 l 1,3,-1
 480 930 l 1,4,-1
 376 800 l 1,5,-1
 305 800 l 1,6,-1
 188 930 l 1,0,-1
543 656 m 1,7,8
 363 666 363 666 298.5 666 c 128,-1,9
 234 666 234 666 198.5 641.5 c 128,-1,10
 163 617 163 617 146 552.5 c 128,-1,11
 129 488 129 488 129 366 c 0,12,13
 129 68 129 68 299 68 c 1,14,-1
 543 75 l 1,15,-1
 543 16 l 1,16,17
 425 -6 425 -6 299 -6 c 0,18,19
 55 -6 55 -6 55 368 c 0,20,21
 55 558 55 558 106.5 649 c 128,-1,22
 158 740 158 740 299 740 c 0,23,24
 408 740 408 740 543 715 c 1,25,-1
 543 656 l 1,7,8
EndSplineSet
Substitution2: "'c2sc' Capitals to Small Capitals in Latin lookup 2 subtable" ccaron.smcp
EndChar

StartChar: ccaron
Encoding: 269 269 206
Width: 500
GlyphClass: 2
Flags: W
LayerCount: 2
Fore
SplineSet
122 728 m 1,0,-1
 194 728 l 1,1,-1
 274 657 l 1,2,-1
 343 728 l 1,3,-1
 414 728 l 1,4,-1
 310 598 l 1,5,-1
 239 598 l 1,6,-1
 122 728 l 1,0,-1
50 266 m 128,-1,8
 50 350 50 350 62.5 405.5 c 128,-1,9
 75 461 75 461 100 488.5 c 128,-1,10
 125 516 125 516 154 526 c 128,-1,11
 183 536 183 536 248 536 c 128,-1,12
 313 536 313 536 453 510 c 1,13,-1
 453 456 l 1,14,15
 314 462 314 462 256 462 c 128,-1,16
 198 462 198 462 183 457 c 128,-1,17
 168 452 168 452 152 434 c 1,18,19
 124 399 124 399 124 274.5 c 128,-1,20
 124 150 124 150 146.5 109.5 c 128,-1,21
 169 69 169 69 225 69 c 0,22,23
 319 69 319 69 422 77 c 2,24,-1
 460 80 l 1,25,-1
 460 24 l 1,26,27
 364 -3 364 -3 225 -5 c 0,28,29
 184 -5 184 -5 155.5 5 c 128,-1,30
 127 15 127 15 101.5 42.5 c 128,-1,31
 76 70 76 70 63 126 c 128,-1,7
 50 182 50 182 50 266 c 128,-1,8
EndSplineSet
Substitution2: "'smcp' Lowercase to Small Capitals lookup 1 subtable" ccaron.smcp
EndChar

StartChar: Dcaron
Encoding: 270 270 207
Width: 657
GlyphClass: 2
Flags: W
LayerCount: 2
Fore
SplineSet
172 922 m 1,0,-1
 244 922 l 1,1,-1
 324 851 l 1,2,-1
 393 922 l 1,3,-1
 464 922 l 1,4,-1
 360 792 l 1,5,-1
 289 792 l 1,6,-1
 172 922 l 1,0,-1
80 0 m 1,7,-1
 80 732 l 1,8,-1
 352 732 l 2,9,10
 417 732 417 732 465.5 707.5 c 128,-1,11
 514 683 514 683 541 646 c 128,-1,12
 568 609 568 609 585 557 c 0,13,14
 612 474 612 474 612 363 c 0,15,16
 612 254 612 254 576 164 c 0,17,18
 534 62 534 62 453 22 c 0,19,20
 408 0 408 0 352 0 c 2,21,-1
 80 0 l 1,7,-1
154 77 m 1,22,-1
 352 77 l 2,23,24
 415 77 415 77 458 118 c 0,25,26
 538 193 538 193 538 356 c 128,-1,27
 538 519 538 519 490.5 588.5 c 128,-1,28
 443 658 443 658 352 658 c 2,29,-1
 154 658 l 1,30,-1
 154 77 l 1,22,-1
EndSplineSet
Substitution2: "'c2sc' Capitals to Small Capitals in Latin lookup 2 subtable" dcaron.smcp
EndChar

StartChar: dcaron
Encoding: 271 271 208
Width: 554
GlyphClass: 2
Flags: W
LayerCount: 2
Fore
SplineSet
57.5 168.5 m 128,-1,1
 50 212 50 212 50 266.5 c 128,-1,2
 50 321 50 321 56.5 364.5 c 128,-1,3
 63 408 63 408 80 450 c 0,4,5
 117 539 117 539 225 539 c 0,6,7
 262 539 262 539 319 528 c 128,-1,8
 376 517 376 517 421 499 c 1,9,-1
 421 785 l 1,10,-1
 494 785 l 1,11,-1
 494 0 l 1,12,-1
 441 0 l 1,13,-1
 421 59 l 1,14,15
 396 41 396 41 333.5 17.5 c 128,-1,16
 271 -6 271 -6 222 -6 c 128,-1,17
 173 -6 173 -6 137 18 c 128,-1,18
 101 42 101 42 83 83.5 c 128,-1,0
 65 125 65 125 57.5 168.5 c 128,-1,1
124 263 m 0,19,20
 124 68 124 68 225 68 c 0,21,22
 308 68 308 68 421 114 c 1,23,-1
 421 439 l 1,24,25
 321 465 321 465 225 465 c 0,26,27
 173 465 173 465 148.5 422 c 128,-1,28
 124 379 124 379 124 263 c 0,19,20
616 780 m 1,29,-1
 616 713 l 1,30,-1
 605 579 l 1,31,-1
 552 579 l 1,32,-1
 542 713 l 1,33,-1
 541 780 l 1,34,-1
 616 780 l 1,29,-1
EndSplineSet
AlternateSubs2: "'salt' Stylistic Alternatives in Latin lookup 16 subtable" dcaron.salt
Substitution2: "'smcp' Lowercase to Small Capitals lookup 1 subtable" dcaron.smcp
EndChar

StartChar: Dcroat
Encoding: 272 272 209
Width: 657
GlyphClass: 2
Flags: W
LayerCount: 2
Fore
SplineSet
15 346 m 1,0,-1
 15 400 l 1,1,-1
 80 400 l 1,2,-1
 80 731 l 2,3,4
 80 732 80 732 353 732 c 0,5,6
 463 732 463 732 520 669 c 0,7,8
 578 606 578 606 595 525 c 0,9,10
 612 442 612 442 612 376.5 c 128,-1,11
 612 311 612 311 604 261.5 c 128,-1,12
 596 212 596 212 576.5 164 c 128,-1,13
 557 116 557 116 528 80 c 128,-1,14
 499 44 499 44 454 22 c 128,-1,15
 409 0 409 0 353 0 c 2,16,-1
 80 0 l 1,17,-1
 80 346 l 1,18,-1
 15 346 l 1,0,-1
154 77 m 1,19,-1
 353 77 l 2,20,21
 446 77 446 77 490.5 157.5 c 128,-1,22
 535 238 535 238 535 364 c 0,23,24
 535 653 535 653 353 653 c 2,25,-1
 154 652 l 1,26,-1
 154 400 l 1,27,-1
 293 400 l 1,28,-1
 293 346 l 1,29,-1
 154 346 l 1,30,-1
 154 77 l 1,19,-1
EndSplineSet
Substitution2: "'c2sc' Capitals to Small Capitals in Latin lookup 2 subtable" dcroat.smcp
EndChar

StartChar: dcroat
Encoding: 273 273 210
Width: 554
GlyphClass: 2
Flags: W
LayerCount: 2
Fore
SplineSet
57.5 168.5 m 128,-1,1
 50 212 50 212 50 266.5 c 128,-1,2
 50 321 50 321 56.5 364.5 c 128,-1,3
 63 408 63 408 80 450 c 0,4,5
 117 539 117 539 225 539 c 0,6,7
 262 539 262 539 319 528 c 128,-1,8
 376 517 376 517 421 499 c 1,9,-1
 421 616 l 1,10,-1
 299 616 l 1,11,-1
 299 670 l 1,12,-1
 421 670 l 1,13,-1
 421 785 l 1,14,-1
 494 785 l 1,15,-1
 494 670 l 1,16,-1
 566 670 l 1,17,-1
 566 616 l 1,18,-1
 494 616 l 1,19,-1
 494 0 l 1,20,-1
 441 0 l 1,21,-1
 421 59 l 1,22,23
 396 41 396 41 333.5 17.5 c 128,-1,24
 271 -6 271 -6 222 -6 c 128,-1,25
 173 -6 173 -6 137 18 c 128,-1,26
 101 42 101 42 83 83.5 c 128,-1,0
 65 125 65 125 57.5 168.5 c 128,-1,1
124 263 m 0,27,28
 124 68 124 68 225 68 c 0,29,30
 308 68 308 68 421 114 c 1,31,-1
 421 439 l 1,32,33
 321 465 321 465 225 465 c 0,34,35
 173 465 173 465 148.5 422 c 128,-1,36
 124 379 124 379 124 263 c 0,27,28
EndSplineSet
AlternateSubs2: "'salt' Stylistic Alternatives in Latin lookup 16 subtable" dcroat.salt
Substitution2: "'smcp' Lowercase to Small Capitals lookup 1 subtable" dcroat.smcp
EndChar

StartChar: Emacron
Encoding: 274 274 211
Width: 567
GlyphClass: 2
Flags: W
LayerCount: 2
Fore
SplineSet
173 795 m 1,0,-1
 173 858 l 1,1,-1
 465 858 l 1,2,-1
 465 795 l 1,3,-1
 173 795 l 1,0,-1
80 602 m 2,4,5
 80 671 80 671 114.5 701.5 c 128,-1,6
 149 732 149 732 200 732 c 0,7,8
 203 732 203 732 206 732 c 2,9,-1
 522 716 l 1,10,-1
 522 658 l 1,11,-1
 206 658 l 2,12,13
 182 658 182 658 169.5 648.5 c 128,-1,14
 157 639 157 639 155.5 629.5 c 128,-1,15
 154 620 154 620 154 602 c 2,16,-1
 154 402 l 1,17,-1
 482 392 l 1,18,-1
 482 333 l 1,19,-1
 154 323 l 1,20,-1
 154 123 l 2,21,22
 154 98 154 98 165 86 c 128,-1,23
 176 74 176 74 186 72.5 c 128,-1,24
 196 71 196 71 216 71 c 2,25,-1
 522 71 l 1,26,-1
 522 14 l 1,27,-1
 216 -3 l 2,28,29
 208 -3 208 -3 201 -3 c 0,30,31
 80 -3 80 -3 80 123 c 2,32,-1
 80 602 l 2,4,5
EndSplineSet
Substitution2: "'c2sc' Capitals to Small Capitals in Latin lookup 2 subtable" emacron.smcp
EndChar

StartChar: emacron
Encoding: 275 275 212
Width: 525
GlyphClass: 2
Flags: W
LayerCount: 2
Fore
SplineSet
129 595 m 1,0,-1
 129 658 l 1,1,-1
 421 658 l 1,2,-1
 421 595 l 1,3,-1
 129 595 l 1,0,-1
50 268 m 0,4,5
 50 356 50 356 62 409.5 c 128,-1,6
 74 463 74 463 105.5 490.5 c 128,-1,7
 137 518 137 518 175.5 526.5 c 128,-1,8
 214 535 214 535 275.5 535 c 128,-1,9
 337 535 337 535 368 530 c 128,-1,10
 399 525 399 525 429 507 c 128,-1,11
 459 489 459 489 472 450 c 128,-1,12
 485 411 485 411 485 347 c 0,13,14
 485 225 485 225 348 225 c 2,15,-1
 124 225 l 1,16,17
 124 132 124 132 145 100.5 c 128,-1,18
 166 69 166 69 225 69 c 0,19,20
 407 69 407 69 475 79 c 1,21,-1
 475 23 l 1,22,23
 376 -5 376 -5 225 -5 c 0,24,25
 124 -5 124 -5 87 53 c 128,-1,26
 50 111 50 111 50 268 c 0,4,5
124 298 m 1,27,-1
 348 298 l 2,28,29
 411 298 411 298 411 347 c 0,30,31
 411 424 411 424 388.5 442.5 c 128,-1,32
 366 461 366 461 283 461 c 0,33,34
 180 461 180 461 160 440 c 0,35,36
 132 410 132 410 128 374 c 128,-1,37
 124 338 124 338 124 298 c 1,27,-1
EndSplineSet
Substitution2: "'smcp' Lowercase to Small Capitals lookup 1 subtable" emacron.smcp
EndChar

StartChar: Edotaccent
Encoding: 278 278 213
Width: 567
GlyphClass: 2
Flags: W
LayerCount: 2
Fore
SplineSet
272 817 m 2,0,-1
 272 871 l 2,1,2
 272 896 272 896 296 896 c 2,3,-1
 346 896 l 2,4,5
 369 896 369 896 369 871 c 2,6,-1
 369 817 l 2,7,8
 369 794 369 794 346 794 c 2,9,-1
 296 794 l 2,10,11
 272 794 272 794 272 817 c 2,0,-1
80 602 m 2,12,13
 80 671 80 671 114.5 701.5 c 128,-1,14
 149 732 149 732 200 732 c 0,15,16
 203 732 203 732 206 732 c 2,17,-1
 522 716 l 1,18,-1
 522 658 l 1,19,-1
 206 658 l 2,20,21
 182 658 182 658 169.5 648.5 c 128,-1,22
 157 639 157 639 155.5 629.5 c 128,-1,23
 154 620 154 620 154 602 c 2,24,-1
 154 402 l 1,25,-1
 482 392 l 1,26,-1
 482 333 l 1,27,-1
 154 323 l 1,28,-1
 154 123 l 2,29,30
 154 98 154 98 165 86 c 128,-1,31
 176 74 176 74 186 72.5 c 128,-1,32
 196 71 196 71 216 71 c 2,33,-1
 522 71 l 1,34,-1
 522 14 l 1,35,-1
 216 -3 l 2,36,37
 208 -3 208 -3 201 -3 c 0,38,39
 80 -3 80 -3 80 123 c 2,40,-1
 80 602 l 2,12,13
EndSplineSet
Substitution2: "'c2sc' Capitals to Small Capitals in Latin lookup 2 subtable" edotaccent.smcp
EndChar

